CascadiaCode-Bold.ufo
<glyph name="exclam" format="2">
  <advance width="1200"/>
  <unicode hex="0021"/>
  <outline>
    <contour>
      <point x="462" y="576" type="line"/>
      <point x="734" y="576" type="line"/>
      <point x="764" y="1430" type="line"/>
      <point x="436" y="1430" type="line"/>
    </contour>
    <component base="period"/>
  </outline>
</glyph>
<glyph name="numbersign" format="2">
  <advance width="1200"/>
  <unicode hex="0023"/>
  <outline>
    <contour>
      <point x="640" y="0" type="line"/>
      <point x="896" y="0" type="line"/>
      <point x="1016" y="1420" type="line"/>
      <point x="760" y="1420" type="line"/>
    </contour>
    <contour>
      <point x="100" y="300" type="line"/>
      <point x="1140" y="300" type="line"/>
      <point x="1140" y="564" type="line"/>
      <point x="100" y="564" type="line"/>
    </contour>
    <contour>
      <point x="224" y="0" type="line"/>
      <point x="480" y="0" type="line"/>
      <point x="600" y="1420" type="line"/>
      <point x="344" y="1420" type="line"/>
    </contour>
    <contour>
      <point x="100" y="856" type="line"/>
      <point x="1140" y="856" type="line"/>
      <point x="1140" y="1120" type="line"/>
      <point x="100" y="1120" type="line"/>
    </contour>
  </outline>
</glyph>
<glyph name="percent" format="2">
  <advance width="1200"/>
  <unicode hex="0025"/>
  <outline>
    <contour>
      <point x="179" y="306" type="line"/>
      <point x="1139" y="946" type="line"/>
      <point x="1017" y="1106" type="line"/>
      <point x="57" y="472" type="line"/>
    </contour>
    <contour>
      <point x="861" y="-20" type="curve" smooth="yes"/>
      <point x="1055" y="-20"/>
      <point x="1183" y="108"/>
      <point x="1183" y="302" type="curve" smooth="yes"/>
      <point x="1183" y="498"/>
      <point x="1055" y="626"/>
      <point x="861" y="626" type="curve" smooth="yes"/>
      <point x="665" y="626"/>
      <point x="537" y="498"/>
      <point x="537" y="302" type="curve" smooth="yes"/>
      <point x="537" y="108"/>
      <point x="665" y="-20"/>
    </contour>
    <contour>
      <point x="861" y="203" type="curve" smooth="yes"/>
      <point x="804" y="203"/>
      <point x="768" y="243"/>
      <point x="768" y="302" type="curve" smooth="yes"/>
      <point x="768" y="363"/>
      <point x="804" y="403"/>
      <point x="861" y="403" type="curve" smooth="yes"/>
      <point x="916" y="403"/>
      <point x="952" y="363"/>
      <point x="952" y="302" type="curve" smooth="yes"/>
      <point x="952" y="243"/>
      <point x="916" y="203"/>
    </contour>
    <contour>
      <point x="351" y="794" type="curve" smooth="yes"/>
      <point x="545" y="794"/>
      <point x="673" y="922"/>
      <point x="673" y="1116" type="curve" smooth="yes"/>
      <point x="673" y="1312"/>
      <point x="545" y="1440"/>
      <point x="351" y="1440" type="curve" smooth="yes"/>
      <point x="155" y="1440"/>
      <point x="27" y="1312"/>
      <point x="27" y="1116" type="curve" smooth="yes"/>
      <point x="27" y="922"/>
      <point x="155" y="794"/>
    </contour>
    <contour>
      <point x="351" y="1017" type="curve" smooth="yes"/>
      <point x="294" y="1017"/>
      <point x="258" y="1057"/>
      <point x="258" y="1116" type="curve" smooth="yes"/>
      <point x="258" y="1177"/>
      <point x="294" y="1217"/>
      <point x="351" y="1217" type="curve" smooth="yes"/>
      <point x="406" y="1217"/>
      <point x="442" y="1177"/>
      <point x="442" y="1116" type="curve" smooth="yes"/>
      <point x="442" y="1057"/>
      <point x="406" y="1017"/>
    </contour>
  </outline>
</glyph>
<glyph name="ampersand" format="2">
  <advance width="1200"/>
  <unicode hex="0026"/>
  <outline>
    <contour>
      <point x="902" y="0" type="line"/>
      <point x="1244" y="0" type="line"/>
      <point x="586" y="800" type="line" smooth="yes"/>
      <point x="520" y="879"/>
      <point x="492" y="951"/>
      <point x="492" y="1040" type="curve" smooth="yes"/>
      <point x="492" y="1135"/>
      <point x="528" y="1176"/>
      <point x="614" y="1176" type="curve"/>
      <point x="630" y="1440" type="line"/>
      <point x="330" y="1440"/>
      <point x="202" y="1321"/>
      <point x="202" y="1042" type="curve" smooth="yes"/>
      <point x="202" y="905"/>
      <point x="260" y="778"/>
      <point x="396" y="616" type="curve" smooth="yes"/>
    </contour>
    <contour>
      <point x="462" y="-20" type="curve" smooth="yes"/>
      <point x="875" y="-20"/>
      <point x="1112" y="266"/>
      <point x="1112" y="766" type="curve"/>
      <point x="822" y="766" type="line"/>
      <point x="822" y="433"/>
      <point x="700" y="244"/>
      <point x="486" y="244" type="curve" smooth="yes"/>
      <point x="390" y="244"/>
      <point x="328" y="304"/>
      <point x="328" y="394" type="curve" smooth="yes"/>
      <point x="328" y="474"/>
      <point x="407" y="534"/>
      <point x="546" y="556" type="curve"/>
      <point x="436" y="778" type="line"/>
      <point x="181" y="738"/>
      <point x="36" y="580"/>
      <point x="36" y="344" type="curve" smooth="yes"/>
      <point x="36" y="124"/>
      <point x="206" y="-20"/>
    </contour>
    <contour>
      <point x="706" y="1062" type="curve"/>
      <point x="1010" y="1062" type="line"/>
      <point x="1010" y="1302"/>
      <point x="871" y="1440"/>
      <point x="630" y="1440" type="curve"/>
      <point x="614" y="1176" type="line"/>
      <point x="672" y="1176"/>
      <point x="706" y="1135"/>
    </contour>
  </outline>
</glyph>
<glyph name="quotesingle" format="2">
  <advance width="1200"/>
  <unicode hex="0027"/>
  <outline>
    <contour>
      <point x="479" y="780" type="line"/>
      <point x="721" y="780" type="line"/>
      <point x="758" y="1420" type="line"/>
      <point x="442" y="1420" type="line"/>
    </contour>
  </outline>
</glyph>
<glyph name="parenleft" format="2">
  <advance width="1200"/>
  <unicode hex="0028"/>
  <outline>
    <contour>
      <point x="950" y="-200" type="curve" smooth="yes"/>
      <point x="1018" y="-200" type="line"/>
      <point x="998" y="65" type="line"/>
      <point x="970" y="65" type="line" smooth="yes"/>
      <point x="692" y="65"/>
      <point x="536" y="303"/>
      <point x="536" y="716" type="curve" smooth="yes"/>
      <point x="536" y="1121"/>
      <point x="692" y="1355"/>
      <point x="970" y="1355" type="curve" smooth="yes"/>
      <point x="998" y="1355" type="line"/>
      <point x="1018" y="1620" type="line"/>
      <point x="950" y="1620" type="line" smooth="yes"/>
      <point x="503" y="1620"/>
      <point x="246" y="1291"/>
      <point x="246" y="716" type="curve" smooth="yes"/>
      <point x="246" y="133"/>
      <point x="503" y="-200"/>
    </contour>
  </outline>
</glyph>
<glyph name="parenright" format="2">
  <advance width="1200"/>
  <unicode hex="0029"/>
  <outline>
    <contour>
      <point x="181" y="-200" type="line"/>
      <point x="249" y="-200" type="line" smooth="yes"/>
      <point x="696" y="-200"/>
      <point x="953" y="133"/>
      <point x="953" y="716" type="curve" smooth="yes"/>
      <point x="953" y="1291"/>
      <point x="696" y="1620"/>
      <point x="249" y="1620" type="curve" smooth="yes"/>
      <point x="181" y="1620" type="line"/>
      <point x="201" y="1355" type="line"/>
      <point x="229" y="1355" type="line" smooth="yes"/>
      <point x="507" y="1355"/>
      <point x="663" y="1121"/>
      <point x="663" y="716" type="curve" smooth="yes"/>
      <point x="663" y="303"/>
      <point x="507" y="65"/>
      <point x="229" y="65" type="curve" smooth="yes"/>
      <point x="201" y="65" type="line"/>
    </contour>
  </outline>
</glyph>
<glyph name="asterisk" format="2">
  <advance width="1200"/>
  <unicode hex="002A"/>
  <outline>
    <contour>
      <point x="760" y="221" type="line"/>
      <point x="1000" y="395" type="line"/>
      <point x="690" y="763" type="line"/>
      <point x="498" y="623" type="line"/>
    </contour>
    <contour>
      <point x="436" y="221" type="line"/>
      <point x="690" y="629" type="line"/>
      <point x="498" y="769" type="line"/>
      <point x="196" y="395" type="line"/>
    </contour>
    <contour>
      <point x="563" y="588" type="line"/>
      <point x="636" y="814" type="line"/>
      <point x="187" y="985" type="line"/>
      <point x="96" y="704" type="line"/>
    </contour>
    <contour>
      <point x="484" y="696" type="line"/>
      <point x="722" y="696" type="line"/>
      <point x="746" y="1176" type="line"/>
      <point x="450" y="1176" type="line"/>
    </contour>
    <contour>
      <point x="636" y="578" type="line"/>
      <point x="1100" y="704" type="line"/>
      <point x="1009" y="985" type="line"/>
      <point x="563" y="804" type="line"/>
    </contour>
  </outline>
</glyph>
<glyph name="plus" format="2">
  <advance width="1200"/>
  <unicode hex="002B"/>
  <outline>
    <contour>
      <point x="458" y="190" type="line"/>
      <point x="742" y="190" type="line"/>
      <point x="742" y="1228" type="line"/>
      <point x="458" y="1228" type="line"/>
    </contour>
    <contour>
      <point x="100" y="582" type="line"/>
      <point x="1100" y="582" type="line"/>
      <point x="1100" y="836" type="line"/>
      <point x="100" y="836" type="line"/>
    </contour>
  </outline>
</glyph>
<glyph name="comma" format="2">
  <advance width="1200"/>
  <unicode hex="002C"/>
  <outline>
    <contour>
      <point x="362" y="-436" type="line"/>
      <point x="634" y="-436" type="line"/>
      <point x="754" y="254" type="line"/>
      <point x="442" y="254" type="line"/>
    </contour>
  </outline>
</glyph>
<glyph name="period" format="2">
  <advance width="1200"/>
  <unicode hex="002E"/>
  <outline>
    <contour>
      <point x="600" y="-20" type="curve" smooth="yes"/>
      <point x="705" y="-20"/>
      <point x="789" y="65"/>
      <point x="789" y="169" type="curve" smooth="yes"/>
      <point x="789" y="274"/>
      <point x="705" y="358"/>
      <point x="600" y="358" type="curve" smooth="yes"/>
      <point x="495" y="358"/>
      <point x="411" y="274"/>
      <point x="411" y="169" type="curve" smooth="yes"/>
      <point x="411" y="65"/>
      <point x="495" y="-20"/>
    </contour>
  </outline>
</glyph>
<glyph name="slash" format="2">
  <advance width="1200"/>
  <unicode hex="002F"/>
  <outline>
    <contour>
      <point x="87" y="-190" type="line"/>
      <point x="362" y="-190" type="line"/>
      <point x="1137" y="1610" type="line"/>
      <point x="862" y="1610" type="line"/>
    </contour>
  </outline>
</glyph>
<glyph name="zero" format="2">
  <advance width="1200"/>
  <unicode hex="0030"/>
  <outline>
    <contour>
      <point x="600" y="-20" type="curve" smooth="yes"/>
      <point x="935" y="-20"/>
      <point x="1104" y="218"/>
      <point x="1104" y="700" type="curve" smooth="yes"/>
      <point x="1104" y="1194"/>
      <point x="935" y="1440"/>
      <point x="600" y="1440" type="curve" smooth="yes"/>
      <point x="265" y="1440"/>
      <point x="96" y="1194"/>
      <point x="96" y="700" type="curve" smooth="yes"/>
      <point x="96" y="218"/>
      <point x="265" y="-20"/>
    </contour>
    <contour>
      <point x="598" y="510" type="curve" smooth="yes"/>
      <point x="676" y="510"/>
      <point x="728" y="585"/>
      <point x="728" y="700" type="curve" smooth="yes"/>
      <point x="728" y="815"/>
      <point x="676" y="890"/>
      <point x="598" y="890" type="curve" smooth="yes"/>
      <point x="520" y="890"/>
      <point x="468" y="815"/>
      <point x="468" y="700" type="curve" smooth="yes"/>
      <point x="468" y="585"/>
      <point x="520" y="510"/>
    </contour>
    <contour>
      <point x="600" y="230" type="curve" smooth="yes"/>
      <point x="451" y="230"/>
      <point x="376" y="386"/>
      <point x="376" y="700" type="curve" smooth="yes"/>
      <point x="376" y="1028"/>
      <point x="451" y="1190"/>
      <point x="600" y="1190" type="curve" smooth="yes"/>
      <point x="747" y="1190"/>
      <point x="820" y="1028"/>
      <point x="820" y="700" type="curve" smooth="yes"/>
      <point x="820" y="386"/>
      <point x="747" y="230"/>
    </contour>
  </outline>
</glyph>
<glyph name="one" format="2">
  <advance width="1200"/>
  <unicode hex="0031"/>
  <outline>
    <contour>
      <point x="489" y="0" type="line"/>
      <point x="771" y="0" type="line"/>
      <point x="771" y="1420" type="line"/>
      <point x="489" y="1420" type="line"/>
    </contour>
    <contour>
      <point x="150" y="0" type="line"/>
      <point x="509" y="0" type="line"/>
      <point x="509" y="244" type="line"/>
      <point x="150" y="244" type="line"/>
    </contour>
    <contour>
      <point x="751" y="0" type="line"/>
      <point x="1072" y="0" type="line"/>
      <point x="1072" y="244" type="line"/>
      <point x="751" y="244" type="line"/>
    </contour>
    <contour>
      <point x="170" y="1038" type="line"/>
      <point x="489" y="1154" type="line"/>
      <point x="489" y="1420" type="line"/>
      <point x="170" y="1300" type="line"/>
    </contour>
  </outline>
</glyph>
<glyph name="two" format="2">
  <advance width="1200"/>
  <unicode hex="0032"/>
  <outline>
    <contour>
      <point x="152" y="0" type="line"/>
      <point x="594" y="0" type="line"/>
      <point x="594" y="294" type="line"/>
      <point x="905" y="514"/>
      <point x="1056" y="752"/>
      <point x="1056" y="1012" type="curve" smooth="yes"/>
      <point x="1056" y="1298"/>
      <point x="901" y="1440"/>
      <point x="588" y="1440" type="curve" smooth="yes"/>
      <point x="386" y="1440"/>
      <point x="186" y="1341"/>
      <point x="86" y="1191" type="curve"/>
      <point x="244" y="1004" type="line"/>
      <point x="333" y="1107"/>
      <point x="469" y="1175"/>
      <point x="584" y="1175" type="curve" smooth="yes"/>
      <point x="706" y="1175"/>
      <point x="766" y="1114"/>
      <point x="766" y="992" type="curve" smooth="yes"/>
      <point x="766" y="743"/>
      <point x="564" y="508"/>
      <point x="152" y="292" type="curve"/>
    </contour>
    <contour>
      <point x="212" y="0" type="line"/>
      <point x="1116" y="0" type="line"/>
      <point x="1116" y="254" type="line"/>
      <point x="212" y="254" type="line"/>
    </contour>
  </outline>
</glyph>
<glyph name="three" format="2">
  <advance width="1200"/>
  <unicode hex="0033"/>
  <outline>
    <contour>
      <point x="514" y="-20" type="curve" smooth="yes"/>
      <point x="864" y="-20"/>
      <point x="1064" y="126"/>
      <point x="1064" y="380" type="curve" smooth="yes"/>
      <point x="1064" y="592"/>
      <point x="891" y="716"/>
      <point x="642" y="716" type="curve"/>
      <point x="356" y="840" type="line"/>
      <point x="380" y="590" type="line"/>
      <point x="412" y="590" type="line" smooth="yes"/>
      <point x="642" y="590"/>
      <point x="774" y="525"/>
      <point x="774" y="410" type="curve" smooth="yes"/>
      <point x="774" y="305"/>
      <point x="676" y="245"/>
      <point x="506" y="245" type="curve" smooth="yes"/>
      <point x="341" y="245"/>
      <point x="241" y="277"/>
      <point x="155" y="300" type="curve"/>
      <point x="130" y="28" type="line"/>
      <point x="229" y="-1"/>
      <point x="359" y="-20"/>
    </contour>
    <contour>
      <point x="380" y="590" type="line"/>
      <point x="698" y="650" type="line"/>
      <point x="698" y="750" type="line"/>
      <point x="898" y="800"/>
      <point x="1034" y="941"/>
      <point x="1034" y="1122" type="curve" smooth="yes"/>
      <point x="1034" y="1326"/>
      <point x="880" y="1440"/>
      <point x="608" y="1440" type="curve" smooth="yes"/>
      <point x="401" y="1440"/>
      <point x="233" y="1389"/>
      <point x="105" y="1271" type="curve"/>
      <point x="243" y="1053" type="line"/>
      <point x="360" y="1134"/>
      <point x="499" y="1175"/>
      <point x="607" y="1175" type="curve" smooth="yes"/>
      <point x="699" y="1175"/>
      <point x="744" y="1137"/>
      <point x="744" y="1072" type="curve" smooth="yes"/>
      <point x="744" y="957"/>
      <point x="629" y="873"/>
      <point x="356" y="840" type="curve"/>
    </contour>
  </outline>
</glyph>
<glyph name="four" format="2">
  <advance width="1200"/>
  <unicode hex="0034"/>
  <outline>
    <contour>
      <point x="54" y="279" type="line"/>
      <point x="333" y="279" type="line"/>
      <point x="505" y="1340" type="line"/>
      <point x="224" y="1340" type="line"/>
    </contour>
    <contour>
      <point x="52" y="279" type="line"/>
      <point x="747" y="279" type="line"/>
      <point x="747" y="533" type="line"/>
      <point x="214" y="533" type="line"/>
    </contour>
    <contour>
      <point x="983" y="279" type="line"/>
      <point x="1140" y="279" type="line"/>
      <point x="1140" y="533" type="line"/>
      <point x="983" y="533" type="line"/>
    </contour>
    <contour>
      <point x="727" y="0" type="line"/>
      <point x="1003" y="0" type="line"/>
      <point x="1003" y="1420" type="line"/>
      <point x="727" y="1420" type="line"/>
    </contour>
  </outline>
</glyph>
<glyph name="five" format="2">
  <advance width="1200"/>
  <unicode hex="0035"/>
  <outline>
    <contour>
      <point x="594" y="-20" type="curve" smooth="yes"/>
      <point x="907" y="-20"/>
      <point x="1114" y="174"/>
      <point x="1114" y="468" type="curve" smooth="yes"/>
      <point x="1114" y="744"/>
      <point x="950" y="926"/>
      <point x="702" y="926" type="curve" smooth="yes"/>
      <point x="614" y="926"/>
      <point x="513" y="904"/>
      <point x="448" y="870" type="curve"/>
      <point x="390" y="605" type="line"/>
      <point x="459" y="642"/>
      <point x="533" y="661"/>
      <point x="612" y="661" type="curve" smooth="yes"/>
      <point x="740" y="661"/>
      <point x="824" y="584"/>
      <point x="824" y="468" type="curve" smooth="yes"/>
      <point x="824" y="334"/>
      <point x="737" y="245"/>
      <point x="606" y="245" type="curve" smooth="yes"/>
      <point x="475" y="245"/>
      <point x="402" y="316"/>
      <point x="402" y="438" type="curve"/>
      <point x="112" y="438" type="line"/>
      <point x="112" y="147"/>
      <point x="287" y="-20"/>
    </contour>
    <contour>
      <point x="198" y="605" type="line"/>
      <point x="390" y="605" type="line"/>
      <point x="460" y="804" type="line"/>
      <point x="494" y="1420" type="line"/>
      <point x="218" y="1420" type="line"/>
    </contour>
    <contour>
      <point x="334" y="1166" type="line"/>
      <point x="1024" y="1166" type="line"/>
      <point x="1024" y="1420" type="line"/>
      <point x="316" y="1420" type="line"/>
    </contour>
  </outline>
</glyph>
<glyph name="six" format="2">
  <advance width="1200"/>
  <unicode hex="0036"/>
  <outline>
    <contour>
      <point x="343" y="325" type="line"/>
      <point x="390" y="666" type="line"/>
      <point x="390" y="982"/>
      <point x="588" y="1145"/>
      <point x="994" y="1161" type="curve"/>
      <point x="974" y="1426" type="line"/>
      <point x="383" y="1398"/>
      <point x="98" y="1116"/>
      <point x="98" y="574" type="curve" smooth="yes"/>
      <point x="98" y="526" type="line"/>
    </contour>
    <contour>
      <point x="608" y="-20" type="curve" smooth="yes"/>
      <point x="925" y="-20"/>
      <point x="1104" y="151"/>
      <point x="1104" y="446" type="curve" smooth="yes"/>
      <point x="1104" y="735"/>
      <point x="964" y="900"/>
      <point x="716" y="900" type="curve" smooth="yes"/>
      <point x="564" y="900"/>
      <point x="453" y="816"/>
      <point x="418" y="668" type="curve"/>
      <point x="334" y="668" type="line"/>
      <point x="334" y="408" type="line"/>
      <point x="98" y="526" type="line"/>
      <point x="98" y="178"/>
      <point x="282" y="-20"/>
    </contour>
    <contour>
      <point x="610" y="245" type="curve" smooth="yes"/>
      <point x="463" y="245"/>
      <point x="388" y="312"/>
      <point x="388" y="446" type="curve" smooth="yes"/>
      <point x="388" y="567"/>
      <point x="467" y="635"/>
      <point x="606" y="635" type="curve" smooth="yes"/>
      <point x="740" y="635"/>
      <point x="814" y="567"/>
      <point x="814" y="446" type="curve" smooth="yes"/>
      <point x="814" y="318"/>
      <point x="740" y="245"/>
    </contour>
  </outline>
</glyph>
<glyph name="seven" format="2">
  <advance width="1200"/>
  <unicode hex="0037"/>
  <outline>
    <contour>
      <point x="447" y="0" type="line"/>
      <point x="726" y="0" type="line"/>
      <point x="1174" y="1420" type="line"/>
      <point x="875" y="1420" type="line"/>
    </contour>
    <contour>
      <point x="92" y="862" type="line"/>
      <point x="368" y="862" type="line"/>
      <point x="368" y="1390" type="line"/>
      <point x="92" y="1390" type="line"/>
    </contour>
    <contour>
      <point x="92" y="1166" type="line"/>
      <point x="1012" y="1166" type="line"/>
      <point x="1174" y="1420" type="line"/>
      <point x="92" y="1420" type="line"/>
    </contour>
  </outline>
</glyph>
<glyph name="eight" format="2">
  <advance width="1200"/>
  <unicode hex="0038"/>
  <outline>
    <contour>
      <point x="600" y="-20" type="curve" smooth="yes"/>
      <point x="921" y="-20"/>
      <point x="1104" y="130"/>
      <point x="1104" y="390" type="curve" smooth="yes"/>
      <point x="1104" y="628"/>
      <point x="921" y="764"/>
      <point x="600" y="764" type="curve" smooth="yes"/>
      <point x="279" y="764"/>
      <point x="96" y="628"/>
      <point x="96" y="390" type="curve" smooth="yes"/>
      <point x="96" y="130"/>
      <point x="279" y="-20"/>
    </contour>
    <contour>
      <point x="600" y="245" type="curve" smooth="yes"/>
      <point x="464" y="245"/>
      <point x="386" y="314"/>
      <point x="386" y="435" type="curve" smooth="yes"/>
      <point x="386" y="551"/>
      <point x="464" y="619"/>
      <point x="600" y="619" type="curve" smooth="yes"/>
      <point x="736" y="619"/>
      <point x="814" y="551"/>
      <point x="814" y="435" type="curve" smooth="yes"/>
      <point x="814" y="314"/>
      <point x="736" y="245"/>
    </contour>
    <contour>
      <point x="434" y="706" type="line"/>
      <point x="768" y="706" type="line"/>
      <point x="768" y="808" type="line"/>
      <point x="434" y="808" type="line"/>
    </contour>
    <contour>
      <point x="600" y="881" type="curve" smooth="yes"/>
      <point x="490" y="881"/>
      <point x="426" y="934"/>
      <point x="426" y="1025" type="curve" smooth="yes"/>
      <point x="426" y="1121"/>
      <point x="490" y="1175"/>
      <point x="600" y="1175" type="curve" smooth="yes"/>
      <point x="710" y="1175"/>
      <point x="774" y="1121"/>
      <point x="774" y="1025" type="curve" smooth="yes"/>
      <point x="774" y="934"/>
      <point x="710" y="881"/>
    </contour>
    <contour>
      <point x="600" y="746" type="curve" smooth="yes"/>
      <point x="895" y="746"/>
      <point x="1064" y="868"/>
      <point x="1064" y="1080" type="curve" smooth="yes"/>
      <point x="1064" y="1308"/>
      <point x="895" y="1440"/>
      <point x="600" y="1440" type="curve" smooth="yes"/>
      <point x="305" y="1440"/>
      <point x="136" y="1308"/>
      <point x="136" y="1080" type="curve" smooth="yes"/>
      <point x="136" y="868"/>
      <point x="305" y="746"/>
    </contour>
  </outline>
</glyph>
<glyph name="nine" format="2">
  <advance width="1200"/>
  <unicode hex="0039"/>
  <outline>
    <contour>
      <point x="228" y="-20" type="line"/>
      <point x="819" y="8"/>
      <point x="1104" y="290"/>
      <point x="1104" y="832" type="curve" smooth="yes"/>
      <point x="1104" y="880" type="line"/>
      <point x="859" y="1081" type="line"/>
      <point x="812" y="740" type="line"/>
      <point x="812" y="424"/>
      <point x="614" y="261"/>
      <point x="208" y="245" type="curve"/>
    </contour>
    <contour>
      <point x="596" y="771" type="curve" smooth="yes"/>
      <point x="462" y="771"/>
      <point x="388" y="839"/>
      <point x="388" y="960" type="curve" smooth="yes"/>
      <point x="388" y="1088"/>
      <point x="462" y="1161"/>
      <point x="592" y="1161" type="curve" smooth="yes"/>
      <point x="739" y="1161"/>
      <point x="814" y="1094"/>
      <point x="814" y="960" type="curve" smooth="yes"/>
      <point x="814" y="839"/>
      <point x="735" y="771"/>
    </contour>
    <contour>
      <point x="486" y="506" type="curve" smooth="yes"/>
      <point x="638" y="506"/>
      <point x="749" y="590"/>
      <point x="784" y="738" type="curve"/>
      <point x="868" y="738" type="line"/>
      <point x="868" y="998" type="line"/>
      <point x="1104" y="880" type="line"/>
      <point x="1104" y="1228"/>
      <point x="920" y="1426"/>
      <point x="594" y="1426" type="curve" smooth="yes"/>
      <point x="277" y="1426"/>
      <point x="98" y="1255"/>
      <point x="98" y="960" type="curve" smooth="yes"/>
      <point x="98" y="671"/>
      <point x="238" y="506"/>
    </contour>
  </outline>
</glyph>
<glyph name="colon" format="2">
  <advance width="1200"/>
  <unicode hex="003A"/>
  <outline>
    <contour>
      <point x="600" y="664" type="curve" smooth="yes"/>
      <point x="715" y="664"/>
      <point x="808" y="757"/>
      <point x="808" y="872" type="curve" smooth="yes"/>
      <point x="808" y="987"/>
      <point x="715" y="1080"/>
      <point x="600" y="1080" type="curve" smooth="yes"/>
      <point x="485" y="1080"/>
      <point x="392" y="987"/>
      <point x="392" y="872" type="curve" smooth="yes"/>
      <point x="392" y="757"/>
      <point x="485" y="664"/>
    </contour>
    <contour>
      <point x="600" y="-20" type="curve" smooth="yes"/>
      <point x="715" y="-20"/>
      <point x="808" y="73"/>
      <point x="808" y="188" type="curve" smooth="yes"/>
      <point x="808" y="303"/>
      <point x="715" y="396"/>
      <point x="600" y="396" type="curve" smooth="yes"/>
      <point x="485" y="396"/>
      <point x="392" y="303"/>
      <point x="392" y="188" type="curve" smooth="yes"/>
      <point x="392" y="73"/>
      <point x="485" y="-20"/>
    </contour>
  </outline>
</glyph>
<glyph name="semicolon" format="2">
  <advance width="1200"/>
  <unicode hex="003B"/>
  <outline>
    <contour>
      <point x="600" y="664" type="curve" smooth="yes"/>
      <point x="715" y="664"/>
      <point x="808" y="757"/>
      <point x="808" y="872" type="curve" smooth="yes"/>
      <point x="808" y="987"/>
      <point x="715" y="1080"/>
      <point x="600" y="1080" type="curve" smooth="yes"/>
      <point x="485" y="1080"/>
      <point x="392" y="987"/>
      <point x="392" y="872" type="curve" smooth="yes"/>
      <point x="392" y="757"/>
      <point x="485" y="664"/>
    </contour>
    <component base="comma"/>
  </outline>
</glyph>
<glyph name="less" format="2">
  <advance width="1200"/>
  <unicode hex="003C"/>
  <outline>
    <contour>
      <point x="1094" y="194" type="line"/>
      <point x="1094" y="474" type="line"/>
      <point x="334" y="700" type="line"/>
      <point x="334" y="718" type="line"/>
      <point x="1094" y="944" type="line"/>
      <point x="1094" y="1224" type="line"/>
      <point x="56" y="850" type="line"/>
      <point x="56" y="568" type="line"/>
    </contour>
  </outline>
</glyph>
<glyph name="equal" format="2">
  <advance width="1200"/>
  <unicode hex="003D"/>
  <outline>
    <contour>
      <point x="80" y="838" type="line"/>
      <point x="1120" y="838" type="line"/>
      <point x="1120" y="1092" type="line"/>
      <point x="80" y="1092" type="line"/>
    </contour>
    <contour>
      <point x="80" y="326" type="line"/>
      <point x="1120" y="326" type="line"/>
      <point x="1120" y="580" type="line"/>
      <point x="80" y="580" type="line"/>
    </contour>
  </outline>
</glyph>
<glyph name="greater" format="2">
  <advance width="1200"/>
  <unicode hex="003E"/>
  <outline>
    <contour>
      <point x="106" y="194" type="line"/>
      <point x="1144" y="568" type="line"/>
      <point x="1144" y="850" type="line"/>
      <point x="106" y="1224" type="line"/>
      <point x="106" y="944" type="line"/>
      <point x="866" y="718" type="line"/>
      <point x="866" y="700" type="line"/>
      <point x="106" y="474" type="line"/>
    </contour>
  </outline>
</glyph>
<glyph name="question" format="2">
  <advance width="1200"/>
  <unicode hex="003F"/>
  <outline>
    <contour>
      <point x="460" y="496" type="line"/>
      <point x="736" y="496" type="line"/>
      <point x="736" y="523" type="line" smooth="yes"/>
      <point x="736" y="606"/>
      <point x="762" y="658"/>
      <point x="824" y="698" type="curve" smooth="yes"/>
      <point x="986" y="802"/>
      <point x="1066" y="938"/>
      <point x="1066" y="1102" type="curve" smooth="yes"/>
      <point x="1066" y="1316"/>
      <point x="909" y="1440"/>
      <point x="636" y="1440" type="curve"/>
      <point x="614" y="1175" type="line"/>
      <point x="711" y="1175"/>
      <point x="766" y="1134"/>
      <point x="766" y="1062" type="curve" smooth="yes"/>
      <point x="766" y="998"/>
      <point x="729" y="937"/>
      <point x="664" y="894" type="curve" smooth="yes"/>
      <point x="526" y="802"/>
      <point x="460" y="715"/>
      <point x="460" y="577" type="curve" smooth="yes"/>
    </contour>
    <contour>
      <point x="274" y="1003" type="line"/>
      <point x="359" y="1107"/>
      <point x="489" y="1175"/>
      <point x="614" y="1175" type="curve"/>
      <point x="636" y="1440" type="line"/>
      <point x="422" y="1440"/>
      <point x="225" y="1345"/>
      <point x="126" y="1201" type="curve"/>
    </contour>
    <component base="period" xOffset="2"/>
  </outline>
</glyph>
<glyph name="at" format="2">
  <advance width="1200"/>
  <unicode hex="0040"/>
  <outline>
    <contour>
      <point x="730" y="-293" type="curve" smooth="yes"/>
      <point x="812" y="-293"/>
      <point x="870" y="-286"/>
      <point x="927" y="-268" type="curve"/>
      <point x="927" y="-18" type="line"/>
      <point x="875" y="-36"/>
      <point x="816" y="-43"/>
      <point x="730" y="-43" type="curve" smooth="yes"/>
      <point x="455" y="-43"/>
      <point x="338" y="148"/>
      <point x="338" y="598" type="curve" smooth="yes"/>
      <point x="338" y="993"/>
      <point x="431" y="1189"/>
      <point x="620" y="1189" type="curve" smooth="yes"/>
      <point x="765" y="1189"/>
      <point x="840" y="1079"/>
      <point x="840" y="857" type="curve" smooth="yes"/>
      <point x="840" y="739"/>
      <point x="840" y="637"/>
      <point x="840" y="494" type="curve"/>
      <point x="1092" y="494" type="line"/>
      <point x="1092" y="639"/>
      <point x="1092" y="743"/>
      <point x="1092" y="863" type="curve" smooth="yes"/>
      <point x="1092" y="1248"/>
      <point x="934" y="1439"/>
      <point x="620" y="1439" type="curve" smooth="yes"/>
      <point x="265" y="1439"/>
      <point x="88" y="1160"/>
      <point x="88" y="598" type="curve" smooth="yes"/>
      <point x="88" y="-27"/>
      <point x="280" y="-293"/>
    </contour>
    <contour>
      <point x="636" y="118" type="curve" smooth="yes"/>
      <point x="730" y="118"/>
      <point x="797" y="202"/>
      <point x="818" y="350" type="curve"/>
      <point x="902" y="350" type="line"/>
      <point x="902" y="827" type="line"/>
      <point x="818" y="827" type="line"/>
      <point x="792" y="975"/>
      <point x="725" y="1059"/>
      <point x="638" y="1059" type="curve" smooth="yes"/>
      <point x="523" y="1059"/>
      <point x="458" y="905"/>
      <point x="458" y="589" type="curve" smooth="yes"/>
      <point x="458" y="290"/>
      <point x="523" y="118"/>
    </contour>
    <contour>
      <point x="724" y="348" type="curve" smooth="yes"/>
      <point x="681" y="348"/>
      <point x="656" y="435"/>
      <point x="656" y="589" type="curve" smooth="yes"/>
      <point x="656" y="756"/>
      <point x="686" y="829"/>
      <point x="738" y="829" type="curve" smooth="yes"/>
      <point x="804" y="829"/>
      <point x="840" y="756"/>
      <point x="840" y="589" type="curve" smooth="yes"/>
      <point x="840" y="435"/>
      <point x="798" y="348"/>
    </contour>
    <contour>
      <point x="840" y="138" type="line"/>
      <point x="1092" y="138" type="line"/>
      <point x="1092" y="739" type="line"/>
      <point x="840" y="739" type="line"/>
    </contour>
  </outline>
</glyph>
<glyph name="A" format="2">
  <advance width="1200"/>
  <unicode hex="0041"/>
  <anchor x="600" y="0" name="bottom"/>
  <anchor x="1080" y="10" name="ogonek"/>
  <anchor x="600" y="1420" name="top"/>
  <outline>
    <contour>
      <point x="25" y="0" type="line"/>
      <point x="325" y="0" type="line"/>
      <point x="591" y="1038" type="line"/>
      <point x="609" y="1038" type="line"/>
      <point x="875" y="0" type="line"/>
      <point x="1175" y="0" type="line"/>
      <point x="765" y="1420" type="line"/>
      <point x="435" y="1420" type="line"/>
    </contour>
    <contour>
      <point x="235" y="254" type="line"/>
      <point x="955" y="254" type="line"/>
      <point x="955" y="508" type="line"/>
      <point x="235" y="508" type="line"/>
    </contour>
  </outline>
</glyph>
<glyph name="B" format="2">
  <advance width="1200"/>
  <unicode hex="0042"/>
  <anchor x="560" y="0" name="bottom"/>
  <anchor x="560" y="1420" name="top"/>
  <outline>
    <contour>
      <point x="402" y="0" type="line"/>
      <point x="704" y="0" type="line" smooth="yes"/>
      <point x="991" y="0"/>
      <point x="1154" y="142"/>
      <point x="1154" y="390" type="curve" smooth="yes"/>
      <point x="1154" y="607"/>
      <point x="1019" y="732"/>
      <point x="782" y="732" type="curve" smooth="yes"/>
      <point x="382" y="732" type="line"/>
      <point x="406" y="623" type="line"/>
      <point x="632" y="623" type="line" smooth="yes"/>
      <point x="780" y="623"/>
      <point x="864" y="556"/>
      <point x="864" y="440" type="curve" smooth="yes"/>
      <point x="864" y="322"/>
      <point x="784" y="254"/>
      <point x="646" y="254" type="curve" smooth="yes"/>
      <point x="402" y="254" type="line"/>
    </contour>
    <contour>
      <point x="140" y="0" type="line"/>
      <point x="416" y="0" type="line"/>
      <point x="416" y="1420" type="line"/>
      <point x="140" y="1420" type="line"/>
    </contour>
    <contour>
      <point x="334" y="698" type="line"/>
      <point x="724" y="698" type="line"/>
      <point x="724" y="796" type="line"/>
      <point x="334" y="796" type="line"/>
    </contour>
    <contour>
      <point x="402" y="768" type="line"/>
      <point x="704" y="768" type="line" smooth="yes"/>
      <point x="927" y="768"/>
      <point x="1054" y="877"/>
      <point x="1054" y="1070" type="curve" smooth="yes"/>
      <point x="1054" y="1294"/>
      <point x="883" y="1420"/>
      <point x="582" y="1420" type="curve" smooth="yes"/>
      <point x="382" y="1420" type="line"/>
      <point x="406" y="1166" type="line"/>
      <point x="572" y="1166" type="line" smooth="yes"/>
      <point x="701" y="1166"/>
      <point x="764" y="1121"/>
      <point x="764" y="1030" type="curve" smooth="yes"/>
      <point x="764" y="928"/>
      <point x="705" y="877"/>
      <point x="586" y="877" type="curve" smooth="yes"/>
      <point x="402" y="877" type="line"/>
    </contour>
  </outline>
</glyph>
<glyph name="C" format="2">
  <advance width="1200"/>
  <unicode hex="0043"/>
  <anchor x="665" y="0" name="bottom"/>
  <anchor x="695" y="1420" name="top"/>
  <outline>
    <contour>
      <point x="748" y="-20" type="curve" smooth="yes"/>
      <point x="874" y="-20"/>
      <point x="996" y="2"/>
      <point x="1114" y="48" type="curve"/>
      <point x="1068" y="292" type="line"/>
      <point x="974" y="252"/>
      <point x="880" y="232"/>
      <point x="782" y="232" type="curve" smooth="yes"/>
      <point x="493" y="232"/>
      <point x="347" y="395"/>
      <point x="347" y="722" type="curve" smooth="yes"/>
      <point x="347" y="1019"/>
      <point x="496" y="1188"/>
      <point x="726" y="1188" type="curve" smooth="yes"/>
      <point x="834" y="1188"/>
      <point x="931" y="1145"/>
      <point x="991" y="1071" type="curve"/>
      <point x="1139" y="1265" type="line"/>
      <point x="1064" y="1377"/>
      <point x="912" y="1440"/>
      <point x="724" y="1440" type="curve" smooth="yes"/>
      <point x="307" y="1440"/>
      <point x="69" y="1174"/>
      <point x="69" y="712" type="curve" smooth="yes"/>
      <point x="69" y="224"/>
      <point x="297" y="-20"/>
    </contour>
  </outline>
</glyph>
<glyph name="D" format="2">
  <advance width="1200"/>
  <unicode hex="0044"/>
  <anchor x="550" y="0" name="bottom"/>
  <anchor x="550" y="710" name="center"/>
  <anchor x="550" y="1420" name="top"/>
  <outline>
    <contour>
      <point x="402" y="0" type="line"/>
      <point x="504" y="0" type="line" smooth="yes"/>
      <point x="951" y="0"/>
      <point x="1174" y="229"/>
      <point x="1174" y="690" type="curve" smooth="yes"/>
      <point x="1174" y="1179"/>
      <point x="951" y="1420"/>
      <point x="504" y="1420" type="curve" smooth="yes"/>
      <point x="382" y="1420" type="line"/>
      <point x="406" y="1155" type="line"/>
      <point x="504" y="1155" type="line" smooth="yes"/>
      <point x="757" y="1155"/>
      <point x="884" y="995"/>
      <point x="884" y="690" type="curve" smooth="yes"/>
      <point x="884" y="413"/>
      <point x="757" y="265"/>
      <point x="504" y="265" type="curve" smooth="yes"/>
      <point x="402" y="265" type="line"/>
    </contour>
    <contour>
      <point x="140" y="0" type="line"/>
      <point x="416" y="0" type="line"/>
      <point x="416" y="1420" type="line"/>
      <point x="140" y="1420" type="line"/>
    </contour>
  </outline>
</glyph>
<glyph name="E" format="2">
  <advance width="1200"/>
  <unicode hex="0045"/>
  <anchor x="630" y="0" name="bottom"/>
  <anchor x="1080" y="10" name="ogonek"/>
  <anchor x="630" y="1420" name="top"/>
  <anchor x="20" y="1420" name="topleft"/>
  <outline>
    <contour>
      <point x="140" y="0" type="line"/>
      <point x="416" y="0" type="line"/>
      <point x="416" y="1420" type="line"/>
      <point x="140" y="1420" type="line"/>
    </contour>
    <contour>
      <point x="140" y="0" type="line"/>
      <point x="1120" y="0" type="line"/>
      <point x="1120" y="254" type="line"/>
      <point x="140" y="254" type="line"/>
    </contour>
    <contour>
      <point x="140" y="584" type="line"/>
      <point x="940" y="584" type="line"/>
      <point x="940" y="838" type="line"/>
      <point x="140" y="838" type="line"/>
    </contour>
    <contour>
      <point x="140" y="1166" type="line"/>
      <point x="1120" y="1166" type="line"/>
      <point x="1120" y="1420" type="line"/>
      <point x="140" y="1420" type="line"/>
    </contour>
  </outline>
</glyph>
<glyph name="F" format="2">
  <advance width="1200"/>
  <unicode hex="0046"/>
  <anchor x="660" y="0" name="bottom"/>
  <anchor x="660" y="1420" name="top"/>
  <outline>
    <contour>
      <point x="140" y="0" type="line"/>
      <point x="416" y="0" type="line"/>
      <point x="416" y="1420" type="line"/>
      <point x="140" y="1420" type="line"/>
    </contour>
    <contour>
      <point x="140" y="523" type="line"/>
      <point x="920" y="523" type="line"/>
      <point x="920" y="779" type="line"/>
      <point x="140" y="779" type="line"/>
    </contour>
    <contour>
      <point x="140" y="1166" type="line"/>
      <point x="1120" y="1166" type="line"/>
      <point x="1120" y="1420" type="line"/>
      <point x="140" y="1420" type="line"/>
    </contour>
  </outline>
</glyph>
<glyph name="G" format="2">
  <advance width="1200"/>
  <unicode hex="0047"/>
  <anchor x="715" y="0" name="bottom"/>
  <anchor x="695" y="1420" name="top"/>
  <outline>
    <contour>
      <point x="732" y="-20" type="curve" smooth="yes"/>
      <point x="921" y="-20"/>
      <point x="1081" y="22"/>
      <point x="1140" y="40" type="curve"/>
      <point x="1042" y="295" type="line"/>
      <point x="980" y="277"/>
      <point x="882" y="245"/>
      <point x="756" y="245" type="curve" smooth="yes"/>
      <point x="497" y="245"/>
      <point x="366" y="404"/>
      <point x="366" y="722" type="curve" smooth="yes"/>
      <point x="366" y="1010"/>
      <point x="502" y="1175"/>
      <point x="736" y="1175" type="curve" smooth="yes"/>
      <point x="842" y="1175"/>
      <point x="939" y="1130"/>
      <point x="1001" y="1053" type="curve"/>
      <point x="1170" y="1252" type="line"/>
      <point x="1096" y="1371"/>
      <point x="932" y="1440"/>
      <point x="724" y="1440" type="curve" smooth="yes"/>
      <point x="313" y="1440"/>
      <point x="76" y="1174"/>
      <point x="76" y="712" type="curve" smooth="yes"/>
      <point x="76" y="224"/>
      <point x="295" y="-20"/>
    </contour>
    <contour>
      <point x="864" y="40" type="line"/>
      <point x="1140" y="40" type="line"/>
      <point x="1140" y="740" type="line"/>
      <point x="864" y="740" type="line"/>
    </contour>
    <contour>
      <point x="640" y="486" type="line"/>
      <point x="1134" y="486" type="line"/>
      <point x="1134" y="740" type="line"/>
      <point x="640" y="740" type="line"/>
    </contour>
  </outline>
</glyph>
<glyph name="H" format="2">
  <advance width="1200"/>
  <unicode hex="0048"/>
  <anchor x="600" y="0" name="bottom"/>
  <anchor x="600" y="710" name="center"/>
  <anchor x="600" y="1420" name="top"/>
  <anchor x="20" y="1420" name="topleft"/>
  <outline>
    <contour>
      <point x="804" y="0" type="line"/>
      <point x="1080" y="0" type="line"/>
      <point x="1080" y="1420" type="line"/>
      <point x="804" y="1420" type="line"/>
    </contour>
    <contour>
      <point x="120" y="0" type="line"/>
      <point x="396" y="0" type="line"/>
      <point x="396" y="1420" type="line"/>
      <point x="120" y="1420" type="line"/>
    </contour>
    <contour>
      <point x="162" y="580" type="line"/>
      <point x="1043" y="580" type="line"/>
      <point x="1043" y="834" type="line"/>
      <point x="162" y="834" type="line"/>
    </contour>
  </outline>
</glyph>
<glyph name="I" format="2">
  <advance width="1200"/>
  <unicode hex="0049"/>
  <anchor x="600" y="0" name="bottom"/>
  <anchor x="600" y="10" name="ogonek"/>
  <anchor x="600" y="1420" name="top"/>
  <anchor x="20" y="1420" name="topleft"/>
  <outline>
    <contour>
      <point x="467" y="0" type="line"/>
      <point x="731" y="0" type="line"/>
      <point x="731" y="1420" type="line"/>
      <point x="467" y="1420" type="line"/>
    </contour>
    <contour>
      <point x="151" y="0" type="line"/>
      <point x="1049" y="0" type="line"/>
      <point x="1049" y="238" type="line"/>
      <point x="151" y="238" type="line"/>
    </contour>
    <contour>
      <point x="151" y="1183" type="line"/>
      <point x="1049" y="1183" type="line"/>
      <point x="1049" y="1420" type="line"/>
      <point x="151" y="1420" type="line"/>
    </contour>
  </outline>
</glyph>
<glyph name="J" format="2">
  <advance width="1200"/>
  <unicode hex="004A"/>
  <anchor x="600" y="0" name="bottom"/>
  <anchor x="840" y="1420" name="top"/>
  <outline>
    <contour>
      <point x="584" y="-20" type="curve" smooth="yes"/>
      <point x="903" y="-20"/>
      <point x="1092" y="164"/>
      <point x="1092" y="486" type="curve" smooth="yes"/>
      <point x="1092" y="1420" type="line"/>
      <point x="816" y="1420" type="line"/>
      <point x="816" y="486" type="line" smooth="yes"/>
      <point x="816" y="332"/>
      <point x="734" y="245"/>
      <point x="589" y="245" type="curve" smooth="yes"/>
      <point x="447" y="245"/>
      <point x="366" y="333"/>
      <point x="366" y="486" type="curve"/>
      <point x="76" y="486" type="line"/>
      <point x="76" y="166"/>
      <point x="259" y="-20"/>
    </contour>
    <contour>
      <point x="500" y="1166" type="line"/>
      <point x="966" y="1166" type="line"/>
      <point x="966" y="1420" type="line"/>
      <point x="500" y="1420" type="line"/>
    </contour>
  </outline>
</glyph>
<glyph name="K" format="2">
  <advance width="1200"/>
  <unicode hex="004B"/>
  <anchor x="640" y="0" name="bottom"/>
  <anchor x="600" y="1420" name="top"/>
  <outline>
    <contour>
      <point x="286" y="452" type="line"/>
      <point x="817" y="452"/>
      <point x="1124" y="915"/>
      <point x="1124" y="1420" type="curve"/>
      <point x="844" y="1420" type="line"/>
      <point x="844" y="1070"/>
      <point x="677" y="730"/>
      <point x="304" y="730" type="curve"/>
    </contour>
    <contour>
      <point x="140" y="0" type="line"/>
      <point x="416" y="0" type="line"/>
      <point x="416" y="1420" type="line"/>
      <point x="140" y="1420" type="line"/>
    </contour>
    <contour>
      <point x="850" y="0" type="line"/>
      <point x="1192" y="0" type="line"/>
      <point x="839" y="718" type="line"/>
      <point x="579" y="616" type="line"/>
    </contour>
  </outline>
</glyph>
<glyph name="L" format="2">
  <advance width="1200"/>
  <unicode hex="004C"/>
  <anchor x="620" y="0" name="bottom"/>
  <anchor x="600" y="710" name="center"/>
  <anchor x="275" y="1420" name="top"/>
  <anchor x="1180" y="1420" name="topright"/>
  <outline>
    <contour>
      <point x="143" y="0" type="line"/>
      <point x="407" y="0" type="line"/>
      <point x="407" y="1420" type="line"/>
      <point x="143" y="1420" type="line"/>
    </contour>
    <contour>
      <point x="143" y="0" type="line"/>
      <point x="1117" y="0" type="line"/>
      <point x="1117" y="243" type="line"/>
      <point x="143" y="243" type="line"/>
    </contour>
  </outline>
</glyph>
<glyph name="M" format="2">
  <advance width="1200"/>
  <unicode hex="004D"/>
  <anchor x="600" y="0" name="bottom"/>
  <anchor x="600" y="1420" name="top"/>
  <outline>
    <contour>
      <point x="566" y="480" type="line"/>
      <point x="692" y="480" type="line"/>
      <point x="804" y="1168" type="line"/>
      <point x="868" y="1168" type="line"/>
      <point x="848" y="1420" type="line"/>
      <point x="700" y="1420" type="line"/>
      <point x="608" y="780" type="line"/>
      <point x="596" y="780" type="line"/>
    </contour>
    <contour>
      <point x="108" y="0" type="line"/>
      <point x="364" y="0" type="line"/>
      <point x="364" y="1420" type="line"/>
      <point x="108" y="1420" type="line"/>
    </contour>
    <contour>
      <point x="508" y="480" type="line"/>
      <point x="630" y="480" type="line"/>
      <point x="600" y="780" type="line"/>
      <point x="592" y="780" type="line"/>
      <point x="500" y="1420" type="line"/>
      <point x="352" y="1420" type="line"/>
      <point x="332" y="1168" type="line"/>
      <point x="396" y="1168" type="line"/>
    </contour>
    <contour>
      <point x="836" y="0" type="line"/>
      <point x="1092" y="0" type="line"/>
      <point x="1092" y="1420" type="line"/>
      <point x="836" y="1420" type="line"/>
    </contour>
  </outline>
</glyph>
<glyph name="N" format="2">
  <advance width="1200"/>
  <unicode hex="004E"/>
  <anchor x="600" y="0" name="bottom"/>
  <anchor x="600" y="1420" name="top"/>
  <outline>
    <contour>
      <point x="646" y="0" type="line"/>
      <point x="836" y="0" type="line"/>
      <point x="836" y="304" type="line"/>
      <point x="766" y="304" type="line"/>
      <point x="554" y="1420" type="line"/>
      <point x="322" y="1420" type="line"/>
      <point x="322" y="1116" type="line"/>
      <point x="434" y="1116" type="line"/>
    </contour>
    <contour>
      <point x="128" y="0" type="line"/>
      <point x="394" y="0" type="line"/>
      <point x="394" y="1420" type="line"/>
      <point x="128" y="1420" type="line"/>
    </contour>
    <contour>
      <point x="806" y="0" type="line"/>
      <point x="1072" y="0" type="line"/>
      <point x="1072" y="1420" type="line"/>
      <point x="806" y="1420" type="line"/>
    </contour>
  </outline>
</glyph>
<glyph name="O" format="2">
  <advance width="1200"/>
  <unicode hex="004F"/>
  <guideline x="1124" y="1269" angle="90"/>
  <anchor x="600" y="-20" name="bottom"/>
  <anchor x="600" y="710" name="center"/>
  <anchor x="1080" y="10" name="ogonek"/>
  <anchor x="600" y="1420" name="top"/>
  <anchor x="20" y="1420" name="topleft"/>
  <anchor x="1180" y="1420" name="topright"/>
  <outline>
    <contour>
      <point x="600" y="-20" type="curve" smooth="yes"/>
      <point x="961" y="-20"/>
      <point x="1144" y="218"/>
      <point x="1144" y="700" type="curve" smooth="yes"/>
      <point x="1144" y="1194"/>
      <point x="961" y="1440"/>
      <point x="600" y="1440" type="curve" smooth="yes"/>
      <point x="239" y="1440"/>
      <point x="56" y="1194"/>
      <point x="56" y="700" type="curve" smooth="yes"/>
      <point x="56" y="218"/>
      <point x="239" y="-20"/>
    </contour>
    <contour>
      <point x="600" y="245" type="curve" smooth="yes"/>
      <point x="431" y="245"/>
      <point x="346" y="396"/>
      <point x="346" y="700" type="curve" smooth="yes"/>
      <point x="346" y="1018"/>
      <point x="431" y="1175"/>
      <point x="600" y="1175" type="curve" smooth="yes"/>
      <point x="769" y="1175"/>
      <point x="854" y="1018"/>
      <point x="854" y="700" type="curve" smooth="yes"/>
      <point x="854" y="396"/>
      <point x="769" y="245"/>
    </contour>
  </outline>
</glyph>
<glyph name="P" format="2">
  <advance width="1200"/>
  <unicode hex="0050"/>
  <anchor x="560" y="0" name="bottom"/>
  <anchor x="560" y="1420" name="top"/>
  <outline>
    <contour>
      <point x="392" y="400" type="line"/>
      <point x="578" y="400" type="line" smooth="yes"/>
      <point x="936" y="400"/>
      <point x="1140" y="593"/>
      <point x="1140" y="930" type="curve" smooth="yes"/>
      <point x="1140" y="1241"/>
      <point x="936" y="1420"/>
      <point x="578" y="1420" type="curve" smooth="yes"/>
      <point x="396" y="1420" type="line"/>
      <point x="396" y="1166" type="line"/>
      <point x="578" y="1166" type="line" smooth="yes"/>
      <point x="745" y="1166"/>
      <point x="840" y="1073"/>
      <point x="840" y="910" type="curve" smooth="yes"/>
      <point x="840" y="748"/>
      <point x="745" y="654"/>
      <point x="578" y="654" type="curve" smooth="yes"/>
      <point x="392" y="654" type="line"/>
    </contour>
    <contour>
      <point x="140" y="0" type="line"/>
      <point x="416" y="0" type="line"/>
      <point x="416" y="1420" type="line"/>
      <point x="140" y="1420" type="line"/>
    </contour>
  </outline>
</glyph>
<glyph name="Q" format="2">
  <advance width="1200"/>
  <unicode hex="0051"/>
  <anchor x="600" y="0" name="bottom"/>
  <anchor x="600" y="710" name="center"/>
  <anchor x="1080" y="10" name="ogonek"/>
  <anchor x="600" y="1420" name="top"/>
  <anchor x="20" y="1420" name="topleft"/>
  <anchor x="1180" y="1420" name="topright"/>
  <outline>
    <contour>
      <point x="947" y="-460" type="curve" smooth="yes"/>
      <point x="1029" y="-460" type="line"/>
      <point x="1049" y="-209" type="line"/>
      <point x="947" y="-209" type="line" smooth="yes"/>
      <point x="800" y="-209"/>
      <point x="728" y="-147"/>
      <point x="728" y="-22" type="curve" smooth="yes"/>
      <point x="728" y="62" type="line"/>
      <point x="462" y="62" type="line"/>
      <point x="462" y="-20" type="line" smooth="yes"/>
      <point x="462" y="-314"/>
      <point x="625" y="-460"/>
    </contour>
    <component base="O"/>
  </outline>
</glyph>
<glyph name="R" format="2">
  <advance width="1200"/>
  <unicode hex="0052"/>
  <anchor x="610" y="0" name="bottom"/>
  <anchor x="560" y="1420" name="top"/>
  <outline>
    <contour>
      <point x="382" y="516" type="line"/>
      <point x="628" y="516" type="line" smooth="yes"/>
      <point x="935" y="516"/>
      <point x="1110" y="689"/>
      <point x="1110" y="990" type="curve" smooth="yes"/>
      <point x="1110" y="1264"/>
      <point x="935" y="1420"/>
      <point x="628" y="1420" type="curve" smooth="yes"/>
      <point x="362" y="1420" type="line"/>
      <point x="386" y="1166" type="line"/>
      <point x="628" y="1166" type="line" smooth="yes"/>
      <point x="743" y="1166"/>
      <point x="810" y="1095"/>
      <point x="810" y="970" type="curve" smooth="yes"/>
      <point x="810" y="843"/>
      <point x="743" y="770"/>
      <point x="628" y="770" type="curve" smooth="yes"/>
      <point x="382" y="770" type="line"/>
    </contour>
    <contour>
      <point x="120" y="0" type="line"/>
      <point x="396" y="0" type="line"/>
      <point x="396" y="1420" type="line"/>
      <point x="120" y="1420" type="line"/>
    </contour>
    <contour>
      <point x="832" y="0" type="line"/>
      <point x="1162" y="0" type="line"/>
      <point x="864" y="668" type="line"/>
      <point x="574" y="668" type="line"/>
    </contour>
  </outline>
</glyph>
<glyph name="S" format="2">
  <advance width="1200"/>
  <unicode hex="0053"/>
  <anchor x="610" y="0" name="bottom"/>
  <anchor x="600" y="1420" name="top"/>
  <outline>
    <contour>
      <point x="551" y="-20" type="curve" smooth="yes"/>
      <point x="885" y="-20"/>
      <point x="1077" y="124"/>
      <point x="1077" y="376" type="curve" smooth="yes"/>
      <point x="1077" y="528"/>
      <point x="964" y="675"/>
      <point x="766" y="780" type="curve" smooth="yes"/>
      <point x="577" y="880" type="line" smooth="yes"/>
      <point x="494" y="924"/>
      <point x="447" y="982"/>
      <point x="447" y="1040" type="curve" smooth="yes"/>
      <point x="447" y="1126"/>
      <point x="513" y="1175"/>
      <point x="627" y="1175" type="curve" smooth="yes"/>
      <point x="708" y="1175"/>
      <point x="804" y="1125"/>
      <point x="891" y="1038" type="curve"/>
      <point x="1081" y="1261" type="line"/>
      <point x="962" y="1375"/>
      <point x="796" y="1440"/>
      <point x="626" y="1440" type="curve" smooth="yes"/>
      <point x="321" y="1440"/>
      <point x="147" y="1298"/>
      <point x="147" y="1050" type="curve" smooth="yes"/>
      <point x="147" y="876"/>
      <point x="264" y="719"/>
      <point x="467" y="619" type="curve" smooth="yes"/>
      <point x="663" y="523" type="line" smooth="yes"/>
      <point x="735" y="488"/>
      <point x="777" y="436"/>
      <point x="777" y="382" type="curve" smooth="yes"/>
      <point x="777" y="295"/>
      <point x="700" y="245"/>
      <point x="567" y="245" type="curve" smooth="yes"/>
      <point x="445" y="245"/>
      <point x="292" y="280"/>
      <point x="147" y="341" type="curve"/>
      <point x="109" y="58" type="line"/>
      <point x="229" y="8"/>
      <point x="390" y="-20"/>
    </contour>
  </outline>
</glyph>
<glyph name="T" format="2">
  <advance width="1200"/>
  <unicode hex="0054"/>
  <anchor x="595" y="0" name="bottom"/>
  <anchor x="600" y="710" name="center"/>
  <anchor x="600" y="1420" name="top"/>
  <outline>
    <contour>
      <point x="468" y="0" type="line"/>
      <point x="732" y="0" type="line"/>
      <point x="732" y="1420" type="line"/>
      <point x="468" y="1420" type="line"/>
    </contour>
    <contour>
      <point x="63" y="1177" type="line"/>
      <point x="1137" y="1177" type="line"/>
      <point x="1137" y="1420" type="line"/>
      <point x="63" y="1420" type="line"/>
    </contour>
  </outline>
</glyph>
<glyph name="U" format="2">
  <advance width="1200"/>
  <unicode hex="0055"/>
  <anchor x="600" y="0" name="bottom"/>
  <anchor x="1080" y="10" name="ogonek"/>
  <anchor x="600" y="1420" name="top"/>
  <anchor x="1180" y="1420" name="topright"/>
  <outline>
    <contour>
      <point x="596" y="-20" type="curve" smooth="yes"/>
      <point x="913" y="-20"/>
      <point x="1080" y="138"/>
      <point x="1080" y="456" type="curve" smooth="yes"/>
      <point x="1080" y="1420" type="line"/>
      <point x="804" y="1420" type="line"/>
      <point x="804" y="456" type="line" smooth="yes"/>
      <point x="804" y="316"/>
      <point x="735" y="245"/>
      <point x="600" y="245" type="curve" smooth="yes"/>
      <point x="459" y="245"/>
      <point x="396" y="316"/>
      <point x="396" y="456" type="curve" smooth="yes"/>
      <point x="396" y="1420" type="line"/>
      <point x="120" y="1420" type="line"/>
      <point x="120" y="456" type="line" smooth="yes"/>
      <point x="120" y="138"/>
      <point x="279" y="-20"/>
    </contour>
  </outline>
</glyph>
<glyph name="V" format="2">
  <advance width="1200"/>
  <unicode hex="0056"/>
  <anchor x="600" y="0" name="bottom"/>
  <anchor x="600" y="1420" name="top"/>
  <outline>
    <contour>
      <point x="394" y="0" type="line"/>
      <point x="804" y="0" type="line"/>
      <point x="1171" y="1420" type="line"/>
      <point x="898" y="1420" type="line"/>
      <point x="608" y="237" type="line"/>
      <point x="590" y="237" type="line"/>
      <point x="300" y="1420" type="line"/>
      <point x="27" y="1420" type="line"/>
    </contour>
  </outline>
</glyph>
<glyph name="W" format="2">
  <advance width="1200"/>
  <unicode hex="0057"/>
  <anchor x="600" y="0" name="bottom"/>
  <anchor x="600" y="1420" name="top"/>
  <outline>
    <contour>
      <point x="150" y="0" type="line"/>
      <point x="519" y="0" type="line"/>
      <point x="594" y="772" type="line"/>
      <point x="634" y="772" type="line"/>
      <point x="721" y="1060" type="line"/>
      <point x="481" y="1060" type="line"/>
      <point x="380" y="250" type="line"/>
      <point x="350" y="250" type="line"/>
      <point x="270" y="1420" type="line"/>
      <point x="0" y="1420" type="line"/>
    </contour>
    <contour>
      <point x="681" y="0" type="line"/>
      <point x="1050" y="0" type="line"/>
      <point x="1200" y="1420" type="line"/>
      <point x="930" y="1420" type="line"/>
      <point x="850" y="250" type="line"/>
      <point x="820" y="250" type="line"/>
      <point x="721" y="1060" type="line"/>
      <point x="481" y="1060" type="line"/>
      <point x="566" y="772" type="line"/>
      <point x="606" y="772" type="line"/>
    </contour>
  </outline>
</glyph>
<glyph name="X" format="2">
  <advance width="1200"/>
  <unicode hex="0058"/>
  <anchor x="600" y="0" name="bottom"/>
  <anchor x="600" y="1420" name="top"/>
  <outline>
    <contour>
      <point x="826" y="0" type="line"/>
      <point x="1176" y="0" type="line"/>
      <point x="694" y="766" type="line"/>
      <point x="376" y="1420" type="line"/>
      <point x="26" y="1420" type="line"/>
      <point x="522" y="616" type="line"/>
    </contour>
    <contour>
      <point x="26" y="0" type="line"/>
      <point x="376" y="0" type="line"/>
      <point x="680" y="616" type="line"/>
      <point x="1176" y="1420" type="line"/>
      <point x="826" y="1420" type="line"/>
      <point x="508" y="766" type="line"/>
    </contour>
  </outline>
</glyph>
<glyph name="Y" format="2">
  <advance width="1200"/>
  <unicode hex="0059"/>
  <anchor x="600" y="0" name="bottom"/>
  <anchor x="600" y="1420" name="top"/>
  <anchor x="20" y="1420" name="topleft"/>
  <outline>
    <contour>
      <point x="477" y="414" type="line"/>
      <point x="723" y="414" type="line"/>
      <point x="1195" y="1420" type="line"/>
      <point x="885" y="1420" type="line"/>
      <point x="609" y="770" type="line"/>
      <point x="591" y="770" type="line"/>
      <point x="315" y="1420" type="line"/>
      <point x="5" y="1420" type="line"/>
    </contour>
    <contour>
      <point x="462" y="0" type="line"/>
      <point x="738" y="0" type="line"/>
      <point x="738" y="700" type="line"/>
      <point x="462" y="700" type="line"/>
    </contour>
  </outline>
</glyph>
<glyph name="Z" format="2">
  <advance width="1200"/>
  <unicode hex="005A"/>
  <anchor x="600" y="0" name="bottom"/>
  <anchor x="600" y="710" name="center"/>
  <anchor x="600" y="1420" name="top"/>
  <outline>
    <contour>
      <point x="312" y="68" type="line"/>
      <point x="1070" y="1166" type="line"/>
      <point x="888" y="1362" type="line"/>
      <point x="130" y="254" type="line"/>
    </contour>
    <contour>
      <point x="130" y="0" type="line"/>
      <point x="1090" y="0" type="line"/>
      <point x="1090" y="254" type="line"/>
      <point x="130" y="254" type="line"/>
    </contour>
    <contour>
      <point x="130" y="1166" type="line"/>
      <point x="1070" y="1166" type="line"/>
      <point x="1070" y="1420" type="line"/>
      <point x="130" y="1420" type="line"/>
    </contour>
  </outline>
</glyph>
<glyph name="bracketleft" format="2">
  <advance width="1200"/>
  <unicode hex="005B"/>
  <outline>
    <contour>
      <point x="352" y="-214" type="line"/>
      <point x="628" y="-214" type="line"/>
      <point x="628" y="1634" type="line"/>
      <point x="352" y="1634" type="line"/>
    </contour>
    <contour>
      <point x="608" y="-214" type="line"/>
      <point x="1018" y="-214" type="line"/>
      <point x="1018" y="50" type="line"/>
      <point x="608" y="50" type="line"/>
    </contour>
    <contour>
      <point x="608" y="1370" type="line"/>
      <point x="1018" y="1370" type="line"/>
      <point x="1018" y="1634" type="line"/>
      <point x="608" y="1634" type="line"/>
    </contour>
  </outline>
</glyph>
<glyph name="backslash" format="2">
  <advance width="1200"/>
  <unicode hex="005C"/>
  <outline>
    <contour>
      <point x="862" y="-190" type="line"/>
      <point x="1137" y="-190" type="line"/>
      <point x="362" y="1610" type="line"/>
      <point x="87" y="1610" type="line"/>
    </contour>
  </outline>
</glyph>
<glyph name="bracketright" format="2">
  <advance width="1200"/>
  <unicode hex="005D"/>
  <outline>
    <contour>
      <point x="572" y="-214" type="line"/>
      <point x="848" y="-214" type="line"/>
      <point x="848" y="1634" type="line"/>
      <point x="572" y="1634" type="line"/>
    </contour>
    <contour>
      <point x="182" y="-214" type="line"/>
      <point x="592" y="-214" type="line"/>
      <point x="592" y="50" type="line"/>
      <point x="182" y="50" type="line"/>
    </contour>
    <contour>
      <point x="182" y="1370" type="line"/>
      <point x="592" y="1370" type="line"/>
      <point x="592" y="1634" type="line"/>
      <point x="182" y="1634" type="line"/>
    </contour>
  </outline>
</glyph>
<glyph name="asciicircum" format="2">
  <advance width="1200"/>
  <unicode hex="005E"/>
  <outline>
    <contour>
      <point x="174" y="820" type="line"/>
      <point x="444" y="820" type="line"/>
      <point x="590" y="1200" type="line"/>
      <point x="608" y="1200" type="line"/>
      <point x="754" y="820" type="line"/>
      <point x="1024" y="820" type="line"/>
      <point x="754" y="1420" type="line"/>
      <point x="444" y="1420" type="line"/>
    </contour>
  </outline>
</glyph>
<glyph name="underscore" format="2">
  <advance width="1200"/>
  <unicode hex="005F"/>
  <outline>
    <contour>
      <point x="100" y="-250" type="line"/>
      <point x="1100" y="-250" type="line"/>
      <point x="1100" y="0" type="line"/>
      <point x="100" y="0" type="line"/>
    </contour>
  </outline>
</glyph>
<glyph name="a" format="2">
  <advance width="1200"/>
  <unicode hex="0061"/>
  <anchor x="600" y="0" name="bottom"/>
  <anchor x="1080" y="10" name="ogonek"/>
  <anchor x="580" y="1060" name="top"/>
  <outline>
    <contour>
      <point x="790" y="-10" type="line"/>
      <point x="1178" y="0" type="line"/>
      <point x="1178" y="230" type="line"/>
      <point x="1038" y="252" type="line"/>
      <point x="1038" y="634" type="line" smooth="yes"/>
      <point x="1038" y="914"/>
      <point x="851" y="1062"/>
      <point x="460" y="1067" type="curve" smooth="yes"/>
      <point x="226" y="1070" type="line"/>
      <point x="206" y="812" type="line"/>
      <point x="480" y="805" type="line" smooth="yes"/>
      <point x="670" y="800"/>
      <point x="766" y="753"/>
      <point x="766" y="646" type="curve" smooth="yes"/>
      <point x="766" y="452" type="line"/>
      <point x="766" y="304" type="line"/>
    </contour>
    <contour>
      <point x="434" y="-20" type="curve" smooth="yes"/>
      <point x="627" y="-20"/>
      <point x="741" y="72"/>
      <point x="750" y="256" type="curve"/>
      <point x="714" y="224" type="line"/>
      <point x="800" y="224" type="line"/>
      <point x="766" y="496" type="line"/>
      <point x="766" y="440" type="line"/>
      <point x="766" y="333"/>
      <point x="680" y="220"/>
      <point x="508" y="220" type="curve" smooth="yes"/>
      <point x="415" y="220"/>
      <point x="366" y="255"/>
      <point x="366" y="321" type="curve" smooth="yes"/>
      <point x="366" y="396"/>
      <point x="434" y="434"/>
      <point x="562" y="434" type="curve" smooth="yes"/>
      <point x="634" y="434"/>
      <point x="691" y="434"/>
      <point x="776" y="414" type="curve"/>
      <point x="820" y="638" type="line"/>
      <point x="731" y="662"/>
      <point x="660" y="674"/>
      <point x="546" y="674" type="curve" smooth="yes"/>
      <point x="246" y="674"/>
      <point x="76" y="541"/>
      <point x="76" y="301" type="curve" smooth="yes"/>
      <point x="76" y="96"/>
      <point x="207" y="-20"/>
    </contour>
  </outline>
</glyph>
<glyph name="b" format="2">
  <advance width="1200"/>
  <unicode hex="0062"/>
  <anchor x="640" y="0" name="bottom"/>
  <anchor x="280" y="1568" name="top"/>
  <outline>
    <contour>
      <point x="452" y="-20" type="curve" smooth="yes"/>
      <point x="880" y="-20"/>
      <point x="1124" y="206"/>
      <point x="1124" y="600" type="curve" smooth="yes"/>
      <point x="1124" y="906"/>
      <point x="973" y="1080"/>
      <point x="710" y="1080" type="curve" smooth="yes"/>
      <point x="562" y="1080"/>
      <point x="480" y="1010"/>
      <point x="460" y="868" type="curve"/>
      <point x="368" y="868" type="line"/>
      <point x="430" y="596" type="line"/>
      <point x="430" y="740"/>
      <point x="503" y="810"/>
      <point x="650" y="810" type="curve" smooth="yes"/>
      <point x="761" y="810"/>
      <point x="824" y="734"/>
      <point x="824" y="600" type="curve" smooth="yes"/>
      <point x="824" y="377"/>
      <point x="704" y="250"/>
      <point x="494" y="250" type="curve" smooth="yes"/>
      <point x="410" y="250"/>
      <point x="320" y="250"/>
      <point x="250" y="284" type="curve"/>
      <point x="148" y="0" type="line"/>
      <point x="251" y="-12"/>
      <point x="349" y="-20"/>
    </contour>
    <contour>
      <point x="148" y="0" type="line"/>
      <point x="430" y="18" type="line"/>
      <point x="430" y="1500" type="line"/>
      <point x="148" y="1500" type="line"/>
    </contour>
  </outline>
</glyph>
<glyph name="c" format="2">
  <advance width="1200"/>
  <unicode hex="0063"/>
  <anchor x="650" y="0" name="bottom"/>
  <anchor x="650" y="1060" name="top"/>
  <outline>
    <contour>
      <point x="732" y="-20" type="curve" smooth="yes"/>
      <point x="840" y="-20"/>
      <point x="956" y="-14"/>
      <point x="1062" y="10" type="curve"/>
      <point x="1033" y="276" type="line"/>
      <point x="944" y="260"/>
      <point x="850" y="250"/>
      <point x="756" y="250" type="curve" smooth="yes"/>
      <point x="538" y="250"/>
      <point x="416" y="352"/>
      <point x="416" y="542" type="curve" smooth="yes"/>
      <point x="416" y="713"/>
      <point x="508" y="810"/>
      <point x="666" y="810" type="curve" smooth="yes"/>
      <point x="773" y="810"/>
      <point x="866" y="758"/>
      <point x="924" y="667" type="curve"/>
      <point x="1127" y="830" type="line"/>
      <point x="1060" y="989"/>
      <point x="895" y="1080"/>
      <point x="674" y="1080" type="curve" smooth="yes"/>
      <point x="316" y="1080"/>
      <point x="116" y="878"/>
      <point x="116" y="532" type="curve" smooth="yes"/>
      <point x="116" y="176"/>
      <point x="339" y="-20"/>
    </contour>
  </outline>
</glyph>
<glyph name="d" format="2">
  <advance width="1200"/>
  <unicode hex="0064"/>
  <anchor x="540" y="0" name="bottom"/>
  <anchor x="600" y="530" name="center"/>
  <anchor x="926" y="1568" name="top"/>
  <anchor x="1180" y="1060" name="topright"/>
  <outline>
    <contour>
      <point x="478" y="-20" type="curve" smooth="yes"/>
      <point x="631" y="-20"/>
      <point x="723" y="42"/>
      <point x="747" y="164" type="curve"/>
      <point x="842" y="164" type="line"/>
      <point x="770" y="556" type="line"/>
      <point x="770" y="510" type="line" smooth="yes"/>
      <point x="770" y="350"/>
      <point x="701" y="270"/>
      <point x="562" y="270" type="curve" smooth="yes"/>
      <point x="439" y="270"/>
      <point x="376" y="354"/>
      <point x="376" y="520" type="curve" smooth="yes"/>
      <point x="376" y="704"/>
      <point x="443" y="810"/>
      <point x="562" y="810" type="curve" smooth="yes"/>
      <point x="700" y="810"/>
      <point x="770" y="717"/>
      <point x="770" y="526" type="curve"/>
      <point x="832" y="868" type="line"/>
      <point x="742" y="868" type="line"/>
      <point x="716" y="1010"/>
      <point x="639" y="1080"/>
      <point x="480" y="1080" type="curve" smooth="yes"/>
      <point x="223" y="1080"/>
      <point x="76" y="876"/>
      <point x="76" y="520" type="curve" smooth="yes"/>
      <point x="76" y="172"/>
      <point x="223" y="-20"/>
    </contour>
    <contour>
      <point x="812" y="-10" type="line"/>
      <point x="1052" y="0" type="line"/>
      <point x="1052" y="1500" type="line"/>
      <point x="770" y="1500" type="line"/>
      <point x="770" y="198" type="line"/>
    </contour>
  </outline>
</glyph>
<glyph name="e" format="2">
  <advance width="1200"/>
  <unicode hex="0065"/>
  <anchor x="630" y="0" name="bottom"/>
  <anchor x="1080" y="10" name="ogonek"/>
  <anchor x="610" y="1060" name="top"/>
  <outline>
    <contour>
      <point x="692" y="-20" type="curve" smooth="yes"/>
      <point x="780" y="-20"/>
      <point x="894" y="-16"/>
      <point x="1032" y="8" type="curve"/>
      <point x="1006" y="278" type="line"/>
      <point x="908" y="260"/>
      <point x="814" y="250"/>
      <point x="716" y="250" type="curve" smooth="yes"/>
      <point x="511" y="250"/>
      <point x="396" y="351"/>
      <point x="396" y="542" type="curve" smooth="yes"/>
      <point x="396" y="719"/>
      <point x="473" y="820"/>
      <point x="606" y="820" type="curve" smooth="yes"/>
      <point x="730" y="820"/>
      <point x="804" y="747"/>
      <point x="804" y="614" type="curve"/>
      <point x="294" y="614" type="line"/>
      <point x="294" y="420" type="line"/>
      <point x="1078" y="420" type="line"/>
      <point x="1082" y="463"/>
      <point x="1084" y="507"/>
      <point x="1084" y="557" type="curve" smooth="yes"/>
      <point x="1084" y="897"/>
      <point x="909" y="1080"/>
      <point x="604" y="1080" type="curve" smooth="yes"/>
      <point x="294" y="1080"/>
      <point x="116" y="878"/>
      <point x="116" y="532" type="curve" smooth="yes"/>
      <point x="116" y="176"/>
      <point x="324" y="-20"/>
    </contour>
  </outline>
</glyph>
<glyph name="f" format="2">
  <advance width="1200"/>
  <unicode hex="0066"/>
  <anchor x="508" y="0" name="bottom"/>
  <anchor x="740" y="1568" name="top"/>
  <outline>
    <contour>
      <point x="367" y="0" type="line"/>
      <point x="649" y="0" type="line"/>
      <point x="649" y="980" type="line" smooth="yes"/>
      <point x="649" y="1161"/>
      <point x="731" y="1250"/>
      <point x="898" y="1250" type="curve" smooth="yes"/>
      <point x="962" y="1250"/>
      <point x="1027" y="1246"/>
      <point x="1117" y="1236" type="curve"/>
      <point x="1144" y="1500" type="line"/>
      <point x="1063" y="1514"/>
      <point x="991" y="1520"/>
      <point x="904" y="1520" type="curve" smooth="yes"/>
      <point x="545" y="1520"/>
      <point x="367" y="1338"/>
      <point x="367" y="970" type="curve" smooth="yes"/>
    </contour>
    <contour>
      <point x="48" y="611" type="line"/>
      <point x="1068" y="611" type="line"/>
      <point x="1068" y="855" type="line"/>
      <point x="48" y="855" type="line"/>
    </contour>
  </outline>
</glyph>
<glyph name="g" format="2">
  <advance width="1200"/>
  <unicode hex="0067"/>
  <anchor x="540" y="-480" name="bottom"/>
  <anchor x="580" y="1060" name="top"/>
  <outline>
    <contour>
      <point x="478" y="-20" type="curve" smooth="yes"/>
      <point x="631" y="-20"/>
      <point x="723" y="42"/>
      <point x="747" y="164" type="curve"/>
      <point x="842" y="164" type="line"/>
      <point x="770" y="556" type="line"/>
      <point x="770" y="510" type="line" smooth="yes"/>
      <point x="770" y="350"/>
      <point x="701" y="270"/>
      <point x="562" y="270" type="curve" smooth="yes"/>
      <point x="439" y="270"/>
      <point x="376" y="354"/>
      <point x="376" y="520" type="curve" smooth="yes"/>
      <point x="376" y="704"/>
      <point x="443" y="810"/>
      <point x="562" y="810" type="curve" smooth="yes"/>
      <point x="700" y="810"/>
      <point x="770" y="717"/>
      <point x="770" y="526" type="curve"/>
      <point x="832" y="868" type="line"/>
      <point x="742" y="868" type="line"/>
      <point x="716" y="1010"/>
      <point x="639" y="1080"/>
      <point x="480" y="1080" type="curve" smooth="yes"/>
      <point x="223" y="1080"/>
      <point x="76" y="876"/>
      <point x="76" y="520" type="curve" smooth="yes"/>
      <point x="76" y="172"/>
      <point x="223" y="-20"/>
    </contour>
    <contour>
      <point x="182" y="-478" type="line"/>
      <point x="492" y="-468" type="line" smooth="yes"/>
      <point x="882" y="-455"/>
      <point x="1052" y="-284"/>
      <point x="1052" y="94" type="curve" smooth="yes"/>
      <point x="1052" y="304" type="line"/>
      <point x="768" y="304" type="line"/>
      <point x="768" y="62" type="line" smooth="yes"/>
      <point x="768" y="-124"/>
      <point x="691" y="-219"/>
      <point x="512" y="-224" type="curve" smooth="yes"/>
      <point x="172" y="-234" type="line"/>
    </contour>
    <contour>
      <point x="770" y="260" type="line"/>
      <point x="1052" y="260" type="line"/>
      <point x="1052" y="1060" type="line"/>
      <point x="790" y="1060" type="line"/>
      <point x="770" y="836" type="line"/>
    </contour>
  </outline>
</glyph>
<glyph name="h" format="2">
  <advance width="1200"/>
  <unicode hex="0068"/>
  <anchor x="600" y="0" name="bottom"/>
  <anchor x="600" y="784" name="center"/>
  <anchor x="274" y="1500" name="top"/>
  <outline>
    <contour>
      <point x="770" y="0" type="line"/>
      <point x="1052" y="0" type="line"/>
      <point x="1052" y="690" type="line" smooth="yes"/>
      <point x="1052" y="938"/>
      <point x="924" y="1080"/>
      <point x="700" y="1080" type="curve" smooth="yes"/>
      <point x="546" y="1080"/>
      <point x="479" y="1010"/>
      <point x="458" y="868" type="curve"/>
      <point x="368" y="868" type="line"/>
      <point x="430" y="536" type="line"/>
      <point x="430" y="720"/>
      <point x="496" y="810"/>
      <point x="625" y="810" type="curve" smooth="yes"/>
      <point x="717" y="810"/>
      <point x="770" y="745"/>
      <point x="770" y="630" type="curve" smooth="yes"/>
    </contour>
    <contour>
      <point x="148" y="0" type="line"/>
      <point x="430" y="0" type="line"/>
      <point x="430" y="1500" type="line"/>
      <point x="148" y="1500" type="line"/>
    </contour>
  </outline>
</glyph>
<glyph name="i" format="2">
  <advance width="1200"/>
  <unicode hex="0069"/>
  <anchor x="670" y="0" name="bottom"/>
  <outline>
    <contour>
      <point x="529" y="0" type="line"/>
      <point x="811" y="0" type="line"/>
      <point x="811" y="1000" type="line"/>
      <point x="529" y="1000" type="line"/>
    </contour>
    <contour>
      <point x="140" y="0" type="line"/>
      <point x="549" y="0" type="line"/>
      <point x="549" y="264" type="line"/>
      <point x="140" y="264" type="line"/>
    </contour>
    <contour>
      <point x="791" y="0" type="line"/>
      <point x="1122" y="0" type="line"/>
      <point x="1122" y="264" type="line"/>
      <point x="791" y="264" type="line"/>
    </contour>
    <contour>
      <point x="200" y="794" type="line"/>
      <point x="811" y="794" type="line"/>
      <point x="811" y="1060" type="line"/>
      <point x="200" y="1060" type="line"/>
    </contour>
    <contour>
      <point x="658" y="1198" type="curve" smooth="yes"/>
      <point x="765" y="1198"/>
      <point x="836" y="1269"/>
      <point x="836" y="1376" type="curve" smooth="yes"/>
      <point x="836" y="1483"/>
      <point x="765" y="1554"/>
      <point x="658" y="1554" type="curve" smooth="yes"/>
      <point x="551" y="1554"/>
      <point x="480" y="1483"/>
      <point x="480" y="1376" type="curve" smooth="yes"/>
      <point x="480" y="1269"/>
      <point x="551" y="1198"/>
    </contour>
  </outline>
</glyph>
<glyph name="j" format="2">
  <advance width="1200"/>
  <unicode hex="006A"/>
  <outline>
    <contour>
      <point x="180" y="-480" type="line"/>
      <point x="350" y="-468" type="line" smooth="yes"/>
      <point x="740" y="-440"/>
      <point x="908" y="-284"/>
      <point x="908" y="94" type="curve" smooth="yes"/>
      <point x="908" y="384" type="line"/>
      <point x="626" y="384" type="line"/>
      <point x="626" y="62" type="line" smooth="yes"/>
      <point x="626" y="-104"/>
      <point x="549" y="-181"/>
      <point x="370" y="-193" type="curve" smooth="yes"/>
      <point x="170" y="-206" type="line"/>
    </contour>
    <contour>
      <point x="264" y="796" type="line"/>
      <point x="642" y="796" type="line"/>
      <point x="642" y="1060" type="line"/>
      <point x="264" y="1060" type="line"/>
    </contour>
    <contour>
      <point x="626" y="350" type="line"/>
      <point x="908" y="350" type="line"/>
      <point x="908" y="1060" type="line"/>
      <point x="626" y="1060" type="line"/>
    </contour>
    <contour>
      <point x="750" y="1198" type="curve" smooth="yes"/>
      <point x="857" y="1198"/>
      <point x="928" y="1269"/>
      <point x="928" y="1376" type="curve" smooth="yes"/>
      <point x="928" y="1483"/>
      <point x="857" y="1554"/>
      <point x="750" y="1554" type="curve" smooth="yes"/>
      <point x="643" y="1554"/>
      <point x="572" y="1483"/>
      <point x="572" y="1376" type="curve" smooth="yes"/>
      <point x="572" y="1269"/>
      <point x="643" y="1198"/>
    </contour>
  </outline>
</glyph>
<glyph name="l" format="2">
  <advance width="1200"/>
  <unicode hex="006C"/>
  <anchor x="670" y="0" name="bottom"/>
  <anchor x="510" y="784" name="center"/>
  <anchor x="506" y="1500" name="top"/>
  <anchor x="960" y="1500" name="topright"/>
  <outline>
    <contour>
      <point x="748" y="-20" type="curve" smooth="yes"/>
      <point x="869" y="-20"/>
      <point x="969" y="-8"/>
      <point x="1084" y="22" type="curve"/>
      <point x="1052" y="318" type="line"/>
      <point x="959" y="292"/>
      <point x="891" y="280"/>
      <point x="828" y="280" type="curve" smooth="yes"/>
      <point x="675" y="280"/>
      <point x="647" y="334"/>
      <point x="647" y="460" type="curve" smooth="yes"/>
      <point x="647" y="1500" type="line"/>
      <point x="365" y="1500" type="line"/>
      <point x="365" y="450" type="line" smooth="yes"/>
      <point x="365" y="121"/>
      <point x="477" y="-20"/>
    </contour>
    <contour>
      <point x="68" y="1236" type="line"/>
      <point x="383" y="1236" type="line"/>
      <point x="383" y="1500" type="line"/>
      <point x="68" y="1500" type="line"/>
    </contour>
  </outline>
</glyph>
<glyph name="m" format="2">
  <advance width="1200"/>
  <unicode hex="006D"/>
  <anchor x="600" y="0" name="bottom"/>
  <anchor x="600" y="1060" name="top"/>
  <outline>
    <contour>
      <point x="831" y="0" type="line"/>
      <point x="1108" y="0" type="line"/>
      <point x="1108" y="830" type="line" smooth="yes"/>
      <point x="1108" y="1006"/>
      <point x="1045" y="1080"/>
      <point x="903" y="1080" type="curve" smooth="yes"/>
      <point x="803" y="1080"/>
      <point x="738" y="1025"/>
      <point x="725" y="928" type="curve"/>
      <point x="633" y="928" type="line"/>
      <point x="705" y="696" type="line"/>
      <point x="705" y="772"/>
      <point x="727" y="810"/>
      <point x="771" y="810" type="curve" smooth="yes"/>
      <point x="811" y="810"/>
      <point x="831" y="774"/>
      <point x="831" y="700" type="curve" smooth="yes"/>
    </contour>
    <contour>
      <point x="92" y="0" type="line"/>
      <point x="369" y="0" type="line"/>
      <point x="369" y="836" type="line"/>
      <point x="345" y="1060" type="line"/>
      <point x="92" y="1060" type="line"/>
    </contour>
    <contour>
      <point x="500" y="0" type="line"/>
      <point x="705" y="0" type="line"/>
      <point x="705" y="850" type="line" smooth="yes"/>
      <point x="705" y="1004"/>
      <point x="643" y="1080"/>
      <point x="542" y="1080" type="curve" smooth="yes"/>
      <point x="457" y="1080"/>
      <point x="400" y="1025"/>
      <point x="385" y="928" type="curve"/>
      <point x="307" y="928" type="line"/>
      <point x="369" y="696" type="line"/>
      <point x="369" y="772"/>
      <point x="393" y="810"/>
      <point x="440" y="810" type="curve" smooth="yes"/>
      <point x="480" y="810"/>
      <point x="500" y="780"/>
      <point x="500" y="720" type="curve" smooth="yes"/>
    </contour>
  </outline>
</glyph>
<glyph name="n" format="2">
  <advance width="1200"/>
  <unicode hex="006E"/>
  <anchor x="600" y="0" name="bottom"/>
  <anchor x="590" y="1060" name="top"/>
  <outline>
    <contour>
      <point x="778" y="0" type="line"/>
      <point x="1049" y="0" type="line"/>
      <point x="1049" y="690" type="line" smooth="yes"/>
      <point x="1049" y="938"/>
      <point x="921" y="1080"/>
      <point x="697" y="1080" type="curve" smooth="yes"/>
      <point x="539" y="1080"/>
      <point x="468" y="1010"/>
      <point x="448" y="868" type="curve"/>
      <point x="360" y="868" type="line"/>
      <point x="422" y="529" type="line"/>
      <point x="422" y="726"/>
      <point x="491" y="823"/>
      <point x="626" y="823" type="curve" smooth="yes"/>
      <point x="723" y="823"/>
      <point x="778" y="751"/>
      <point x="778" y="623" type="curve" smooth="yes"/>
    </contour>
    <contour>
      <point x="151" y="0" type="line"/>
      <point x="422" y="0" type="line"/>
      <point x="422" y="836" type="line"/>
      <point x="393" y="1060" type="line"/>
      <point x="151" y="1060" type="line"/>
    </contour>
  </outline>
</glyph>
<glyph name="o" format="2">
  <advance width="1200"/>
  <unicode hex="006F"/>
  <anchor x="600" y="0" name="bottom"/>
  <anchor x="600" y="530" name="center"/>
  <anchor x="600" y="10" name="ogonek"/>
  <anchor x="600" y="1060" name="top"/>
  <anchor x="1040" y="1060" name="topright"/>
  <outline>
    <contour>
      <point x="600" y="-20" type="curve" smooth="yes"/>
      <point x="907" y="-20"/>
      <point x="1084" y="180"/>
      <point x="1084" y="530" type="curve" smooth="yes"/>
      <point x="1084" y="880"/>
      <point x="907" y="1080"/>
      <point x="600" y="1080" type="curve" smooth="yes"/>
      <point x="293" y="1080"/>
      <point x="116" y="880"/>
      <point x="116" y="530" type="curve" smooth="yes"/>
      <point x="116" y="180"/>
      <point x="293" y="-20"/>
    </contour>
    <contour>
      <point x="600" y="250" type="curve" smooth="yes"/>
      <point x="483" y="250"/>
      <point x="416" y="351"/>
      <point x="416" y="530" type="curve" smooth="yes"/>
      <point x="416" y="709"/>
      <point x="483" y="810"/>
      <point x="600" y="810" type="curve" smooth="yes"/>
      <point x="717" y="810"/>
      <point x="784" y="709"/>
      <point x="784" y="530" type="curve" smooth="yes"/>
      <point x="784" y="351"/>
      <point x="717" y="250"/>
    </contour>
  </outline>
</glyph>
<glyph name="p" format="2">
  <advance width="1200"/>
  <unicode hex="0070"/>
  <anchor x="650" y="0" name="bottom"/>
  <anchor x="650" y="1060" name="top"/>
  <outline>
    <contour>
      <point x="715" y="-20" type="curve" smooth="yes"/>
      <point x="973" y="-20"/>
      <point x="1121" y="172"/>
      <point x="1121" y="520" type="curve" smooth="yes"/>
      <point x="1121" y="876"/>
      <point x="973" y="1080"/>
      <point x="713" y="1080" type="curve" smooth="yes"/>
      <point x="553" y="1080"/>
      <point x="473" y="1010"/>
      <point x="448" y="868" type="curve"/>
      <point x="360" y="868" type="line"/>
      <point x="422" y="544" type="line"/>
      <point x="422" y="733"/>
      <point x="493" y="825"/>
      <point x="635" y="825" type="curve" smooth="yes"/>
      <point x="763" y="825"/>
      <point x="836" y="714"/>
      <point x="836" y="520" type="curve" smooth="yes"/>
      <point x="836" y="331"/>
      <point x="768" y="235"/>
      <point x="635" y="235" type="curve" smooth="yes"/>
      <point x="492" y="235"/>
      <point x="422" y="317"/>
      <point x="422" y="482" type="curve" smooth="yes"/>
      <point x="422" y="539" type="line"/>
      <point x="350" y="164" type="line"/>
      <point x="448" y="164" type="line"/>
      <point x="471" y="42"/>
      <point x="564" y="-20"/>
    </contour>
    <contour>
      <point x="151" y="-460" type="line"/>
      <point x="422" y="-460" type="line"/>
      <point x="422" y="836" type="line"/>
      <point x="402" y="1060" type="line"/>
      <point x="151" y="1060" type="line"/>
    </contour>
  </outline>
</glyph>
<glyph name="q" format="2">
  <advance width="1200"/>
  <unicode hex="0071"/>
  <anchor x="540" y="0" name="bottom"/>
  <anchor x="540" y="1060" name="top"/>
  <outline>
    <contour>
      <point x="478" y="-20" type="curve" smooth="yes"/>
      <point x="628" y="-20"/>
      <point x="718" y="42"/>
      <point x="742" y="164" type="curve"/>
      <point x="842" y="164" type="line"/>
      <point x="770" y="556" type="line"/>
      <point x="770" y="510" type="line" smooth="yes"/>
      <point x="770" y="336"/>
      <point x="701" y="250"/>
      <point x="562" y="250" type="curve" smooth="yes"/>
      <point x="439" y="250"/>
      <point x="376" y="341"/>
      <point x="376" y="520" type="curve" smooth="yes"/>
      <point x="376" y="704"/>
      <point x="443" y="810"/>
      <point x="562" y="810" type="curve" smooth="yes"/>
      <point x="700" y="810"/>
      <point x="770" y="717"/>
      <point x="770" y="526" type="curve"/>
      <point x="832" y="868" type="line"/>
      <point x="742" y="868" type="line"/>
      <point x="716" y="1010"/>
      <point x="639" y="1080"/>
      <point x="480" y="1080" type="curve" smooth="yes"/>
      <point x="223" y="1080"/>
      <point x="76" y="876"/>
      <point x="76" y="520" type="curve" smooth="yes"/>
      <point x="76" y="172"/>
      <point x="223" y="-20"/>
    </contour>
    <contour>
      <point x="770" y="-460" type="line"/>
      <point x="1052" y="-460" type="line"/>
      <point x="1052" y="1060" type="line"/>
      <point x="790" y="1060" type="line"/>
      <point x="770" y="836" type="line"/>
    </contour>
  </outline>
</glyph>
<glyph name="r" format="2">
  <advance width="1200"/>
  <unicode hex="0072"/>
  <anchor x="430" y="0" name="bottom"/>
  <anchor x="600" y="1060" name="top"/>
  <outline>
    <contour>
      <point x="563" y="456" type="line"/>
      <point x="563" y="682"/>
      <point x="623" y="810"/>
      <point x="746" y="810" type="curve" smooth="yes"/>
      <point x="848" y="810"/>
      <point x="892" y="761"/>
      <point x="892" y="642" type="curve"/>
      <point x="1172" y="642" type="line"/>
      <point x="1172" y="920"/>
      <point x="1058" y="1080"/>
      <point x="860" y="1080" type="curve" smooth="yes"/>
      <point x="692" y="1080"/>
      <point x="604" y="997"/>
      <point x="593" y="828" type="curve"/>
      <point x="501" y="828" type="line"/>
    </contour>
    <contour>
      <point x="60" y="0" type="line"/>
      <point x="808" y="0" type="line"/>
      <point x="808" y="244" type="line"/>
      <point x="60" y="244" type="line"/>
    </contour>
    <contour>
      <point x="281" y="0" type="line"/>
      <point x="563" y="0" type="line"/>
      <point x="563" y="756" type="line"/>
      <point x="523" y="1060" type="line"/>
      <point x="281" y="1060" type="line"/>
    </contour>
    <contour>
      <point x="100" y="816" type="line"/>
      <point x="529" y="816" type="line"/>
      <point x="509" y="1060" type="line"/>
      <point x="100" y="1060" type="line"/>
    </contour>
  </outline>
</glyph>
<glyph name="s" format="2">
  <advance width="1200"/>
  <unicode hex="0073"/>
  <anchor x="610" y="0" name="bottom"/>
  <anchor x="630" y="1060" name="top"/>
  <outline>
    <contour>
      <point x="518" y="-20" type="curve" smooth="yes"/>
      <point x="883" y="-20"/>
      <point x="1064" y="91"/>
      <point x="1064" y="316" type="curve" smooth="yes"/>
      <point x="1064" y="462"/>
      <point x="977" y="557"/>
      <point x="802" y="604" type="curve" smooth="yes"/>
      <point x="497" y="693" type="line" smooth="yes"/>
      <point x="465" y="701"/>
      <point x="452" y="717"/>
      <point x="452" y="745" type="curve" smooth="yes"/>
      <point x="452" y="791"/>
      <point x="535" y="810"/>
      <point x="730" y="810" type="curve" smooth="yes"/>
      <point x="790" y="810"/>
      <point x="881" y="805"/>
      <point x="1006" y="796" type="curve"/>
      <point x="1036" y="1060" type="line"/>
      <point x="924" y="1073"/>
      <point x="824" y="1080"/>
      <point x="736" y="1080" type="curve" smooth="yes"/>
      <point x="346" y="1080"/>
      <point x="152" y="967"/>
      <point x="152" y="740" type="curve" smooth="yes"/>
      <point x="152" y="601"/>
      <point x="216" y="514"/>
      <point x="346" y="478" type="curve" smooth="yes"/>
      <point x="700" y="370" type="line" smooth="yes"/>
      <point x="738" y="359"/>
      <point x="754" y="343"/>
      <point x="754" y="317" type="curve" smooth="yes"/>
      <point x="754" y="270"/>
      <point x="684" y="250"/>
      <point x="518" y="250" type="curve" smooth="yes"/>
      <point x="459" y="250"/>
      <point x="343" y="261"/>
      <point x="169" y="282" type="curve"/>
      <point x="136" y="10" type="line"/>
      <point x="229" y="-10"/>
      <point x="356" y="-20"/>
    </contour>
  </outline>
</glyph>
<glyph name="t" format="2">
  <advance width="1200"/>
  <unicode hex="0074"/>
  <anchor x="655" y="0" name="bottom"/>
  <anchor x="432" y="570" name="center"/>
  <anchor x="600" y="1380" name="top"/>
  <anchor x="1070" y="1060" name="topright"/>
  <outline>
    <contour>
      <point x="822" y="-20" type="curve" smooth="yes"/>
      <point x="915" y="-20"/>
      <point x="993" y="-12"/>
      <point x="1080" y="4" type="curve"/>
      <point x="1056" y="270" type="line"/>
      <point x="968" y="258"/>
      <point x="902" y="250"/>
      <point x="842" y="250" type="curve" smooth="yes"/>
      <point x="650" y="250"/>
      <point x="573" y="319"/>
      <point x="573" y="480" type="curve" smooth="yes"/>
      <point x="573" y="580" type="line"/>
      <point x="291" y="580" type="line"/>
      <point x="291" y="450" type="line" smooth="yes"/>
      <point x="291" y="121"/>
      <point x="447" y="-20"/>
    </contour>
    <contour>
      <point x="291" y="520" type="line"/>
      <point x="573" y="520" type="line"/>
      <point x="573" y="1380" type="line"/>
      <point x="291" y="1380" type="line"/>
    </contour>
    <contour>
      <point x="40" y="796" type="line"/>
      <point x="1040" y="796" type="line"/>
      <point x="1040" y="1060" type="line"/>
      <point x="40" y="1060" type="line"/>
    </contour>
  </outline>
</glyph>
<glyph name="u" format="2">
  <advance width="1200"/>
  <unicode hex="0075"/>
  <anchor x="570" y="0" name="bottom"/>
  <anchor x="1080" y="10" name="ogonek"/>
  <anchor x="590" y="1060" name="top"/>
  <anchor x="1120" y="1060" name="topright"/>
  <outline>
    <contour>
      <point x="446" y="-20" type="curve" smooth="yes"/>
      <point x="585" y="-20"/>
      <point x="686" y="60"/>
      <point x="719" y="204" type="curve"/>
      <point x="804" y="204" type="line"/>
      <point x="750" y="570" type="line"/>
      <point x="750" y="339"/>
      <point x="687" y="250"/>
      <point x="566" y="250" type="curve" smooth="yes"/>
      <point x="473" y="250"/>
      <point x="418" y="318"/>
      <point x="418" y="440" type="curve" smooth="yes"/>
      <point x="418" y="1060" type="line"/>
      <point x="136" y="1060" type="line"/>
      <point x="136" y="360" type="line" smooth="yes"/>
      <point x="136" y="118"/>
      <point x="248" y="-20"/>
    </contour>
    <contour>
      <point x="768" y="-10" type="line"/>
      <point x="1178" y="0" type="line"/>
      <point x="1178" y="230" type="line"/>
      <point x="1032" y="252" type="line"/>
      <point x="1032" y="430" type="line"/>
      <point x="750" y="430" type="line"/>
      <point x="750" y="244" type="line"/>
    </contour>
    <contour>
      <point x="750" y="300" type="line"/>
      <point x="1032" y="360" type="line"/>
      <point x="1032" y="1060" type="line"/>
      <point x="750" y="1060" type="line"/>
    </contour>
  </outline>
</glyph>
<glyph name="v" format="2">
  <advance width="1200"/>
  <unicode hex="0076"/>
  <guideline x="317" y="70" angle="0"/>
  <anchor x="605" y="0" name="bottom"/>
  <anchor x="605" y="1060" name="top"/>
  <outline>
    <contour>
      <point x="424" y="0" type="line"/>
      <point x="786" y="0" type="line"/>
      <point x="1140" y="1060" type="line"/>
      <point x="854" y="1060" type="line"/>
      <point x="614" y="250" type="line"/>
      <point x="596" y="250" type="line"/>
      <point x="346" y="1060" type="line"/>
      <point x="60" y="1060" type="line"/>
    </contour>
  </outline>
</glyph>
<glyph name="w" format="2">
  <advance width="1200"/>
  <unicode hex="0077"/>
  <guideline x="307" y="70" angle="0"/>
  <anchor x="590" y="0" name="bottom"/>
  <anchor x="590" y="1060" name="top"/>
  <outline>
    <contour>
      <point x="700" y="0" type="line"/>
      <point x="1060" y="0" type="line"/>
      <point x="1150" y="1060" type="line"/>
      <point x="885" y="1060" type="line"/>
      <point x="825" y="270" type="line"/>
      <point x="807" y="270" type="line"/>
      <point x="687" y="1060" type="line"/>
      <point x="493" y="1060" type="line"/>
      <point x="580" y="790" type="line"/>
      <point x="596" y="790" type="line"/>
    </contour>
    <contour>
      <point x="110" y="0" type="line"/>
      <point x="480" y="0" type="line"/>
      <point x="584" y="790" type="line"/>
      <point x="598" y="790" type="line"/>
      <point x="687" y="1060" type="line"/>
      <point x="493" y="1060" type="line"/>
      <point x="373" y="270" type="line"/>
      <point x="355" y="270" type="line"/>
      <point x="325" y="1060" type="line"/>
      <point x="50" y="1060" type="line"/>
    </contour>
  </outline>
</glyph>
<glyph name="x" format="2">
  <advance width="1200"/>
  <unicode hex="0078"/>
  <anchor x="600" y="0" name="bottom"/>
  <anchor x="600" y="1060" name="top"/>
  <outline>
    <contour>
      <point x="76" y="0" type="line"/>
      <point x="416" y="0" type="line"/>
      <point x="666" y="448" type="line"/>
      <point x="1124" y="1060" type="line"/>
      <point x="784" y="1060" type="line"/>
      <point x="518" y="594" type="line"/>
    </contour>
    <contour>
      <point x="784" y="0" type="line"/>
      <point x="1124" y="0" type="line"/>
      <point x="682" y="594" type="line"/>
      <point x="416" y="1060" type="line"/>
      <point x="76" y="1060" type="line"/>
      <point x="522" y="448" type="line"/>
    </contour>
  </outline>
</glyph>
<glyph name="y" format="2">
  <advance width="1200"/>
  <unicode hex="0079"/>
  <anchor x="945" y="0" name="bottom"/>
  <anchor x="615" y="1060" name="top"/>
  <outline>
    <contour>
      <point x="55" y="-480" type="line"/>
      <point x="255" y="-460" type="line" smooth="yes"/>
      <point x="554" y="-430"/>
      <point x="718" y="-288"/>
      <point x="839" y="94" type="curve" smooth="yes"/>
      <point x="1135" y="1060" type="line"/>
      <point x="835" y="1060" type="line"/>
      <point x="581" y="144" type="line" smooth="yes"/>
      <point x="511" y="-100"/>
      <point x="415" y="-196"/>
      <point x="231" y="-216" type="curve" smooth="yes"/>
      <point x="45" y="-236" type="line"/>
    </contour>
    <contour>
      <point x="377" y="0" type="line"/>
      <point x="633" y="0" type="line"/>
      <point x="633" y="244" type="line"/>
      <point x="581" y="244" type="line"/>
      <point x="335" y="1060" type="line"/>
      <point x="35" y="1060" type="line"/>
    </contour>
  </outline>
</glyph>
<glyph name="z" format="2">
  <advance width="1200"/>
  <unicode hex="007A"/>
  <anchor x="600" y="0" name="bottom"/>
  <anchor x="600" y="530" name="center"/>
  <anchor x="600" y="1060" name="top"/>
  <outline>
    <contour>
      <point x="369" y="111" type="line"/>
      <point x="1016" y="827" type="line"/>
      <point x="820" y="945" type="line"/>
      <point x="160" y="233" type="line"/>
    </contour>
    <contour>
      <point x="160" y="0" type="line"/>
      <point x="1036" y="0" type="line"/>
      <point x="1036" y="233" type="line"/>
      <point x="160" y="233" type="line"/>
    </contour>
    <contour>
      <point x="160" y="827" type="line"/>
      <point x="1016" y="827" type="line"/>
      <point x="1016" y="1060" type="line"/>
      <point x="160" y="1060" type="line"/>
    </contour>
  </outline>
</glyph>
<glyph name="braceleft" format="2">
  <advance width="1200"/>
  <unicode hex="007B"/>
  <outline>
    <contour>
      <point x="826" y="-214" type="curve" smooth="yes"/>
      <point x="913" y="-214"/>
      <point x="967" y="-206"/>
      <point x="1016" y="-194" type="curve"/>
      <point x="992" y="61" type="line"/>
      <point x="956" y="55"/>
      <point x="922" y="51"/>
      <point x="894" y="51" type="curve" smooth="yes"/>
      <point x="808" y="51"/>
      <point x="762" y="120"/>
      <point x="762" y="241" type="curve" smooth="yes"/>
      <point x="762" y="324"/>
      <point x="808" y="398"/>
      <point x="808" y="488" type="curve" smooth="yes"/>
      <point x="808" y="612"/>
      <point x="711" y="690"/>
      <point x="546" y="693" type="curve"/>
      <point x="546" y="737" type="line"/>
      <point x="711" y="740"/>
      <point x="808" y="813"/>
      <point x="808" y="942" type="curve" smooth="yes"/>
      <point x="808" y="1028"/>
      <point x="762" y="1103"/>
      <point x="762" y="1189" type="curve" smooth="yes"/>
      <point x="762" y="1298"/>
      <point x="808" y="1361"/>
      <point x="894" y="1361" type="curve" smooth="yes"/>
      <point x="922" y="1361"/>
      <point x="956" y="1357"/>
      <point x="992" y="1351" type="curve"/>
      <point x="1016" y="1606" type="line"/>
      <point x="967" y="1618"/>
      <point x="913" y="1626"/>
      <point x="826" y="1626" type="curve" smooth="yes"/>
      <point x="609" y="1626"/>
      <point x="484" y="1499"/>
      <point x="484" y="1274" type="curve" smooth="yes"/>
      <point x="484" y="1181"/>
      <point x="526" y="1096"/>
      <point x="526" y="994" type="curve" smooth="yes"/>
      <point x="526" y="898"/>
      <point x="430" y="850"/>
      <point x="236" y="850" type="curve"/>
      <point x="236" y="580" type="line"/>
      <point x="430" y="580"/>
      <point x="526" y="532"/>
      <point x="526" y="436" type="curve" smooth="yes"/>
      <point x="526" y="338"/>
      <point x="484" y="249"/>
      <point x="484" y="156" type="curve" smooth="yes"/>
      <point x="484" y="-78"/>
      <point x="609" y="-214"/>
    </contour>
  </outline>
</glyph>
<glyph name="bar" format="2">
  <advance width="1200"/>
  <unicode hex="007C"/>
  <outline>
    <contour>
      <point x="468" y="-310" type="line"/>
      <point x="732" y="-310" type="line"/>
      <point x="732" y="1730" type="line"/>
      <point x="468" y="1730" type="line"/>
    </contour>
  </outline>
</glyph>
<glyph name="braceright" format="2">
  <advance width="1200"/>
  <unicode hex="007D"/>
  <outline>
    <contour>
      <point x="376" y="-214" type="curve" smooth="yes"/>
      <point x="593" y="-214"/>
      <point x="718" y="-78"/>
      <point x="718" y="156" type="curve" smooth="yes"/>
      <point x="718" y="249"/>
      <point x="676" y="338"/>
      <point x="676" y="436" type="curve" smooth="yes"/>
      <point x="676" y="532"/>
      <point x="772" y="580"/>
      <point x="966" y="580" type="curve"/>
      <point x="966" y="850" type="line"/>
      <point x="772" y="850"/>
      <point x="676" y="898"/>
      <point x="676" y="994" type="curve" smooth="yes"/>
      <point x="676" y="1096"/>
      <point x="718" y="1181"/>
      <point x="718" y="1274" type="curve" smooth="yes"/>
      <point x="718" y="1499"/>
      <point x="593" y="1626"/>
      <point x="376" y="1626" type="curve" smooth="yes"/>
      <point x="289" y="1626"/>
      <point x="235" y="1618"/>
      <point x="186" y="1606" type="curve"/>
      <point x="210" y="1351" type="line"/>
      <point x="246" y="1357"/>
      <point x="280" y="1361"/>
      <point x="308" y="1361" type="curve" smooth="yes"/>
      <point x="394" y="1361"/>
      <point x="440" y="1298"/>
      <point x="440" y="1189" type="curve" smooth="yes"/>
      <point x="440" y="1103"/>
      <point x="394" y="1028"/>
      <point x="394" y="942" type="curve" smooth="yes"/>
      <point x="394" y="813"/>
      <point x="491" y="740"/>
      <point x="656" y="737" type="curve"/>
      <point x="656" y="693" type="line"/>
      <point x="491" y="690"/>
      <point x="394" y="612"/>
      <point x="394" y="488" type="curve" smooth="yes"/>
      <point x="394" y="398"/>
      <point x="440" y="324"/>
      <point x="440" y="241" type="curve" smooth="yes"/>
      <point x="440" y="120"/>
      <point x="394" y="51"/>
      <point x="308" y="51" type="curve" smooth="yes"/>
      <point x="280" y="51"/>
      <point x="246" y="55"/>
      <point x="210" y="61" type="curve"/>
      <point x="186" y="-194" type="line"/>
      <point x="235" y="-206"/>
      <point x="289" y="-214"/>
    </contour>
  </outline>
</glyph>
<glyph name="asciitilde" format="2">
  <advance width="1200"/>
  <unicode hex="007E"/>
  <outline>
    <contour>
      <point x="80" y="446" type="line"/>
      <point x="358" y="446" type="line"/>
      <point x="358" y="556" type="line" smooth="yes"/>
      <point x="358" y="611"/>
      <point x="383" y="635"/>
      <point x="443" y="635" type="curve" smooth="yes"/>
      <point x="499" y="635"/>
      <point x="550" y="605"/>
      <point x="604" y="569" type="curve" smooth="yes"/>
      <point x="679" y="519"/>
      <point x="759" y="480"/>
      <point x="850" y="480" type="curve" smooth="yes"/>
      <point x="1039" y="480"/>
      <point x="1120" y="579"/>
      <point x="1120" y="810" type="curve" smooth="yes"/>
      <point x="1120" y="970" type="line"/>
      <point x="844" y="970" type="line"/>
      <point x="844" y="860" type="line" smooth="yes"/>
      <point x="844" y="805"/>
      <point x="822" y="781"/>
      <point x="769" y="781" type="curve" smooth="yes"/>
      <point x="721" y="781"/>
      <point x="680" y="813"/>
      <point x="630" y="847" type="curve" smooth="yes"/>
      <point x="557" y="897"/>
      <point x="473" y="936"/>
      <point x="380" y="936" type="curve" smooth="yes"/>
      <point x="170" y="936"/>
      <point x="80" y="837"/>
      <point x="80" y="606" type="curve" smooth="yes"/>
    </contour>
  </outline>
</glyph>
<glyph name="exclamdown" format="2">
  <advance width="1200"/>
  <unicode hex="00A1"/>
  <outline>
    <contour>
      <point x="436" y="-370" type="line"/>
      <point x="764" y="-370" type="line"/>
      <point x="734" y="484" type="line"/>
      <point x="462" y="484" type="line"/>
    </contour>
    <component base="period" yScale="-1" yOffset="1060"/>
  </outline>
</glyph>
<glyph name="cent" format="2">
  <advance width="1200"/>
  <unicode hex="00A2"/>
  <anchor x="650" y="0" name="bottom"/>
  <anchor x="650" y="1060" name="top"/>
  <outline>
    <contour>
      <point x="534" y="-334" type="line"/>
      <point x="792" y="-334" type="line"/>
      <point x="792" y="1394" type="line"/>
      <point x="534" y="1394" type="line"/>
    </contour>
    <component base="c"/>
  </outline>
</glyph>
<glyph name="sterling" format="2">
  <advance width="1200"/>
  <unicode hex="00A3"/>
  <outline>
    <contour>
      <point x="112" y="0" type="line"/>
      <point x="444" y="0" type="line"/>
      <point x="404" y="254" type="line"/>
      <point x="513" y="383"/>
      <point x="566" y="498"/>
      <point x="566" y="627" type="curve" smooth="yes"/>
      <point x="566" y="960" type="line" smooth="yes"/>
      <point x="566" y="1099"/>
      <point x="646" y="1175"/>
      <point x="762" y="1175" type="curve" smooth="yes"/>
      <point x="829" y="1175"/>
      <point x="889" y="1129"/>
      <point x="927" y="1049" type="curve"/>
      <point x="1135" y="1211" type="line"/>
      <point x="1072" y="1356"/>
      <point x="933" y="1440"/>
      <point x="750" y="1440" type="curve" smooth="yes"/>
      <point x="450" y="1440"/>
      <point x="272" y="1294"/>
      <point x="272" y="1036" type="curve" smooth="yes"/>
      <point x="272" y="627" type="line" smooth="yes"/>
      <point x="272" y="498"/>
      <point x="220" y="384"/>
      <point x="112" y="254" type="curve"/>
    </contour>
    <contour>
      <point x="192" y="0" type="line"/>
      <point x="1116" y="0" type="line"/>
      <point x="1116" y="254" type="line"/>
      <point x="192" y="254" type="line"/>
    </contour>
    <contour>
      <point x="109" y="523" type="line"/>
      <point x="897" y="523" type="line"/>
      <point x="897" y="777" type="line"/>
      <point x="109" y="777" type="line"/>
    </contour>
  </outline>
</glyph>
<glyph name="currency" format="2">
  <advance width="1200"/>
  <unicode hex="00A4"/>
  <outline>
    <contour>
      <point x="603" y="280" type="curve" smooth="yes"/>
      <point x="871" y="280"/>
      <point x="1047" y="447"/>
      <point x="1047" y="700" type="curve" smooth="yes"/>
      <point x="1047" y="953"/>
      <point x="871" y="1120"/>
      <point x="603" y="1120" type="curve" smooth="yes"/>
      <point x="335" y="1120"/>
      <point x="159" y="953"/>
      <point x="159" y="700" type="curve" smooth="yes"/>
      <point x="159" y="447"/>
      <point x="335" y="280"/>
    </contour>
    <contour>
      <point x="209" y="113" type="line"/>
      <point x="432" y="344" type="line"/>
      <point x="249" y="470" type="line"/>
      <point x="53" y="285" type="line"/>
    </contour>
    <contour>
      <point x="992" y="110" type="line"/>
      <point x="1148" y="282" type="line"/>
      <point x="932" y="491" type="line"/>
      <point x="764" y="350" type="line"/>
    </contour>
    <contour>
      <point x="603" y="526" type="curve" smooth="yes"/>
      <point x="501" y="526"/>
      <point x="434" y="595"/>
      <point x="434" y="700" type="curve" smooth="yes"/>
      <point x="434" y="805"/>
      <point x="501" y="874"/>
      <point x="603" y="874" type="curve" smooth="yes"/>
      <point x="705" y="874"/>
      <point x="772" y="805"/>
      <point x="772" y="700" type="curve" smooth="yes"/>
      <point x="772" y="595"/>
      <point x="705" y="526"/>
    </contour>
    <contour>
      <point x="252" y="926" type="line"/>
      <point x="439" y="1048" type="line"/>
      <point x="220" y="1277" type="line"/>
      <point x="53" y="1113" type="line"/>
    </contour>
    <contour>
      <point x="949" y="926" type="line"/>
      <point x="1149" y="1115" type="line"/>
      <point x="982" y="1279" type="line"/>
      <point x="766" y="1054" type="line"/>
    </contour>
  </outline>
</glyph>
<glyph name="yen" format="2">
  <advance width="1200"/>
  <unicode hex="00A5"/>
  <anchor x="600" y="0" name="bottom"/>
  <anchor x="600" y="1420" name="top"/>
  <anchor x="20" y="1420" name="topleft"/>
  <outline>
    <contour>
      <point x="145" y="459" type="line"/>
      <point x="1057" y="459" type="line"/>
      <point x="1057" y="681" type="line"/>
      <point x="145" y="681" type="line"/>
    </contour>
    <contour>
      <point x="145" y="133" type="line"/>
      <point x="1057" y="133" type="line"/>
      <point x="1057" y="354" type="line"/>
      <point x="145" y="354" type="line"/>
    </contour>
    <component base="Y"/>
  </outline>
</glyph>
<glyph name="brokenbar" format="2">
  <advance width="1200"/>
  <unicode hex="00A6"/>
  <outline>
    <contour>
      <point x="468" y="870" type="line"/>
      <point x="732" y="870" type="line"/>
      <point x="732" y="1730" type="line"/>
      <point x="468" y="1730" type="line"/>
    </contour>
    <contour>
      <point x="468" y="-310" type="line"/>
      <point x="732" y="-310" type="line"/>
      <point x="732" y="550" type="line"/>
      <point x="468" y="550" type="line"/>
    </contour>
  </outline>
</glyph>
<glyph name="section" format="2">
  <advance width="1200"/>
  <unicode hex="00A7"/>
  <outline>
    <contour>
      <point x="1151" y="684" type="curve" smooth="yes"/>
      <point x="1151" y="877"/>
      <point x="1037" y="998"/>
      <point x="809" y="1064" type="curve" smooth="yes"/>
      <point x="533" y="1144" type="line" smooth="yes"/>
      <point x="465" y="1164"/>
      <point x="439" y="1174"/>
      <point x="439" y="1218" type="curve" smooth="yes"/>
      <point x="439" y="1278"/>
      <point x="512" y="1303"/>
      <point x="687" y="1303" type="curve" smooth="yes"/>
      <point x="771" y="1303"/>
      <point x="855" y="1299"/>
      <point x="971" y="1289" type="curve"/>
      <point x="993" y="1548" type="line"/>
      <point x="892" y="1562"/>
      <point x="802" y="1568"/>
      <point x="693" y="1568" type="curve" smooth="yes"/>
      <point x="311" y="1568"/>
      <point x="149" y="1470"/>
      <point x="149" y="1238" type="curve" smooth="yes"/>
      <point x="149" y="1089"/>
      <point x="217" y="1034"/>
      <point x="464" y="960" type="curve"/>
      <point x="464" y="927" type="line"/>
      <point x="173" y="928"/>
      <point x="49" y="827"/>
      <point x="49" y="628" type="curve" smooth="yes"/>
      <point x="49" y="442"/>
      <point x="156" y="330"/>
      <point x="373" y="280" type="curve" smooth="yes"/>
      <point x="677" y="210" type="line" smooth="yes"/>
      <point x="739" y="196"/>
      <point x="761" y="178"/>
      <point x="761" y="132" type="curve" smooth="yes"/>
      <point x="761" y="71"/>
      <point x="690" y="45"/>
      <point x="525" y="45" type="curve" smooth="yes"/>
      <point x="423" y="45"/>
      <point x="315" y="55"/>
      <point x="167" y="77" type="curve"/>
      <point x="143" y="-190" type="line"/>
      <point x="242" y="-212"/>
      <point x="356" y="-220"/>
      <point x="525" y="-220" type="curve" smooth="yes"/>
      <point x="893" y="-220"/>
      <point x="1051" y="-122"/>
      <point x="1051" y="106" type="curve" smooth="yes"/>
      <point x="1051" y="243"/>
      <point x="978" y="310"/>
      <point x="822" y="365" type="curve"/>
      <point x="822" y="403" type="line"/>
      <point x="1052" y="405"/>
      <point x="1151" y="490"/>
    </contour>
    <contour>
      <point x="339" y="668" type="curve" smooth="yes"/>
      <point x="339" y="774"/>
      <point x="418" y="818"/>
      <point x="607" y="818" type="curve" smooth="yes"/>
      <point x="763" y="818"/>
      <point x="861" y="787"/>
      <point x="861" y="670" type="curve" smooth="yes"/>
      <point x="861" y="571"/>
      <point x="790" y="528"/>
      <point x="625" y="528" type="curve" smooth="yes"/>
      <point x="462" y="528"/>
      <point x="339" y="557"/>
    </contour>
  </outline>
</glyph>
<glyph name="copyright" format="2">
  <advance width="1200"/>
  <unicode hex="00A9"/>
  <outline>
    <contour>
      <point x="600" y="15" type="curve" smooth="yes"/>
      <point x="978" y="15"/>
      <point x="1194" y="263"/>
      <point x="1194" y="695" type="curve" smooth="yes"/>
      <point x="1194" y="1146"/>
      <point x="978" y="1405"/>
      <point x="600" y="1405" type="curve" smooth="yes"/>
      <point x="222" y="1405"/>
      <point x="6" y="1146"/>
      <point x="6" y="695" type="curve" smooth="yes"/>
      <point x="6" y="263"/>
      <point x="222" y="15"/>
    </contour>
    <contour>
      <point x="657" y="380" type="curve" smooth="yes"/>
      <point x="718" y="380"/>
      <point x="783" y="386"/>
      <point x="842" y="410" type="curve"/>
      <point x="818" y="616" type="line"/>
      <point x="774" y="600"/>
      <point x="728" y="590"/>
      <point x="681" y="590" type="curve" smooth="yes"/>
      <point x="600" y="590"/>
      <point x="556" y="633"/>
      <point x="556" y="712" type="curve" smooth="yes"/>
      <point x="556" y="787"/>
      <point x="594" y="830"/>
      <point x="661" y="830" type="curve" smooth="yes"/>
      <point x="695" y="830"/>
      <point x="728" y="814"/>
      <point x="744" y="787" type="curve"/>
      <point x="867" y="950" type="line"/>
      <point x="835" y="1007"/>
      <point x="755" y="1040"/>
      <point x="649" y="1040" type="curve" smooth="yes"/>
      <point x="436" y="1040"/>
      <point x="316" y="919"/>
      <point x="316" y="712" type="curve" smooth="yes"/>
      <point x="316" y="498"/>
      <point x="440" y="380"/>
    </contour>
    <contour>
      <point x="600" y="239" type="curve" smooth="yes"/>
      <point x="375" y="239"/>
      <point x="246" y="405"/>
      <point x="246" y="695" type="curve" smooth="yes"/>
      <point x="246" y="1004"/>
      <point x="375" y="1181"/>
      <point x="600" y="1181" type="curve" smooth="yes"/>
      <point x="825" y="1181"/>
      <point x="954" y="1004"/>
      <point x="954" y="695" type="curve" smooth="yes"/>
      <point x="954" y="405"/>
      <point x="825" y="239"/>
    </contour>
  </outline>
</glyph>
<glyph name="ordfeminine" format="2">
  <advance width="1200"/>
  <unicode hex="00AA"/>
  <outline>
    <contour>
      <point x="685" y="779" type="line"/>
      <point x="1014" y="785" type="line"/>
      <point x="1014" y="967" type="line"/>
      <point x="907" y="980" type="line"/>
      <point x="907" y="1159" type="line" smooth="yes"/>
      <point x="907" y="1341"/>
      <point x="788" y="1438"/>
      <point x="534" y="1439" type="curve" smooth="yes"/>
      <point x="352" y="1440" type="line"/>
      <point x="341" y="1254" type="line"/>
      <point x="546" y="1254" type="line" smooth="yes"/>
      <point x="629" y="1254"/>
      <point x="671" y="1226"/>
      <point x="671" y="1178" type="curve" smooth="yes"/>
      <point x="671" y="963" type="line"/>
      <point x="677" y="964" type="line"/>
    </contour>
    <contour>
      <point x="461" y="770" type="curve" smooth="yes"/>
      <point x="556" y="770"/>
      <point x="618" y="821"/>
      <point x="646" y="921" type="curve"/>
      <point x="616" y="914" type="line"/>
      <point x="697" y="914" type="line"/>
      <point x="671" y="1078" type="line"/>
      <point x="671" y="1039" type="line"/>
      <point x="671" y="991"/>
      <point x="632" y="939"/>
      <point x="555" y="939" type="curve" smooth="yes"/>
      <point x="512" y="939"/>
      <point x="490" y="956"/>
      <point x="490" y="988" type="curve" smooth="yes"/>
      <point x="490" y="1022"/>
      <point x="518" y="1039"/>
      <point x="573" y="1039" type="curve" smooth="yes"/>
      <point x="614" y="1039"/>
      <point x="654" y="1039"/>
      <point x="695" y="1019" type="curve"/>
      <point x="721" y="1157" type="line"/>
      <point x="654" y="1175"/>
      <point x="598" y="1183"/>
      <point x="509" y="1183" type="curve" smooth="yes"/>
      <point x="353" y="1183"/>
      <point x="264" y="1105"/>
      <point x="264" y="966" type="curve" smooth="yes"/>
      <point x="264" y="841"/>
      <point x="336" y="770"/>
    </contour>
  </outline>
</glyph>
<glyph name="guillemetleft" format="2">
  <advance width="1200"/>
  <unicode hex="00AB"/>
  <outline>
    <contour>
      <point x="1104" y="74" type="line"/>
      <point x="1104" y="374" type="line"/>
      <point x="884" y="510" type="line"/>
      <point x="884" y="548" type="line"/>
      <point x="1104" y="684" type="line"/>
      <point x="1104" y="984" type="line"/>
      <point x="586" y="620" type="line"/>
      <point x="586" y="438" type="line"/>
    </contour>
    <contour>
      <point x="564" y="74" type="line"/>
      <point x="564" y="374" type="line"/>
      <point x="354" y="510" type="line"/>
      <point x="354" y="548" type="line"/>
      <point x="564" y="684" type="line"/>
      <point x="564" y="984" type="line"/>
      <point x="66" y="620" type="line"/>
      <point x="66" y="438" type="line"/>
    </contour>
  </outline>
</glyph>
<glyph name="logicalnot" format="2">
  <advance width="1200"/>
  <unicode hex="00AC"/>
  <outline>
    <contour>
      <point x="83" y="689" type="line"/>
      <point x="1117" y="689" type="line"/>
      <point x="1117" y="931" type="line"/>
      <point x="83" y="931" type="line"/>
    </contour>
    <contour>
      <point x="855" y="350" type="line"/>
      <point x="1117" y="350" type="line"/>
      <point x="1117" y="817" type="line"/>
      <point x="855" y="817" type="line"/>
    </contour>
  </outline>
</glyph>
<glyph name="registered" format="2">
  <advance width="1200"/>
  <unicode hex="00AE"/>
  <outline>
    <contour>
      <point x="600" y="15" type="curve" smooth="yes"/>
      <point x="978" y="15"/>
      <point x="1194" y="263"/>
      <point x="1194" y="695" type="curve" smooth="yes"/>
      <point x="1194" y="1146"/>
      <point x="978" y="1405"/>
      <point x="600" y="1405" type="curve" smooth="yes"/>
      <point x="222" y="1405"/>
      <point x="6" y="1146"/>
      <point x="6" y="695" type="curve" smooth="yes"/>
      <point x="6" y="263"/>
      <point x="222" y="15"/>
    </contour>
    <contour>
      <point x="368" y="396" type="line"/>
      <point x="578" y="396" type="line"/>
      <point x="578" y="1030" type="line"/>
      <point x="368" y="1030" type="line"/>
    </contour>
    <contour>
      <point x="682" y="396" type="line"/>
      <point x="899" y="396" type="line"/>
      <point x="782" y="655" type="line"/>
      <point x="598" y="628" type="line"/>
    </contour>
    <contour>
      <point x="600" y="239" type="curve" smooth="yes"/>
      <point x="375" y="239"/>
      <point x="246" y="405"/>
      <point x="246" y="695" type="curve" smooth="yes"/>
      <point x="246" y="1004"/>
      <point x="375" y="1181"/>
      <point x="600" y="1181" type="curve" smooth="yes"/>
      <point x="825" y="1181"/>
      <point x="954" y="1004"/>
      <point x="954" y="695" type="curve" smooth="yes"/>
      <point x="954" y="405"/>
      <point x="825" y="239"/>
    </contour>
    <contour>
      <point x="534" y="580" type="line"/>
      <point x="628" y="580" type="line" smooth="yes"/>
      <point x="782" y="580"/>
      <point x="870" y="662"/>
      <point x="870" y="805" type="curve" smooth="yes"/>
      <point x="870" y="947"/>
      <point x="782" y="1030"/>
      <point x="628" y="1030" type="curve" smooth="yes"/>
      <point x="514" y="1030" type="line"/>
      <point x="514" y="860" type="line"/>
      <point x="608" y="860" type="line" smooth="yes"/>
      <point x="647" y="860"/>
      <point x="670" y="840"/>
      <point x="670" y="805" type="curve" smooth="yes"/>
      <point x="670" y="770"/>
      <point x="647" y="750"/>
      <point x="608" y="750" type="curve" smooth="yes"/>
      <point x="534" y="750" type="line"/>
    </contour>
  </outline>
</glyph>
<glyph name="degree" format="2">
  <advance width="1200"/>
  <unicode hex="00B0"/>
  <outline>
    <contour>
      <point x="600" y="770" type="curve" smooth="yes"/>
      <point x="818" y="770"/>
      <point x="962" y="903"/>
      <point x="962" y="1105" type="curve" smooth="yes"/>
      <point x="962" y="1307"/>
      <point x="818" y="1440"/>
      <point x="600" y="1440" type="curve" smooth="yes"/>
      <point x="382" y="1440"/>
      <point x="238" y="1307"/>
      <point x="238" y="1105" type="curve" smooth="yes"/>
      <point x="238" y="903"/>
      <point x="382" y="770"/>
    </contour>
    <contour>
      <point x="600" y="970" type="curve" smooth="yes"/>
      <point x="529" y="970"/>
      <point x="483" y="1024"/>
      <point x="483" y="1105" type="curve" smooth="yes"/>
      <point x="483" y="1186"/>
      <point x="529" y="1240"/>
      <point x="600" y="1240" type="curve" smooth="yes"/>
      <point x="671" y="1240"/>
      <point x="717" y="1186"/>
      <point x="717" y="1105" type="curve" smooth="yes"/>
      <point x="717" y="1024"/>
      <point x="671" y="970"/>
    </contour>
  </outline>
</glyph>
<glyph name="plusminus" format="2">
  <advance width="1200"/>
  <unicode hex="00B1"/>
  <outline>
    <contour>
      <point x="462" y="246" type="line"/>
      <point x="738" y="246" type="line"/>
      <point x="738" y="1224" type="line"/>
      <point x="462" y="1224" type="line"/>
    </contour>
    <contour>
      <point x="100" y="645" type="line"/>
      <point x="1100" y="645" type="line"/>
      <point x="1100" y="907" type="line"/>
      <point x="100" y="907" type="line"/>
    </contour>
    <component base="minus" yOffset="-430"/>
  </outline>
</glyph>
<glyph name="twosuperior" format="2">
  <advance width="1200"/>
  <unicode hex="00B2"/>
  <outline>
    <contour>
      <point x="322" y="802" type="line"/>
      <point x="678" y="802" type="line"/>
      <point x="678" y="1065" type="line"/>
      <point x="800" y="1128"/>
      <point x="852" y="1187"/>
      <point x="852" y="1262" type="curve" smooth="yes"/>
      <point x="852" y="1369"/>
      <point x="750" y="1440"/>
      <point x="594" y="1440" type="curve" smooth="yes"/>
      <point x="473" y="1440"/>
      <point x="365" y="1420"/>
      <point x="297" y="1382" type="curve"/>
      <point x="363" y="1184" type="line"/>
      <point x="415" y="1207"/>
      <point x="470" y="1220"/>
      <point x="517" y="1220" type="curve" smooth="yes"/>
      <point x="558" y="1220"/>
      <point x="579" y="1209"/>
      <point x="579" y="1187" type="curve" smooth="yes"/>
      <point x="579" y="1135"/>
      <point x="494" y="1084"/>
      <point x="322" y="1039" type="curve"/>
    </contour>
    <contour>
      <point x="348" y="802" type="line"/>
      <point x="878" y="802" type="line"/>
      <point x="878" y="1022" type="line"/>
      <point x="348" y="1022" type="line"/>
    </contour>
  </outline>
</glyph>
<glyph name="threesuperior" format="2">
  <advance width="1200"/>
  <unicode hex="00B3"/>
  <outline>
    <contour>
      <point x="554" y="793" type="curve" smooth="yes"/>
      <point x="753" y="795"/>
      <point x="867" y="857"/>
      <point x="867" y="968" type="curve" smooth="yes"/>
      <point x="867" y="1058"/>
      <point x="782" y="1099"/>
      <point x="656" y="1120" type="curve" smooth="yes"/>
      <point x="443" y="1155" type="line"/>
      <point x="443" y="1039" type="line"/>
      <point x="547" y="1039" type="line" smooth="yes"/>
      <point x="590" y="1039"/>
      <point x="614" y="1031"/>
      <point x="614" y="1017" type="curve" smooth="yes"/>
      <point x="614" y="990"/>
      <point x="587" y="974"/>
      <point x="540" y="974" type="curve" smooth="yes"/>
      <point x="464" y="974"/>
      <point x="403" y="987"/>
      <point x="357" y="995" type="curve"/>
      <point x="316" y="819" type="line"/>
      <point x="378" y="802"/>
      <point x="459" y="792"/>
    </contour>
    <contour>
      <point x="443" y="1039" type="line"/>
      <point x="681" y="1089" type="line"/>
      <point x="681" y="1151" type="line"/>
      <point x="782" y="1170"/>
      <point x="850" y="1228"/>
      <point x="850" y="1302" type="curve" smooth="yes"/>
      <point x="850" y="1391"/>
      <point x="751" y="1440"/>
      <point x="574" y="1440" type="curve" smooth="yes"/>
      <point x="483" y="1440"/>
      <point x="400" y="1431"/>
      <point x="328" y="1410" type="curve"/>
      <point x="349" y="1231" type="line"/>
      <point x="406" y="1250"/>
      <point x="469" y="1260"/>
      <point x="544" y="1260" type="curve" smooth="yes"/>
      <point x="577" y="1260"/>
      <point x="596" y="1249"/>
      <point x="596" y="1231" type="curve" smooth="yes"/>
      <point x="596" y="1214"/>
      <point x="548" y="1200"/>
      <point x="433" y="1195" type="curve"/>
    </contour>
  </outline>
</glyph>
<glyph name="paragraph" format="2">
  <advance width="1200"/>
  <unicode hex="00B6"/>
  <outline>
    <contour>
      <point x="512" y="520" type="curve"/>
      <point x="524" y="1420" type="line"/>
      <point x="198" y="1420"/>
      <point x="16" y="1251"/>
      <point x="16" y="962" type="curve" smooth="yes"/>
      <point x="16" y="676"/>
      <point x="196" y="520"/>
    </contour>
    <contour>
      <point x="422" y="0" type="line"/>
      <point x="698" y="0" type="line"/>
      <point x="698" y="1286" type="line"/>
      <point x="422" y="1286" type="line"/>
    </contour>
    <contour>
      <point x="816" y="0" type="line"/>
      <point x="1092" y="0" type="line"/>
      <point x="1092" y="1420" type="line"/>
      <point x="816" y="1420" type="line"/>
    </contour>
    <contour>
      <point x="504" y="1166" type="line"/>
      <point x="1180" y="1166" type="line"/>
      <point x="1180" y="1420" type="line"/>
      <point x="504" y="1420" type="line"/>
    </contour>
  </outline>
</glyph>
<glyph name="onesuperior" format="2">
  <advance width="1200"/>
  <unicode hex="00B9"/>
  <outline>
    <contour>
      <point x="511" y="802" type="line"/>
      <point x="727" y="802" type="line"/>
      <point x="727" y="1422" type="line"/>
      <point x="511" y="1422" type="line"/>
    </contour>
    <contour>
      <point x="322" y="802" type="line"/>
      <point x="519" y="802" type="line"/>
      <point x="519" y="1022" type="line"/>
      <point x="322" y="1022" type="line"/>
    </contour>
    <contour>
      <point x="718" y="802" type="line"/>
      <point x="880" y="802" type="line"/>
      <point x="880" y="1022" type="line"/>
      <point x="718" y="1022" type="line"/>
    </contour>
    <contour>
      <point x="331" y="1146" type="line"/>
      <point x="511" y="1197" type="line"/>
      <point x="511" y="1422" type="line"/>
      <point x="331" y="1369" type="line"/>
    </contour>
  </outline>
</glyph>
<glyph name="ordmasculine" format="2">
  <advance width="1200"/>
  <unicode hex="00BA"/>
  <anchor x="300" y="5" name="ogonek"/>
  <outline>
    <contour>
      <point x="600" y="770" type="curve" smooth="yes"/>
      <point x="818" y="770"/>
      <point x="962" y="903"/>
      <point x="962" y="1105" type="curve" smooth="yes"/>
      <point x="962" y="1307"/>
      <point x="818" y="1440"/>
      <point x="600" y="1440" type="curve" smooth="yes"/>
      <point x="382" y="1440"/>
      <point x="238" y="1307"/>
      <point x="238" y="1105" type="curve" smooth="yes"/>
      <point x="238" y="903"/>
      <point x="382" y="770"/>
    </contour>
    <contour>
      <point x="600" y="980" type="curve" smooth="yes"/>
      <point x="541" y="980"/>
      <point x="503" y="1030"/>
      <point x="503" y="1105" type="curve" smooth="yes"/>
      <point x="503" y="1180"/>
      <point x="541" y="1230"/>
      <point x="600" y="1230" type="curve" smooth="yes"/>
      <point x="659" y="1230"/>
      <point x="697" y="1180"/>
      <point x="697" y="1105" type="curve" smooth="yes"/>
      <point x="697" y="1030"/>
      <point x="659" y="980"/>
    </contour>
  </outline>
</glyph>
<glyph name="guillemetright" format="2">
  <advance width="1200"/>
  <unicode hex="00BB"/>
  <guideline x="697" y="519" angle="0"/>
  <outline>
    <contour>
      <point x="646" y="74" type="line"/>
      <point x="1144" y="438" type="line"/>
      <point x="1144" y="620" type="line"/>
      <point x="646" y="984" type="line"/>
      <point x="646" y="684" type="line"/>
      <point x="856" y="548" type="line"/>
      <point x="856" y="510" type="line"/>
      <point x="646" y="374" type="line"/>
    </contour>
    <contour>
      <point x="106" y="74" type="line"/>
      <point x="624" y="438" type="line"/>
      <point x="624" y="620" type="line"/>
      <point x="106" y="984" type="line"/>
      <point x="106" y="684" type="line"/>
      <point x="326" y="548" type="line"/>
      <point x="326" y="510" type="line"/>
      <point x="106" y="374" type="line"/>
    </contour>
  </outline>
</glyph>
<glyph name="onequarter" format="2">
  <advance width="1200"/>
  <unicode hex="00BC"/>
  <outline>
    <contour>
      <point x="203" y="278" type="line"/>
      <point x="1133" y="964" type="line"/>
      <point x="1007" y="1111" type="line"/>
      <point x="77" y="430" type="line"/>
    </contour>
    <component base="foursuperior" xOffset="240" yOffset="-802"/>
    <component base="onesuperior" xOffset="-260"/>
  </outline>
</glyph>
<glyph name="onehalf" format="2">
  <advance width="1200"/>
  <unicode hex="00BD"/>
  <outline>
    <contour>
      <point x="203" y="279" type="line"/>
      <point x="1133" y="966" type="line"/>
      <point x="1007" y="1113" type="line"/>
      <point x="77" y="432" type="line"/>
    </contour>
    <component base="onesuperior" xOffset="-260"/>
    <component base="twoinferior" xOffset="270"/>
  </outline>
</glyph>
<glyph name="threequarters" format="2">
  <advance width="1200"/>
  <unicode hex="00BE"/>
  <outline>
    <contour>
      <point x="203" y="281" type="line"/>
      <point x="1133" y="968" type="line"/>
      <point x="1007" y="1114" type="line"/>
      <point x="77" y="434" type="line"/>
    </contour>
    <component base="foursuperior" xOffset="240" yOffset="-802"/>
    <component base="threesuperior" xOffset="-240"/>
  </outline>
</glyph>
<glyph name="questiondown" format="2">
  <advance width="1200"/>
  <unicode hex="00BF"/>
  <outline>
    <contour>
      <point x="564" y="-380" type="curve"/>
      <point x="586" y="-115" type="line"/>
      <point x="489" y="-115"/>
      <point x="434" y="-74"/>
      <point x="434" y="-2" type="curve" smooth="yes"/>
      <point x="434" y="62"/>
      <point x="471" y="123"/>
      <point x="536" y="166" type="curve" smooth="yes"/>
      <point x="674" y="258"/>
      <point x="740" y="345"/>
      <point x="740" y="483" type="curve" smooth="yes"/>
      <point x="740" y="564" type="line"/>
      <point x="464" y="564" type="line"/>
      <point x="464" y="537" type="line" smooth="yes"/>
      <point x="464" y="454"/>
      <point x="438" y="402"/>
      <point x="376" y="362" type="curve" smooth="yes"/>
      <point x="214" y="258"/>
      <point x="134" y="122"/>
      <point x="134" y="-42" type="curve" smooth="yes"/>
      <point x="134" y="-256"/>
      <point x="291" y="-380"/>
    </contour>
    <contour>
      <point x="564" y="-380" type="line"/>
      <point x="778" y="-380"/>
      <point x="975" y="-285"/>
      <point x="1074" y="-141" type="curve"/>
      <point x="926" y="57" type="line"/>
      <point x="841" y="-47"/>
      <point x="711" y="-115"/>
      <point x="586" y="-115" type="curve"/>
    </contour>
    <component base="period" xScale="-1" yScale="-1" xOffset="1198" yOffset="1060"/>
  </outline>
</glyph>
<glyph name="AE" format="2">
  <advance width="1200"/>
  <unicode hex="00C6"/>
  <anchor x="640" y="0" name="bottom"/>
  <anchor x="1080" y="10" name="ogonek"/>
  <anchor x="640" y="1420" name="top"/>
  <outline>
    <contour>
      <point x="25" y="0" type="line"/>
      <point x="305" y="0" type="line"/>
      <point x="523" y="1174" type="line"/>
      <point x="727" y="1174" type="line"/>
      <point x="727" y="1420" type="line"/>
      <point x="342" y="1420" type="line"/>
    </contour>
    <contour>
      <point x="232" y="147" type="line"/>
      <point x="712" y="147" type="line"/>
      <point x="712" y="401" type="line"/>
      <point x="232" y="401" type="line"/>
    </contour>
    <contour>
      <point x="570" y="0" type="line"/>
      <point x="1120" y="0" type="line"/>
      <point x="1120" y="254" type="line"/>
      <point x="570" y="254" type="line"/>
    </contour>
    <contour>
      <point x="570" y="0" type="line"/>
      <point x="820" y="0" type="line"/>
      <point x="820" y="1420" type="line"/>
      <point x="570" y="1420" type="line"/>
    </contour>
    <contour>
      <point x="570" y="584" type="line"/>
      <point x="1060" y="584" type="line"/>
      <point x="1060" y="838" type="line"/>
      <point x="570" y="838" type="line"/>
    </contour>
    <contour>
      <point x="570" y="1166" type="line"/>
      <point x="1120" y="1166" type="line"/>
      <point x="1120" y="1420" type="line"/>
      <point x="570" y="1420" type="line"/>
    </contour>
  </outline>
</glyph>
<glyph name="Eth" format="2">
  <advance width="1200"/>
  <unicode hex="00D0"/>
  <anchor x="550" y="0" name="bottom"/>
  <anchor x="550" y="710" name="center"/>
  <anchor x="550" y="1420" name="top"/>
  <outline>
    <contour>
      <point x="42" y="585" type="line"/>
      <point x="681" y="585" type="line"/>
      <point x="681" y="829" type="line"/>
      <point x="42" y="829" type="line"/>
    </contour>
    <component base="D"/>
  </outline>
</glyph>
<glyph name="multiply" format="2">
  <advance width="1200"/>
  <unicode hex="00D7"/>
  <outline>
    <contour>
      <point x="299" y="188" type="line"/>
      <point x="121" y="359" type="line"/>
      <point x="901" y="1188" type="line"/>
      <point x="1079" y="1015" type="line"/>
    </contour>
    <contour>
      <point x="901" y="188" type="line"/>
      <point x="121" y="1015" type="line"/>
      <point x="299" y="1188" type="line"/>
      <point x="1079" y="359" type="line"/>
    </contour>
  </outline>
</glyph>
<glyph name="Oslash" format="2">
  <advance width="1200"/>
  <unicode hex="00D8"/>
  <anchor x="600" y="0" name="bottom"/>
  <anchor x="600" y="710" name="center"/>
  <anchor x="1080" y="10" name="ogonek"/>
  <anchor x="600" y="1420" name="top"/>
  <anchor x="20" y="1420" name="topleft"/>
  <anchor x="1180" y="1420" name="topright"/>
  <outline>
    <contour>
      <point x="251" y="-134" type="line"/>
      <point x="1114" y="1457" type="line"/>
      <point x="929" y="1532" type="line"/>
      <point x="66" y="-59" type="line"/>
    </contour>
    <component base="O"/>
  </outline>
</glyph>
<glyph name="Thorn" format="2">
  <advance width="1200"/>
  <unicode hex="00DE"/>
  <anchor x="560" y="0" name="bottom"/>
  <anchor x="560" y="1420" name="top"/>
  <outline>
    <contour>
      <point x="392" y="205" type="line"/>
      <point x="578" y="205" type="line" smooth="yes"/>
      <point x="936" y="205"/>
      <point x="1140" y="398"/>
      <point x="1140" y="735" type="curve" smooth="yes"/>
      <point x="1140" y="1046"/>
      <point x="936" y="1225"/>
      <point x="578" y="1225" type="curve" smooth="yes"/>
      <point x="396" y="1225" type="line"/>
      <point x="396" y="971" type="line"/>
      <point x="578" y="971" type="line" smooth="yes"/>
      <point x="745" y="971"/>
      <point x="840" y="878"/>
      <point x="840" y="715" type="curve" smooth="yes"/>
      <point x="840" y="553"/>
      <point x="745" y="459"/>
      <point x="578" y="459" type="curve" smooth="yes"/>
      <point x="392" y="459" type="line"/>
    </contour>
    <contour>
      <point x="140" y="0" type="line"/>
      <point x="416" y="0" type="line"/>
      <point x="416" y="1420" type="line"/>
      <point x="140" y="1420" type="line"/>
    </contour>
  </outline>
</glyph>
<glyph name="germandbls" format="2">
  <advance width="1200"/>
  <unicode hex="00DF"/>
  <outline>
    <contour>
      <point x="818" y="-20" type="curve" smooth="yes"/>
      <point x="1063" y="-20"/>
      <point x="1184" y="81"/>
      <point x="1184" y="286" type="curve" smooth="yes"/>
      <point x="1184" y="381"/>
      <point x="1123" y="485"/>
      <point x="1000" y="599" type="curve" smooth="yes"/>
      <point x="943" y="662"/>
      <point x="892" y="715"/>
      <point x="892" y="780" type="curve" smooth="yes"/>
      <point x="892" y="856"/>
      <point x="918" y="900"/>
      <point x="948" y="946" type="curve" smooth="yes"/>
      <point x="1011" y="1042"/>
      <point x="1049" y="1120"/>
      <point x="1049" y="1190" type="curve" smooth="yes"/>
      <point x="1049" y="1400"/>
      <point x="898" y="1520"/>
      <point x="634" y="1520" type="curve" smooth="yes"/>
      <point x="350" y="1520"/>
      <point x="187" y="1363"/>
      <point x="187" y="1090" type="curve" smooth="yes"/>
      <point x="187" y="0" type="line"/>
      <point x="469" y="0" type="line"/>
      <point x="469" y="1030" type="line" smooth="yes"/>
      <point x="469" y="1170"/>
      <point x="527" y="1250"/>
      <point x="628" y="1250" type="curve" smooth="yes"/>
      <point x="705" y="1248"/>
      <point x="749" y="1212"/>
      <point x="749" y="1150" type="curve" smooth="yes"/>
      <point x="749" y="1096"/>
      <point x="718" y="1052"/>
      <point x="674" y="981" type="curve" smooth="yes"/>
      <point x="629" y="908"/>
      <point x="612" y="846"/>
      <point x="612" y="770" type="curve" smooth="yes"/>
      <point x="612" y="687"/>
      <point x="663" y="584"/>
      <point x="761" y="489" type="curve" smooth="yes"/>
      <point x="837" y="416"/>
      <point x="884" y="371"/>
      <point x="884" y="332" type="curve" smooth="yes"/>
      <point x="884" y="277"/>
      <point x="862" y="250"/>
      <point x="818" y="250" type="curve" smooth="yes"/>
      <point x="769" y="250"/>
      <point x="694" y="261"/>
      <point x="590" y="282" type="curve"/>
      <point x="566" y="10" type="line"/>
      <point x="635" y="-10"/>
      <point x="718" y="-20"/>
    </contour>
    <contour>
      <point x="48" y="600" type="line"/>
      <point x="368" y="600" type="line"/>
      <point x="368" y="864" type="line"/>
      <point x="48" y="864" type="line"/>
    </contour>
  </outline>
</glyph>
<glyph name="ae" format="2">
  <advance width="1200"/>
  <unicode hex="00E6"/>
  <anchor x="600" y="0" name="bottom"/>
  <anchor x="600" y="1060" name="top"/>
  <outline>
    <contour>
      <point x="299" y="-20" type="curve" smooth="yes"/>
      <point x="486" y="-20"/>
      <point x="572" y="95"/>
      <point x="593" y="296" type="curve"/>
      <point x="509" y="274" type="line"/>
      <point x="673" y="274" type="line"/>
      <point x="491" y="556" type="line"/>
      <point x="471" y="380" type="line"/>
      <point x="471" y="278"/>
      <point x="431" y="220"/>
      <point x="363" y="220" type="curve" smooth="yes"/>
      <point x="305" y="220"/>
      <point x="271" y="259"/>
      <point x="271" y="326" type="curve" smooth="yes"/>
      <point x="271" y="394"/>
      <point x="328" y="434"/>
      <point x="427" y="434" type="curve" smooth="yes"/>
      <point x="502" y="434"/>
      <point x="564" y="434"/>
      <point x="599" y="404" type="curve"/>
      <point x="603" y="598" type="line"/>
      <point x="554" y="621"/>
      <point x="477" y="634"/>
      <point x="391" y="634" type="curve" smooth="yes"/>
      <point x="143" y="634"/>
      <point x="1" y="507"/>
      <point x="1" y="286" type="curve" smooth="yes"/>
      <point x="1" y="91"/>
      <point x="109" y="-20"/>
    </contour>
    <contour>
      <point x="491" y="310" type="line"/>
      <point x="633" y="310" type="line"/>
      <point x="633" y="634" type="line" smooth="yes"/>
      <point x="633" y="902"/>
      <point x="492" y="1061"/>
      <point x="245" y="1067" type="curve" smooth="yes"/>
      <point x="131" y="1070" type="line"/>
      <point x="111" y="800" type="line"/>
      <point x="225" y="797" type="line" smooth="yes"/>
      <point x="380" y="793"/>
      <point x="471" y="729"/>
      <point x="471" y="626" type="curve" smooth="yes"/>
      <point x="471" y="372" type="line"/>
    </contour>
    <contour>
      <point x="963" y="-20" type="curve" smooth="yes"/>
      <point x="1024" y="-20"/>
      <point x="1094" y="-13"/>
      <point x="1153" y="-2" type="curve"/>
      <point x="1127" y="263" type="line"/>
      <point x="1082" y="255"/>
      <point x="1030" y="250"/>
      <point x="987" y="250" type="curve" smooth="yes"/>
      <point x="826" y="250"/>
      <point x="733" y="357"/>
      <point x="733" y="542" type="curve" smooth="yes"/>
      <point x="733" y="730"/>
      <point x="765" y="810"/>
      <point x="837" y="810" type="curve" smooth="yes"/>
      <point x="906" y="810"/>
      <point x="935" y="752"/>
      <point x="935" y="614" type="curve"/>
      <point x="715" y="614" type="line"/>
      <point x="715" y="420" type="line"/>
      <point x="1189" y="420" type="line"/>
      <point x="1193" y="465"/>
      <point x="1195" y="521"/>
      <point x="1195" y="572" type="curve" smooth="yes"/>
      <point x="1195" y="895"/>
      <point x="1084" y="1080"/>
      <point x="890" y="1080" type="curve" smooth="yes"/>
      <point x="692" y="1080"/>
      <point x="577" y="880"/>
      <point x="577" y="532" type="curve" smooth="yes"/>
      <point x="577" y="171"/>
      <point x="718" y="-20"/>
    </contour>
  </outline>
</glyph>
<glyph name="eth" format="2">
  <advance width="1200"/>
  <unicode hex="00F0"/>
  <outline>
    <contour>
      <point x="802" y="272" type="line"/>
      <point x="1104" y="566" type="line"/>
      <point x="1104" y="614" type="line" smooth="yes"/>
      <point x="1104" y="1105"/>
      <point x="890" y="1374"/>
      <point x="388" y="1516" type="curve"/>
      <point x="328" y="1346" type="line"/>
      <point x="662" y="1224"/>
      <point x="806" y="1021"/>
      <point x="804" y="666" type="curve" smooth="yes"/>
    </contour>
    <contour>
      <point x="592" y="250" type="curve" smooth="yes"/>
      <point x="468" y="250"/>
      <point x="398" y="323"/>
      <point x="398" y="450" type="curve" smooth="yes"/>
      <point x="398" y="578"/>
      <point x="472" y="650"/>
      <point x="606" y="650" type="curve" smooth="yes"/>
      <point x="733" y="650"/>
      <point x="804" y="578"/>
      <point x="804" y="450" type="curve" smooth="yes"/>
      <point x="804" y="317"/>
      <point x="733" y="250"/>
    </contour>
    <contour>
      <point x="594" y="-20" type="curve" smooth="yes"/>
      <point x="920" y="-20"/>
      <point x="1104" y="193"/>
      <point x="1104" y="566" type="curve"/>
      <point x="858" y="408" type="line"/>
      <point x="860" y="708" type="line"/>
      <point x="766" y="708" type="line"/>
      <point x="735" y="843"/>
      <point x="638" y="920"/>
      <point x="506" y="920" type="curve" smooth="yes"/>
      <point x="245" y="920"/>
      <point x="98" y="749"/>
      <point x="98" y="450" type="curve" smooth="yes"/>
      <point x="98" y="152"/>
      <point x="277" y="-20"/>
    </contour>
    <contour>
      <point x="288" y="967" type="line"/>
      <point x="1114" y="1197" type="line"/>
      <point x="1059" y="1432" type="line"/>
      <point x="233" y="1202" type="line"/>
    </contour>
  </outline>
</glyph>
<glyph name="divide" format="2">
  <advance width="1200"/>
  <unicode hex="00F7"/>
  <outline>
    <contour>
      <point x="100" y="568" type="line"/>
      <point x="1100" y="568" type="line"/>
      <point x="1100" y="850" type="line"/>
      <point x="100" y="850" type="line"/>
    </contour>
    <contour>
      <point x="600" y="90" type="curve" smooth="yes"/>
      <point x="703" y="90"/>
      <point x="788" y="174"/>
      <point x="788" y="276" type="curve" smooth="yes"/>
      <point x="788" y="380"/>
      <point x="703" y="464"/>
      <point x="600" y="464" type="curve" smooth="yes"/>
      <point x="497" y="464"/>
      <point x="412" y="380"/>
      <point x="412" y="276" type="curve" smooth="yes"/>
      <point x="412" y="174"/>
      <point x="497" y="90"/>
    </contour>
    <contour>
      <point x="600" y="954" type="curve" smooth="yes"/>
      <point x="702" y="954"/>
      <point x="788" y="1038"/>
      <point x="788" y="1142" type="curve" smooth="yes"/>
      <point x="788" y="1244"/>
      <point x="703" y="1328"/>
      <point x="600" y="1328" type="curve" smooth="yes"/>
      <point x="497" y="1328"/>
      <point x="412" y="1244"/>
      <point x="412" y="1142" type="curve" smooth="yes"/>
      <point x="412" y="1038"/>
      <point x="497" y="954"/>
    </contour>
  </outline>
</glyph>
<glyph name="oslash" format="2">
  <advance width="1200"/>
  <unicode hex="00F8"/>
  <outline>
    <contour>
      <point x="301" y="-134" type="line"/>
      <point x="1036" y="1116" type="line"/>
      <point x="896" y="1198" type="line"/>
      <point x="171" y="-42" type="line"/>
    </contour>
    <component base="o"/>
  </outline>
</glyph>
<glyph name="thorn" format="2">
  <advance width="1200"/>
  <unicode hex="00FE"/>
  <outline>
    <contour>
      <point x="722" y="-20" type="curve" smooth="yes"/>
      <point x="977" y="-20"/>
      <point x="1124" y="172"/>
      <point x="1124" y="520" type="curve" smooth="yes"/>
      <point x="1124" y="876"/>
      <point x="977" y="1080"/>
      <point x="720" y="1080" type="curve" smooth="yes"/>
      <point x="561" y="1080"/>
      <point x="484" y="1010"/>
      <point x="458" y="868" type="curve"/>
      <point x="368" y="868" type="line"/>
      <point x="430" y="526" type="line"/>
      <point x="430" y="717"/>
      <point x="500" y="810"/>
      <point x="638" y="810" type="curve" smooth="yes"/>
      <point x="757" y="810"/>
      <point x="824" y="704"/>
      <point x="824" y="520" type="curve" smooth="yes"/>
      <point x="824" y="341"/>
      <point x="761" y="250"/>
      <point x="638" y="250" type="curve" smooth="yes"/>
      <point x="499" y="250"/>
      <point x="430" y="336"/>
      <point x="430" y="510" type="curve" smooth="yes"/>
      <point x="430" y="556" type="line"/>
      <point x="358" y="164" type="line"/>
      <point x="458" y="164" type="line"/>
      <point x="482" y="42"/>
      <point x="572" y="-20"/>
    </contour>
    <contour>
      <point x="148" y="-460" type="line"/>
      <point x="430" y="-460" type="line"/>
      <point x="430" y="1500" type="line"/>
      <point x="148" y="1500" type="line"/>
    </contour>
  </outline>
</glyph>
<glyph name="Aogonek" format="2">
  <advance width="1200"/>
  <unicode hex="0104"/>
  <anchor x="600" y="0" name="bottom"/>
  <anchor x="1080" y="10" name="ogonek"/>
  <anchor x="600" y="1420" name="top"/>
  <outline>
    <contour>
      <point x="1018" y="-424" type="curve" smooth="yes"/>
      <point x="1053" y="-424"/>
      <point x="1097" y="-420"/>
      <point x="1138" y="-411" type="curve"/>
      <point x="1156" y="-181" type="line"/>
      <point x="1126" y="-191"/>
      <point x="1097" y="-196"/>
      <point x="1074" y="-196" type="curve" smooth="yes"/>
      <point x="1019" y="-196"/>
      <point x="988" y="-167"/>
      <point x="988" y="-118" type="curve" smooth="yes"/>
      <point x="988" y="-43"/>
      <point x="1048" y="0"/>
      <point x="1152" y="0" type="curve"/>
      <point x="1132" y="32" type="line"/>
      <point x="917" y="32" type="line"/>
      <point x="885" y="0" type="line"/>
      <point x="817" y="-36"/>
      <point x="778" y="-109"/>
      <point x="778" y="-202" type="curve" smooth="yes"/>
      <point x="778" y="-343"/>
      <point x="865" y="-424"/>
    </contour>
    <component base="A"/>
  </outline>
</glyph>
<glyph name="aogonek" format="2">
  <advance width="1200"/>
  <unicode hex="0105"/>
  <anchor x="600" y="0" name="bottom"/>
  <anchor x="1080" y="10" name="ogonek"/>
  <anchor x="580" y="1060" name="top"/>
  <outline>
    <contour>
      <point x="1020" y="-424" type="curve" smooth="yes"/>
      <point x="1052" y="-424"/>
      <point x="1092" y="-421"/>
      <point x="1130" y="-415" type="curve"/>
      <point x="1158" y="-165" type="line"/>
      <point x="1124" y="-172"/>
      <point x="1092" y="-176"/>
      <point x="1066" y="-176" type="curve" smooth="yes"/>
      <point x="1018" y="-176"/>
      <point x="990" y="-155"/>
      <point x="990" y="-118" type="curve" smooth="yes"/>
      <point x="990" y="-43"/>
      <point x="1050" y="0"/>
      <point x="1154" y="0" type="curve"/>
      <point x="1134" y="32" type="line"/>
      <point x="894" y="30" type="line"/>
      <point x="894" y="-45" type="line"/>
      <point x="821" y="-68"/>
      <point x="780" y="-137"/>
      <point x="780" y="-232" type="curve" smooth="yes"/>
      <point x="780" y="-354"/>
      <point x="867" y="-424"/>
    </contour>
    <component base="a"/>
  </outline>
</glyph>
<glyph name="dcaron" format="2">
  <advance width="1200"/>
  <unicode hex="010F"/>
  <anchor x="540" y="0" name="bottom"/>
  <anchor x="600" y="530" name="center"/>
  <anchor x="926" y="1568" name="top"/>
  <anchor x="1180" y="1060" name="topright"/>
  <outline>
    <contour>
      <point x="1105" y="1188" type="line"/>
      <point x="1311" y="1188" type="line"/>
      <point x="1401" y="1568" type="line"/>
      <point x="1155" y="1568" type="line"/>
    </contour>
    <component base="d"/>
  </outline>
</glyph>
<glyph name="dcroat" format="2">
  <advance width="1200"/>
  <unicode hex="0111"/>
  <outline>
    <contour>
      <point x="462" y="1168" type="line"/>
      <point x="1155" y="1168" type="line"/>
      <point x="1155" y="1392" type="line"/>
      <point x="462" y="1392" type="line"/>
    </contour>
    <component base="d"/>
  </outline>
</glyph>
<glyph name="Eogonek" format="2">
  <advance width="1200"/>
  <unicode hex="0118"/>
  <anchor x="630" y="0" name="bottom"/>
  <anchor x="1080" y="10" name="ogonek"/>
  <anchor x="630" y="1420" name="top"/>
  <anchor x="20" y="1420" name="topleft"/>
  <outline>
    <contour>
      <point x="966" y="-424" type="curve" smooth="yes"/>
      <point x="998" y="-424"/>
      <point x="1038" y="-421"/>
      <point x="1076" y="-415" type="curve"/>
      <point x="1094" y="-185" type="line"/>
      <point x="1064" y="-192"/>
      <point x="1035" y="-196"/>
      <point x="1012" y="-196" type="curve" smooth="yes"/>
      <point x="957" y="-196"/>
      <point x="926" y="-168"/>
      <point x="926" y="-118" type="curve" smooth="yes"/>
      <point x="926" y="-43"/>
      <point x="990" y="0"/>
      <point x="1100" y="0" type="curve"/>
      <point x="1080" y="32" type="line"/>
      <point x="840" y="30" type="line"/>
      <point x="840" y="-30" type="line"/>
      <point x="761" y="-53"/>
      <point x="716" y="-119"/>
      <point x="716" y="-212" type="curve" smooth="yes"/>
      <point x="716" y="-347"/>
      <point x="807" y="-424"/>
    </contour>
    <component base="E"/>
  </outline>
</glyph>
<glyph name="eogonek" format="2">
  <advance width="1200"/>
  <unicode hex="0119"/>
  <anchor x="630" y="0" name="bottom"/>
  <anchor x="1080" y="10" name="ogonek"/>
  <anchor x="620" y="1060" name="top"/>
  <outline>
    <contour>
      <point x="878" y="-424" type="curve" smooth="yes"/>
      <point x="910" y="-424"/>
      <point x="950" y="-421"/>
      <point x="988" y="-415" type="curve"/>
      <point x="1016" y="-165" type="line"/>
      <point x="982" y="-172"/>
      <point x="950" y="-176"/>
      <point x="924" y="-176" type="curve" smooth="yes"/>
      <point x="876" y="-176"/>
      <point x="848" y="-155"/>
      <point x="848" y="-118" type="curve" smooth="yes"/>
      <point x="848" y="-55"/>
      <point x="908" y="-10"/>
      <point x="1012" y="5" type="curve"/>
      <point x="992" y="32" type="line"/>
      <point x="752" y="30" type="line"/>
      <point x="752" y="-45" type="line"/>
      <point x="679" y="-68"/>
      <point x="638" y="-137"/>
      <point x="638" y="-232" type="curve" smooth="yes"/>
      <point x="638" y="-354"/>
      <point x="725" y="-424"/>
    </contour>
    <component base="e"/>
  </outline>
</glyph>
<glyph name="Hbar" format="2">
  <advance width="1200"/>
  <unicode hex="0126"/>
  <anchor x="600" y="0" name="bottom"/>
  <anchor x="600" y="710" name="center"/>
  <anchor x="600" y="1420" name="top"/>
  <anchor x="20" y="1420" name="topleft"/>
  <outline>
    <contour>
      <point x="42" y="1002" type="line"/>
      <point x="1158" y="1002" type="line"/>
      <point x="1158" y="1192" type="line"/>
      <point x="42" y="1192" type="line"/>
    </contour>
    <component base="H"/>
  </outline>
</glyph>
<glyph name="hbar" format="2">
  <advance width="1200"/>
  <unicode hex="0127"/>
  <anchor x="600" y="0" name="bottom"/>
  <anchor x="600" y="784" name="center"/>
  <anchor x="274" y="1500" name="top"/>
  <outline>
    <contour>
      <point x="45" y="1185" type="line"/>
      <point x="738" y="1185" type="line"/>
      <point x="738" y="1409" type="line"/>
      <point x="45" y="1409" type="line"/>
    </contour>
    <component base="h"/>
  </outline>
</glyph>
<glyph name="Iogonek" format="2">
  <advance width="1200"/>
  <unicode hex="012E"/>
  <anchor x="600" y="0" name="bottom"/>
  <anchor x="1080" y="10" name="ogonek"/>
  <anchor x="600" y="1420" name="top"/>
  <anchor x="20" y="1420" name="topleft"/>
  <outline>
    <contour>
      <point x="656" y="-424" type="curve" smooth="yes"/>
      <point x="688" y="-424"/>
      <point x="728" y="-421"/>
      <point x="766" y="-415" type="curve"/>
      <point x="784" y="-185" type="line"/>
      <point x="754" y="-192"/>
      <point x="725" y="-196"/>
      <point x="702" y="-196" type="curve" smooth="yes"/>
      <point x="647" y="-196"/>
      <point x="616" y="-168"/>
      <point x="616" y="-118" type="curve" smooth="yes"/>
      <point x="616" y="-43"/>
      <point x="680" y="0"/>
      <point x="790" y="0" type="curve"/>
      <point x="790" y="32" type="line"/>
      <point x="530" y="30" type="line"/>
      <point x="530" y="-30" type="line"/>
      <point x="451" y="-53"/>
      <point x="406" y="-119"/>
      <point x="406" y="-212" type="curve" smooth="yes"/>
      <point x="406" y="-347"/>
      <point x="497" y="-424"/>
    </contour>
    <component base="I"/>
  </outline>
</glyph>
<glyph name="iogonek" format="2">
  <advance width="1200"/>
  <unicode hex="012F"/>
  <anchor x="670" y="0" name="bottom"/>
  <outline>
    <contour>
      <point x="680" y="-424" type="curve" smooth="yes"/>
      <point x="712" y="-424"/>
      <point x="752" y="-421"/>
      <point x="790" y="-415" type="curve"/>
      <point x="818" y="-165" type="line"/>
      <point x="784" y="-172"/>
      <point x="752" y="-176"/>
      <point x="726" y="-176" type="curve" smooth="yes"/>
      <point x="678" y="-176"/>
      <point x="650" y="-155"/>
      <point x="650" y="-118" type="curve" smooth="yes"/>
      <point x="650" y="-43"/>
      <point x="710" y="0"/>
      <point x="814" y="0" type="curve"/>
      <point x="814" y="32" type="line"/>
      <point x="554" y="30" type="line"/>
      <point x="554" y="-45" type="line"/>
      <point x="481" y="-68"/>
      <point x="440" y="-137"/>
      <point x="440" y="-232" type="curve" smooth="yes"/>
      <point x="440" y="-354"/>
      <point x="527" y="-424"/>
    </contour>
    <component base="i"/>
  </outline>
</glyph>
<glyph name="idotless" format="2">
  <advance width="1200"/>
  <unicode hex="0131"/>
  <anchor x="670" y="0" name="bottom"/>
  <anchor x="731" y="10" name="ogonek"/>
  <anchor x="650" y="1060" name="top"/>
  <outline>
    <contour>
      <point x="529" y="0" type="line"/>
      <point x="811" y="0" type="line"/>
      <point x="811" y="1060" type="line"/>
      <point x="529" y="1060" type="line"/>
    </contour>
    <contour>
      <point x="140" y="0" type="line"/>
      <point x="549" y="0" type="line"/>
      <point x="549" y="264" type="line"/>
      <point x="140" y="264" type="line"/>
    </contour>
    <contour>
      <point x="791" y="0" type="line"/>
      <point x="1122" y="0" type="line"/>
      <point x="1122" y="264" type="line"/>
      <point x="791" y="264" type="line"/>
    </contour>
    <contour>
      <point x="200" y="794" type="line"/>
      <point x="811" y="794" type="line"/>
      <point x="811" y="1060" type="line"/>
      <point x="200" y="1060" type="line"/>
    </contour>
  </outline>
</glyph>
<glyph name="IJ" format="2">
  <advance width="1200"/>
  <unicode hex="0132"/>
  <outline>
    <contour>
      <point x="622" y="0" type="curve" smooth="yes"/>
      <point x="937" y="0"/>
      <point x="1092" y="179"/>
      <point x="1092" y="541" type="curve" smooth="yes"/>
      <point x="1092" y="1420" type="line"/>
      <point x="818" y="1420" type="line"/>
      <point x="818" y="541" type="line" smooth="yes"/>
      <point x="818" y="347"/>
      <point x="761" y="265"/>
      <point x="627" y="265" type="curve" smooth="yes"/>
      <point x="506" y="265"/>
      <point x="454" y="324"/>
      <point x="454" y="461" type="curve"/>
      <point x="168" y="461" type="line"/>
      <point x="168" y="153"/>
      <point x="318" y="0"/>
    </contour>
    <contour>
      <point x="25" y="602" type="line"/>
      <point x="619" y="602" type="line"/>
      <point x="619" y="856" type="line"/>
      <point x="25" y="856" type="line"/>
    </contour>
    <contour>
      <point x="174" y="602" type="line"/>
      <point x="450" y="602" type="line"/>
      <point x="450" y="1420" type="line"/>
      <point x="174" y="1420" type="line"/>
    </contour>
    <contour>
      <point x="25" y="1166" type="line"/>
      <point x="599" y="1166" type="line"/>
      <point x="599" y="1420" type="line"/>
      <point x="25" y="1420" type="line"/>
    </contour>
    <contour>
      <point x="680" y="1166" type="line"/>
      <point x="912" y="1166" type="line"/>
      <point x="912" y="1420" type="line"/>
      <point x="680" y="1420" type="line"/>
    </contour>
  </outline>
</glyph>
<glyph name="ij" format="2">
  <advance width="1200"/>
  <unicode hex="0133"/>
  <outline>
    <contour>
      <point x="232" y="-480" type="line"/>
      <point x="422" y="-468" type="line" smooth="yes"/>
      <point x="812" y="-440"/>
      <point x="980" y="-284"/>
      <point x="980" y="94" type="curve" smooth="yes"/>
      <point x="980" y="384" type="line"/>
      <point x="688" y="384" type="line"/>
      <point x="688" y="62" type="line" smooth="yes"/>
      <point x="688" y="-104"/>
      <point x="614" y="-179"/>
      <point x="442" y="-194" type="curve" smooth="yes"/>
      <point x="222" y="-212" type="line"/>
    </contour>
    <contour>
      <point x="224" y="0" type="line"/>
      <point x="516" y="0" type="line"/>
      <point x="516" y="1060" type="line"/>
      <point x="224" y="1060" type="line"/>
    </contour>
    <contour>
      <point x="688" y="350" type="line"/>
      <point x="980" y="350" type="line"/>
      <point x="980" y="1060" type="line"/>
      <point x="688" y="1060" type="line"/>
    </contour>
    <contour>
      <point x="380" y="1198" type="curve" smooth="yes"/>
      <point x="487" y="1198"/>
      <point x="558" y="1269"/>
      <point x="558" y="1376" type="curve" smooth="yes"/>
      <point x="558" y="1483"/>
      <point x="487" y="1554"/>
      <point x="380" y="1554" type="curve" smooth="yes"/>
      <point x="273" y="1554"/>
      <point x="202" y="1483"/>
      <point x="202" y="1376" type="curve" smooth="yes"/>
      <point x="202" y="1269"/>
      <point x="273" y="1198"/>
    </contour>
    <contour>
      <point x="834" y="1198" type="curve" smooth="yes"/>
      <point x="941" y="1198"/>
      <point x="1012" y="1269"/>
      <point x="1012" y="1376" type="curve" smooth="yes"/>
      <point x="1012" y="1483"/>
      <point x="941" y="1554"/>
      <point x="834" y="1554" type="curve" smooth="yes"/>
      <point x="727" y="1554"/>
      <point x="656" y="1483"/>
      <point x="656" y="1376" type="curve" smooth="yes"/>
      <point x="656" y="1269"/>
      <point x="727" y="1198"/>
    </contour>
  </outline>
</glyph>
<glyph name="kgreenlandic" format="2">
  <advance width="1200"/>
  <unicode hex="0138"/>
  <outline>
    <contour>
      <point x="310" y="372" type="line"/>
      <point x="480" y="372" type="line" smooth="yes"/>
      <point x="834" y="372"/>
      <point x="1034" y="598"/>
      <point x="1092" y="1060" type="curve"/>
      <point x="802" y="1060" type="line"/>
      <point x="761" y="754"/>
      <point x="663" y="642"/>
      <point x="430" y="642" type="curve" smooth="yes"/>
      <point x="310" y="642" type="line"/>
    </contour>
    <contour>
      <point x="140" y="0" type="line"/>
      <point x="422" y="0" type="line"/>
      <point x="422" y="1060" type="line"/>
      <point x="140" y="1060" type="line"/>
    </contour>
    <contour>
      <point x="828" y="0" type="line"/>
      <point x="1160" y="0" type="line"/>
      <point x="826" y="598" type="line"/>
      <point x="576" y="516" type="line"/>
    </contour>
  </outline>
</glyph>
<glyph name="Lcaron" format="2">
  <advance width="1200"/>
  <unicode hex="013D"/>
  <anchor x="620" y="0" name="bottom"/>
  <anchor x="600" y="710" name="center"/>
  <anchor x="260" y="1420" name="top"/>
  <anchor x="1180" y="1420" name="topright"/>
  <outline>
    <contour>
      <point x="704" y="1188" type="line"/>
      <point x="951" y="1188" type="line"/>
      <point x="1041" y="1568" type="line"/>
      <point x="754" y="1568" type="line"/>
    </contour>
    <component base="L"/>
  </outline>
</glyph>
<glyph name="lcaron" format="2">
  <advance width="1200"/>
  <unicode hex="013E"/>
  <anchor x="670" y="0" name="bottom"/>
  <anchor x="510" y="784" name="center"/>
  <anchor x="506" y="1500" name="top"/>
  <anchor x="960" y="1500" name="topright"/>
  <outline>
    <contour>
      <point x="745" y="1188" type="line"/>
      <point x="992" y="1188" type="line"/>
      <point x="1082" y="1568" type="line"/>
      <point x="795" y="1568" type="line"/>
    </contour>
    <component base="l"/>
  </outline>
</glyph>
<glyph name="Lslash" format="2">
  <advance width="1200"/>
  <unicode hex="0141"/>
  <anchor x="620" y="0" name="bottom"/>
  <anchor x="600" y="710" name="center"/>
  <anchor x="260" y="1420" name="top"/>
  <anchor x="1180" y="1420" name="topright"/>
  <outline>
    <contour>
      <point x="58" y="430" type="line"/>
      <point x="864" y="825" type="line"/>
      <point x="864" y="1085" type="line"/>
      <point x="58" y="690" type="line"/>
    </contour>
    <contour>
      <point x="227" y="0" type="line"/>
      <point x="1100" y="0" type="line"/>
      <point x="1100" y="244" type="line"/>
      <point x="227" y="244" type="line"/>
    </contour>
    <contour>
      <point x="227" y="0" type="line"/>
      <point x="490" y="0" type="line"/>
      <point x="490" y="1420" type="line"/>
      <point x="227" y="1420" type="line"/>
    </contour>
  </outline>
</glyph>
<glyph name="lslash" format="2">
  <advance width="1200"/>
  <unicode hex="0142"/>
  <anchor x="670" y="0" name="bottom"/>
  <anchor x="510" y="784" name="center"/>
  <anchor x="506" y="1500" name="top"/>
  <anchor x="960" y="1500" name="topright"/>
  <outline>
    <contour>
      <point x="118" y="438" type="line"/>
      <point x="924" y="808" type="line"/>
      <point x="924" y="1077" type="line"/>
      <point x="118" y="707" type="line"/>
    </contour>
    <component base="l"/>
  </outline>
</glyph>
<glyph name="napostrophe" format="2">
  <advance width="1200"/>
  <unicode hex="0149"/>
  <anchor x="600" y="0" name="bottom"/>
  <anchor x="590" y="1060" name="top"/>
  <outline>
    <contour>
      <point x="0" y="1248" type="line"/>
      <point x="162" y="1248" type="line"/>
      <point x="302" y="1628" type="line"/>
      <point x="70" y="1628" type="line"/>
    </contour>
    <component base="n"/>
  </outline>
</glyph>
<glyph name="Eng" format="2">
  <advance width="1200"/>
  <unicode hex="014A"/>
  <guideline x="860" y="123" angle="90"/>
  <anchor x="600" y="0" name="bottom"/>
  <anchor x="600" y="1420" name="top"/>
  <outline>
    <contour>
      <point x="473" y="-480" type="line"/>
      <point x="694" y="-479" type="line" smooth="yes"/>
      <point x="959" y="-478"/>
      <point x="1072" y="-363"/>
      <point x="1072" y="-96" type="curve" smooth="yes"/>
      <point x="1072" y="184" type="line"/>
      <point x="806" y="184" type="line"/>
      <point x="806" y="-88" type="line" smooth="yes"/>
      <point x="806" y="-181"/>
      <point x="764" y="-222"/>
      <point x="664" y="-226" type="curve" smooth="yes"/>
      <point x="473" y="-226" type="line"/>
    </contour>
    <component base="N"/>
  </outline>
</glyph>
<glyph name="eng" format="2">
  <advance width="1200"/>
  <unicode hex="014B"/>
  <outline>
    <contour>
      <point x="770" y="390" type="line"/>
      <point x="1052" y="390" type="line"/>
      <point x="1052" y="690" type="line" smooth="yes"/>
      <point x="1052" y="938"/>
      <point x="924" y="1080"/>
      <point x="700" y="1080" type="curve" smooth="yes"/>
      <point x="546" y="1080"/>
      <point x="479" y="1010"/>
      <point x="458" y="868" type="curve"/>
      <point x="368" y="868" type="line"/>
      <point x="430" y="516" type="line"/>
      <point x="430" y="713"/>
      <point x="496" y="810"/>
      <point x="625" y="810" type="curve" smooth="yes"/>
      <point x="717" y="810"/>
      <point x="770" y="738"/>
      <point x="770" y="610" type="curve" smooth="yes"/>
    </contour>
    <contour>
      <point x="464" y="-480" type="line"/>
      <point x="564" y="-468" type="line" smooth="yes"/>
      <point x="904" y="-427"/>
      <point x="1052" y="-284"/>
      <point x="1052" y="94" type="curve" smooth="yes"/>
      <point x="1052" y="444" type="line"/>
      <point x="770" y="444" type="line"/>
      <point x="770" y="62" type="line" smooth="yes"/>
      <point x="770" y="-111"/>
      <point x="714" y="-187"/>
      <point x="584" y="-204" type="curve" smooth="yes"/>
      <point x="444" y="-222" type="line"/>
    </contour>
    <contour>
      <point x="148" y="0" type="line"/>
      <point x="430" y="0" type="line"/>
      <point x="430" y="836" type="line"/>
      <point x="400" y="1060" type="line"/>
      <point x="148" y="1060" type="line"/>
    </contour>
  </outline>
</glyph>
<glyph name="OE" format="2">
  <advance width="1200"/>
  <unicode hex="0152"/>
  <anchor x="640" y="0" name="bottom"/>
  <anchor x="640" y="1420" name="top"/>
  <outline>
    <contour>
      <point x="500" y="-20" type="curve" smooth="yes"/>
      <point x="621" y="-20"/>
      <point x="714" y="0"/>
      <point x="790" y="0" type="curve" smooth="yes"/>
      <point x="828" y="0" type="line"/>
      <point x="828" y="1420" type="line"/>
      <point x="790" y="1420" type="line" smooth="yes"/>
      <point x="690" y="1420"/>
      <point x="616" y="1440"/>
      <point x="500" y="1440" type="curve" smooth="yes"/>
      <point x="218" y="1440"/>
      <point x="56" y="1170"/>
      <point x="56" y="700" type="curve" smooth="yes"/>
      <point x="56" y="242"/>
      <point x="218" y="-20"/>
    </contour>
    <contour>
      <point x="610" y="0" type="line"/>
      <point x="1120" y="0" type="line"/>
      <point x="1120" y="254" type="line"/>
      <point x="610" y="254" type="line"/>
    </contour>
    <contour>
      <point x="510" y="238" type="curve" smooth="yes"/>
      <point x="406" y="238"/>
      <point x="346" y="413"/>
      <point x="346" y="707" type="curve" smooth="yes"/>
      <point x="346" y="1013"/>
      <point x="402" y="1182"/>
      <point x="500" y="1182" type="curve" smooth="yes"/>
      <point x="520" y="1182"/>
      <point x="538" y="1178"/>
      <point x="552" y="1170" type="curve"/>
      <point x="552" y="244" type="line"/>
      <point x="540" y="240"/>
      <point x="525" y="238"/>
    </contour>
    <contour>
      <point x="630" y="584" type="line"/>
      <point x="1060" y="584" type="line"/>
      <point x="1060" y="838" type="line"/>
      <point x="630" y="838" type="line"/>
    </contour>
    <contour>
      <point x="600" y="1166" type="line"/>
      <point x="1120" y="1166" type="line"/>
      <point x="1120" y="1420" type="line"/>
      <point x="600" y="1420" type="line"/>
    </contour>
  </outline>
</glyph>
<glyph name="oe" format="2">
  <advance width="1200"/>
  <unicode hex="0153"/>
  <anchor x="610" y="0" name="bottom"/>
  <anchor x="610" y="1060" name="top"/>
  <outline>
    <contour>
      <point x="354" y="-20" type="curve" smooth="yes"/>
      <point x="565" y="-20"/>
      <point x="668" y="162"/>
      <point x="668" y="530" type="curve" smooth="yes"/>
      <point x="668" y="898"/>
      <point x="565" y="1080"/>
      <point x="354" y="1080" type="curve" smooth="yes"/>
      <point x="117" y="1080"/>
      <point x="0" y="898"/>
      <point x="0" y="530" type="curve" smooth="yes"/>
      <point x="0" y="162"/>
      <point x="117" y="-20"/>
    </contour>
    <contour>
      <point x="379" y="240" type="curve" smooth="yes"/>
      <point x="307" y="240"/>
      <point x="272" y="336"/>
      <point x="272" y="530" type="curve" smooth="yes"/>
      <point x="272" y="724"/>
      <point x="306" y="810"/>
      <point x="379" y="810" type="curve" smooth="yes"/>
      <point x="446" y="810"/>
      <point x="478" y="724"/>
      <point x="478" y="530" type="curve" smooth="yes"/>
      <point x="478" y="336"/>
      <point x="446" y="240"/>
    </contour>
    <contour>
      <point x="962" y="-20" type="curve" smooth="yes"/>
      <point x="1023" y="-20"/>
      <point x="1093" y="-13"/>
      <point x="1152" y="-2" type="curve"/>
      <point x="1126" y="263" type="line"/>
      <point x="1080" y="255"/>
      <point x="1029" y="250"/>
      <point x="986" y="250" type="curve" smooth="yes"/>
      <point x="825" y="250"/>
      <point x="732" y="357"/>
      <point x="732" y="542" type="curve" smooth="yes"/>
      <point x="732" y="730"/>
      <point x="764" y="810"/>
      <point x="836" y="810" type="curve" smooth="yes"/>
      <point x="897" y="810"/>
      <point x="922" y="752"/>
      <point x="922" y="615" type="curve"/>
      <point x="684" y="615" type="line"/>
      <point x="684" y="420" type="line"/>
      <point x="1188" y="420" type="line"/>
      <point x="1192" y="465"/>
      <point x="1194" y="521"/>
      <point x="1194" y="572" type="curve" smooth="yes"/>
      <point x="1194" y="895"/>
      <point x="1083" y="1080"/>
      <point x="889" y="1080" type="curve" smooth="yes"/>
      <point x="691" y="1080"/>
      <point x="576" y="880"/>
      <point x="576" y="532" type="curve" smooth="yes"/>
      <point x="576" y="181"/>
      <point x="717" y="-20"/>
    </contour>
  </outline>
</glyph>
<glyph name="tcaron" format="2">
  <advance width="1200"/>
  <unicode hex="0165"/>
  <anchor x="655" y="0" name="bottom"/>
  <anchor x="432" y="570" name="center"/>
  <anchor x="454" y="1480" name="top"/>
  <anchor x="1070" y="1060" name="topright"/>
  <outline>
    <contour>
      <point x="699" y="1228" type="line"/>
      <point x="938" y="1228" type="line"/>
      <point x="1019" y="1608" type="line"/>
      <point x="741" y="1608" type="line"/>
    </contour>
    <component base="t"/>
  </outline>
</glyph>
<glyph name="Tbar" format="2">
  <advance width="1200"/>
  <unicode hex="0166"/>
  <anchor x="595" y="0" name="bottom"/>
  <anchor x="600" y="710" name="center"/>
  <anchor x="600" y="1420" name="top"/>
  <outline>
    <contour>
      <point x="172" y="561" type="line"/>
      <point x="1028" y="561" type="line"/>
      <point x="1028" y="803" type="line"/>
      <point x="172" y="803" type="line"/>
    </contour>
    <component base="T"/>
  </outline>
</glyph>
<glyph name="tbar" format="2">
  <advance width="1200"/>
  <unicode hex="0167"/>
  <outline>
    <contour>
      <point x="53" y="421" type="line"/>
      <point x="1047" y="421" type="line"/>
      <point x="1047" y="670" type="line"/>
      <point x="53" y="670" type="line"/>
    </contour>
    <component base="t"/>
  </outline>
</glyph>
<glyph name="Uogonek" format="2">
  <advance width="1200"/>
  <unicode hex="0172"/>
  <anchor x="600" y="-388" name="bottom"/>
  <anchor x="1080" y="10" name="ogonek"/>
  <anchor x="600" y="1420" name="top"/>
  <anchor x="1180" y="1420" name="topright"/>
  <outline>
    <contour>
      <point x="660" y="-432" type="curve" smooth="yes"/>
      <point x="691" y="-432"/>
      <point x="726" y="-427"/>
      <point x="766" y="-415" type="curve"/>
      <point x="784" y="-203" type="line"/>
      <point x="755" y="-211"/>
      <point x="730" y="-214"/>
      <point x="711" y="-214" type="curve" smooth="yes"/>
      <point x="644" y="-214"/>
      <point x="628" y="-176"/>
      <point x="628" y="-151" type="curve" smooth="yes"/>
      <point x="628" y="-51"/>
      <point x="716" y="-25"/>
      <point x="789" y="6" type="curve"/>
      <point x="745" y="40" type="line"/>
      <point x="534" y="30" type="line"/>
      <point x="534" y="-48" type="line"/>
      <point x="451" y="-72"/>
      <point x="403" y="-138"/>
      <point x="403" y="-232" type="curve" smooth="yes"/>
      <point x="403" y="-359"/>
      <point x="496" y="-432"/>
    </contour>
    <component base="U"/>
  </outline>
</glyph>
<glyph name="uogonek" format="2">
  <advance width="1200"/>
  <unicode hex="0173"/>
  <outline>
    <contour>
      <point x="1020" y="-424" type="curve" smooth="yes"/>
      <point x="1051" y="-424"/>
      <point x="1090" y="-421"/>
      <point x="1127" y="-415" type="curve"/>
      <point x="1153" y="-178" type="line"/>
      <point x="1120" y="-185"/>
      <point x="1088" y="-189"/>
      <point x="1063" y="-189" type="curve" smooth="yes"/>
      <point x="1010" y="-189"/>
      <point x="980" y="-167"/>
      <point x="980" y="-126" type="curve" smooth="yes"/>
      <point x="980" y="-46"/>
      <point x="1044" y="0"/>
      <point x="1154" y="0" type="curve"/>
      <point x="1134" y="32" type="line"/>
      <point x="894" y="30" type="line"/>
      <point x="894" y="-43" type="line"/>
      <point x="821" y="-66"/>
      <point x="780" y="-135"/>
      <point x="780" y="-229" type="curve" smooth="yes"/>
      <point x="780" y="-353"/>
      <point x="867" y="-424"/>
    </contour>
    <component base="u"/>
  </outline>
</glyph>
<glyph name="longs" format="2">
  <advance width="1200"/>
  <unicode hex="017F"/>
  <anchor x="528" y="0" name="bottom"/>
  <anchor x="740" y="1568" name="top"/>
  <outline>
    <contour>
      <point x="387" y="0" type="line"/>
      <point x="669" y="0" type="line"/>
      <point x="669" y="970" type="line" smooth="yes"/>
      <point x="669" y="1157"/>
      <point x="741" y="1250"/>
      <point x="888" y="1250" type="curve" smooth="yes"/>
      <point x="957" y="1250"/>
      <point x="1026" y="1246"/>
      <point x="1122" y="1236" type="curve"/>
      <point x="1144" y="1500" type="line"/>
      <point x="1060" y="1514"/>
      <point x="985" y="1520"/>
      <point x="894" y="1520" type="curve" smooth="yes"/>
      <point x="555" y="1520"/>
      <point x="387" y="1338"/>
      <point x="387" y="970" type="curve" smooth="yes"/>
    </contour>
    <contour>
      <point x="48" y="599" type="line"/>
      <point x="568" y="599" type="line"/>
      <point x="568" y="865" type="line"/>
      <point x="48" y="865" type="line"/>
    </contour>
  </outline>
</glyph>
<glyph name="Oopen" format="2">
  <advance width="1200"/>
  <unicode hex="0186"/>
  <outline>
    <contour>
      <point x="476" y="-20" type="curve" smooth="yes"/>
      <point x="907" y="-20"/>
      <point x="1124" y="256"/>
      <point x="1124" y="713" type="curve" smooth="yes"/>
      <point x="1124" y="1183"/>
      <point x="895" y="1440"/>
      <point x="455" y="1440" type="curve" smooth="yes"/>
      <point x="318" y="1440"/>
      <point x="190" y="1418"/>
      <point x="66" y="1372" type="curve"/>
      <point x="132" y="1115" type="line"/>
      <point x="226" y="1155"/>
      <point x="319" y="1175"/>
      <point x="421" y="1175" type="curve" smooth="yes"/>
      <point x="693" y="1175"/>
      <point x="834" y="1004"/>
      <point x="834" y="705" type="curve" smooth="yes"/>
      <point x="834" y="418"/>
      <point x="712" y="245"/>
      <point x="507" y="245" type="curve" smooth="yes"/>
      <point x="343" y="245"/>
      <point x="270" y="275"/>
      <point x="151" y="373" type="curve"/>
      <point x="-3" y="151" type="line"/>
      <point x="121" y="37"/>
      <point x="288" y="-20"/>
    </contour>
  </outline>
</glyph>
<glyph name="Ereversed" format="2">
  <advance width="1200"/>
  <unicode hex="018E"/>
  <anchor x="570" y="0" name="bottom"/>
  <anchor x="120" y="10" name="ogonek"/>
  <anchor x="570" y="1420" name="top"/>
  <anchor x="1180" y="1420" name="topright"/>
  <outline>
    <contour>
      <point x="1057" y="0" type="line"/>
      <point x="1057" y="1420" type="line"/>
      <point x="793" y="1420" type="line"/>
      <point x="793" y="0" type="line"/>
    </contour>
    <contour>
      <point x="1057" y="0" type="line"/>
      <point x="1057" y="243" type="line"/>
      <point x="83" y="243" type="line"/>
      <point x="83" y="0" type="line"/>
    </contour>
    <contour>
      <point x="1057" y="589" type="line"/>
      <point x="1057" y="833" type="line"/>
      <point x="263" y="833" type="line"/>
      <point x="263" y="589" type="line"/>
    </contour>
    <contour>
      <point x="1057" y="1177" type="line"/>
      <point x="1057" y="1420" type="line"/>
      <point x="83" y="1420" type="line"/>
      <point x="83" y="1177" type="line"/>
    </contour>
  </outline>
</glyph>
<glyph name="Schwa" format="2">
  <advance width="1200"/>
  <unicode hex="018F"/>
  <outline>
    <contour>
      <point x="600" y="-20" type="curve" smooth="yes"/>
      <point x="961" y="-20"/>
      <point x="1144" y="218"/>
      <point x="1144" y="700" type="curve" smooth="yes"/>
      <point x="1144" y="1194"/>
      <point x="927" y="1440"/>
      <point x="500" y="1440" type="curve" smooth="yes"/>
      <point x="378" y="1440"/>
      <point x="259" y="1425"/>
      <point x="148" y="1394" type="curve"/>
      <point x="176" y="1136" type="line"/>
      <point x="276" y="1162"/>
      <point x="386" y="1175"/>
      <point x="500" y="1175" type="curve" smooth="yes"/>
      <point x="736" y="1175"/>
      <point x="854" y="1018"/>
      <point x="854" y="700" type="curve" smooth="yes"/>
      <point x="854" y="396"/>
      <point x="769" y="245"/>
      <point x="600" y="245" type="curve" smooth="yes"/>
      <point x="431" y="245"/>
      <point x="346" y="389"/>
      <point x="346" y="680" type="curve" smooth="yes"/>
      <point x="346" y="727"/>
      <point x="347" y="771"/>
      <point x="349" y="814" type="curve"/>
      <point x="60" y="830" type="line"/>
      <point x="57" y="783"/>
      <point x="56" y="732"/>
      <point x="56" y="680" type="curve" smooth="yes"/>
      <point x="56" y="211"/>
      <point x="239" y="-20"/>
    </contour>
    <contour>
      <point x="60" y="576" type="line"/>
      <point x="1021" y="576" type="line"/>
      <point x="1021" y="830" type="line"/>
      <point x="60" y="830" type="line"/>
    </contour>
  </outline>
</glyph>
<glyph name="Eopen" format="2">
  <advance width="1200"/>
  <unicode hex="0190"/>
  <outline>
    <contour>
      <point x="690" y="1440" type="curve" smooth="yes"/>
      <point x="319" y="1440"/>
      <point x="164" y="1300"/>
      <point x="164" y="1093" type="curve" smooth="yes"/>
      <point x="164" y="923"/>
      <point x="268" y="799"/>
      <point x="526" y="763" type="curve"/>
      <point x="509" y="819" type="line"/>
      <point x="509" y="702" type="line"/>
      <point x="526" y="756" type="line"/>
      <point x="308" y="752"/>
      <point x="108" y="628"/>
      <point x="108" y="394" type="curve" smooth="yes"/>
      <point x="108" y="143"/>
      <point x="326" y="-20"/>
      <point x="674" y="-20" type="curve" smooth="yes"/>
      <point x="881" y="-20"/>
      <point x="986" y="-4"/>
      <point x="1120" y="48" type="curve"/>
      <point x="1074" y="303" type="line"/>
      <point x="921" y="257"/>
      <point x="840" y="245"/>
      <point x="669" y="245" type="curve" smooth="yes"/>
      <point x="500" y="245"/>
      <point x="398" y="309"/>
      <point x="398" y="415" type="curve" smooth="yes"/>
      <point x="398" y="543"/>
      <point x="506" y="614"/>
      <point x="666" y="614" type="curve" smooth="yes"/>
      <point x="816" y="614" type="line"/>
      <point x="838" y="878" type="line"/>
      <point x="560" y="886"/>
      <point x="450" y="941"/>
      <point x="450" y="1058" type="curve" smooth="yes"/>
      <point x="450" y="1124"/>
      <point x="519" y="1175"/>
      <point x="691" y="1175" type="curve" smooth="yes"/>
      <point x="816" y="1175"/>
      <point x="918" y="1140"/>
      <point x="977" y="1073" type="curve"/>
      <point x="1145" y="1271" type="line"/>
      <point x="1052" y="1369"/>
      <point x="907" y="1440"/>
    </contour>
  </outline>
</glyph>
<glyph name="Fhook" format="2">
  <advance width="1200"/>
  <unicode hex="0191"/>
  <anchor x="660" y="-388" name="bottom"/>
  <outline>
    <contour>
      <point x="-32" y="-480" type="line"/>
      <point x="57" y="-477" type="line" smooth="yes"/>
      <point x="313" y="-473"/>
      <point x="427" y="-355"/>
      <point x="427" y="-96" type="curve" smooth="yes"/>
      <point x="427" y="184" type="line"/>
      <point x="163" y="184" type="line"/>
      <point x="163" y="-88" type="line" smooth="yes"/>
      <point x="163" y="-187"/>
      <point x="123" y="-235"/>
      <point x="29" y="-237" type="curve" smooth="yes"/>
      <point x="-34" y="-240" type="line"/>
    </contour>
    <component base="F"/>
  </outline>
</glyph>
<glyph name="florin" format="2">
  <advance width="1200"/>
  <unicode hex="0192"/>
  <outline>
    <contour>
      <point x="377" y="360" type="line"/>
      <point x="642" y="360" type="line"/>
      <point x="642" y="871" type="line" smooth="yes"/>
      <point x="642" y="1082"/>
      <point x="727" y="1188"/>
      <point x="900" y="1188" type="curve" smooth="yes"/>
      <point x="965" y="1188"/>
      <point x="1030" y="1184"/>
      <point x="1120" y="1174" type="curve"/>
      <point x="1142" y="1420" type="line"/>
      <point x="1063" y="1434"/>
      <point x="992" y="1440"/>
      <point x="906" y="1440" type="curve" smooth="yes"/>
      <point x="552" y="1440"/>
      <point x="377" y="1258"/>
      <point x="377" y="890" type="curve" smooth="yes"/>
    </contour>
    <contour>
      <point x="63" y="-477" type="line"/>
      <point x="158" y="-468" type="line" smooth="yes"/>
      <point x="496" y="-436"/>
      <point x="642" y="-284"/>
      <point x="642" y="94" type="curve" smooth="yes"/>
      <point x="642" y="384" type="line"/>
      <point x="377" y="384" type="line"/>
      <point x="377" y="88" type="line" smooth="yes"/>
      <point x="377" y="-109"/>
      <point x="316" y="-198"/>
      <point x="178" y="-215" type="curve" smooth="yes"/>
      <point x="53" y="-230" type="line"/>
    </contour>
    <contour>
      <point x="78" y="531" type="line"/>
      <point x="1058" y="531" type="line"/>
      <point x="1058" y="771" type="line"/>
      <point x="78" y="771" type="line"/>
    </contour>
  </outline>
</glyph>
<glyph name="Gammaafrican" format="2">
  <advance width="1200"/>
  <unicode hex="0194"/>
  <anchor x="600" y="-400" name="bottom"/>
  <anchor x="600" y="1420" name="top"/>
  <outline>
    <contour>
      <point x="600" y="-462" type="line"/>
      <point x="825" y="-462"/>
      <point x="956" y="-366"/>
      <point x="956" y="-196" type="curve" smooth="yes"/>
      <point x="956" y="-98"/>
      <point x="915" y="-26"/>
      <point x="771" y="111" type="curve"/>
      <point x="556" y="76" type="line"/>
      <point x="663" y="-47"/>
      <point x="696" y="-100"/>
      <point x="696" y="-152" type="curve" smooth="yes"/>
      <point x="696" y="-209"/>
      <point x="662" y="-242"/>
      <point x="600" y="-242" type="curve"/>
    </contour>
    <contour>
      <point x="600" y="-462" type="curve"/>
      <point x="600" y="-242" type="line"/>
      <point x="538" y="-242"/>
      <point x="504" y="-209"/>
      <point x="504" y="-152" type="curve" smooth="yes"/>
      <point x="504" y="-100"/>
      <point x="537" y="-47"/>
      <point x="644" y="76" type="curve"/>
      <point x="429" y="111" type="line"/>
      <point x="285" y="-26"/>
      <point x="244" y="-98"/>
      <point x="244" y="-196" type="curve" smooth="yes"/>
      <point x="244" y="-366"/>
      <point x="375" y="-462"/>
    </contour>
    <contour>
      <point x="395" y="0" type="line"/>
      <point x="605" y="68" type="line"/>
      <point x="805" y="0" type="line"/>
      <point x="1172" y="1420" type="line"/>
      <point x="899" y="1420" type="line"/>
      <point x="609" y="237" type="line"/>
      <point x="591" y="237" type="line"/>
      <point x="301" y="1420" type="line"/>
      <point x="28" y="1420" type="line"/>
    </contour>
  </outline>
</glyph>
<glyph name="lambdastroke" format="2">
  <advance width="1200"/>
  <unicode hex="019B"/>
  <anchor x="600" y="0" name="bottom"/>
  <anchor x="600" y="1460" name="top"/>
  <outline>
    <contour>
      <point x="96" y="822" type="line"/>
      <point x="1082" y="1124" type="line"/>
      <point x="1030" y="1349" type="line"/>
      <point x="44" y="1047" type="line"/>
    </contour>
    <component base="lambda"/>
  </outline>
</glyph>
<glyph name="Nhookleft" format="2">
  <advance width="1200"/>
  <unicode hex="019D"/>
  <anchor x="600" y="0" name="bottom"/>
  <anchor x="600" y="1420" name="top"/>
  <outline>
    <contour>
      <point x="-125" y="-480" type="line"/>
      <point x="16" y="-479" type="line" smooth="yes"/>
      <point x="281" y="-477"/>
      <point x="394" y="-363"/>
      <point x="394" y="-96" type="curve" smooth="yes"/>
      <point x="394" y="184" type="line"/>
      <point x="128" y="184" type="line"/>
      <point x="128" y="-88" type="line" smooth="yes"/>
      <point x="128" y="-181"/>
      <point x="86" y="-226"/>
      <point x="-14" y="-226" type="curve" smooth="yes"/>
      <point x="-125" y="-226" type="line"/>
    </contour>
    <component base="N"/>
  </outline>
</glyph>
<glyph name="Uhorn" format="2">
  <advance width="1200"/>
  <unicode hex="01AF"/>
  <anchor x="600" y="0" name="bottom"/>
  <anchor x="1080" y="10" name="ogonek"/>
  <anchor x="600" y="1420" name="top"/>
  <anchor x="1180" y="1420" name="topright"/>
  <outline>
    <contour>
      <point x="911" y="1195" type="line"/>
      <point x="971" y="1205" type="line" smooth="yes"/>
      <point x="1190" y="1242"/>
      <point x="1298" y="1393"/>
      <point x="1298" y="1653" type="curve"/>
      <point x="1026" y="1653" type="line"/>
      <point x="1026" y="1517"/>
      <point x="975" y="1420"/>
      <point x="868" y="1420" type="curve" smooth="yes"/>
      <point x="820" y="1420" type="line"/>
    </contour>
    <component base="U"/>
  </outline>
</glyph>
<glyph name="uhorn" format="2">
  <advance width="1200"/>
  <unicode hex="01B0"/>
  <anchor x="570" y="0" name="bottom"/>
  <anchor x="1080" y="10" name="ogonek"/>
  <anchor x="590" y="1060" name="top"/>
  <anchor x="1120" y="1060" name="topright"/>
  <outline>
    <contour>
      <point x="851" y="845" type="line"/>
      <point x="891" y="855" type="line" smooth="yes"/>
      <point x="1136" y="916"/>
      <point x="1238" y="1069"/>
      <point x="1238" y="1343" type="curve"/>
      <point x="988" y="1343" type="line"/>
      <point x="988" y="1183"/>
      <point x="938" y="1060"/>
      <point x="811" y="1060" type="curve" smooth="yes"/>
      <point x="771" y="1060" type="line"/>
    </contour>
    <component base="u"/>
  </outline>
</glyph>
<glyph name="Upsilonafrican" format="2">
  <advance width="1200"/>
  <unicode hex="01B1"/>
  <anchor x="600" y="0" name="bottom"/>
  <anchor x="600" y="1420" name="top"/>
  <outline>
    <contour>
      <point x="317" y="1236" type="line"/>
      <point x="317" y="1144" type="line"/>
      <point x="161" y="1046"/>
      <point x="59" y="905"/>
      <point x="59" y="603" type="curve" smooth="yes"/>
      <point x="59" y="207"/>
      <point x="256" y="-20"/>
      <point x="600" y="-20" type="curve" smooth="yes"/>
      <point x="944" y="-20"/>
      <point x="1141" y="207"/>
      <point x="1141" y="603" type="curve" smooth="yes"/>
      <point x="1141" y="910"/>
      <point x="1047" y="1050"/>
      <point x="907" y="1141" type="curve"/>
      <point x="907" y="1228" type="line"/>
      <point x="661" y="1177" type="line"/>
      <point x="774" y="1128"/>
      <point x="864" y="955"/>
      <point x="864" y="653" type="curve" smooth="yes"/>
      <point x="864" y="385"/>
      <point x="768" y="231"/>
      <point x="600" y="231" type="curve" smooth="yes"/>
      <point x="432" y="231"/>
      <point x="336" y="385"/>
      <point x="336" y="653" type="curve" smooth="yes"/>
      <point x="336" y="949"/>
      <point x="434" y="1123"/>
      <point x="563" y="1177" type="curve"/>
    </contour>
    <contour>
      <point x="87" y="1420" type="line"/>
      <point x="87" y="1177" type="line"/>
      <point x="563" y="1177" type="line"/>
      <point x="563" y="1420" type="line"/>
    </contour>
    <contour>
      <point x="661" y="1420" type="line"/>
      <point x="661" y="1177" type="line"/>
      <point x="1113" y="1177" type="line"/>
      <point x="1113" y="1420" type="line"/>
    </contour>
  </outline>
</glyph>
<glyph name="Ezh" format="2">
  <advance width="1200"/>
  <unicode hex="01B7"/>
  <outline>
    <contour>
      <point x="546" y="-20" type="curve" smooth="yes"/>
      <point x="882" y="-20"/>
      <point x="1092" y="149"/>
      <point x="1092" y="409" type="curve" smooth="yes"/>
      <point x="1092" y="697"/>
      <point x="893" y="866"/>
      <point x="544" y="871" type="curve"/>
      <point x="674" y="828" type="line"/>
      <point x="1026" y="1151" type="line"/>
      <point x="1026" y="1420" type="line"/>
      <point x="133" y="1420" type="line"/>
      <point x="133" y="1166" type="line"/>
      <point x="830" y="1166" type="line"/>
      <point x="731" y="1227" type="line"/>
      <point x="309" y="841" type="line"/>
      <point x="329" y="617" type="line"/>
      <point x="464" y="617" type="line" smooth="yes"/>
      <point x="679" y="617"/>
      <point x="802" y="547"/>
      <point x="802" y="425" type="curve" smooth="yes"/>
      <point x="802" y="313"/>
      <point x="708" y="245"/>
      <point x="551" y="245" type="curve" smooth="yes"/>
      <point x="421" y="245"/>
      <point x="346" y="281"/>
      <point x="238" y="372" type="curve"/>
      <point x="44" y="151" type="line"/>
      <point x="173" y="37"/>
      <point x="337" y="-20"/>
    </contour>
  </outline>
</glyph>
<glyph name="Gstroke" format="2">
  <advance width="1200"/>
  <unicode hex="01E4"/>
  <anchor x="715" y="0" name="bottom"/>
  <anchor x="695" y="1420" name="top"/>
  <outline>
    <contour>
      <point x="732" y="-20" type="curve" smooth="yes"/>
      <point x="911" y="-20"/>
      <point x="1061" y="22"/>
      <point x="1117" y="40" type="curve"/>
      <point x="1022" y="282" type="line"/>
      <point x="964" y="264"/>
      <point x="873" y="232"/>
      <point x="756" y="232" type="curve" smooth="yes"/>
      <point x="491" y="232"/>
      <point x="357" y="395"/>
      <point x="357" y="722" type="curve" smooth="yes"/>
      <point x="357" y="1019"/>
      <point x="496" y="1189"/>
      <point x="736" y="1189" type="curve" smooth="yes"/>
      <point x="842" y="1189"/>
      <point x="939" y="1142"/>
      <point x="1001" y="1063" type="curve"/>
      <point x="1167" y="1254" type="line"/>
      <point x="1093" y="1372"/>
      <point x="931" y="1440"/>
      <point x="724" y="1440" type="curve" smooth="yes"/>
      <point x="315" y="1440"/>
      <point x="79" y="1174"/>
      <point x="79" y="712" type="curve" smooth="yes"/>
      <point x="79" y="224"/>
      <point x="297" y="-20"/>
    </contour>
    <contour>
      <point x="855" y="40" type="line"/>
      <point x="1117" y="40" type="line"/>
      <point x="1117" y="775" type="line"/>
      <point x="855" y="775" type="line"/>
    </contour>
    <contour>
      <point x="640" y="347" type="line"/>
      <point x="1220" y="347" type="line"/>
      <point x="1220" y="590" type="line"/>
      <point x="640" y="590" type="line"/>
    </contour>
  </outline>
</glyph>
<glyph name="gstroke" format="2">
  <advance width="1200"/>
  <unicode hex="01E5"/>
  <outline>
    <contour>
      <point x="44" y="-173" type="line"/>
      <point x="1156" y="-173" type="line"/>
      <point x="1156" y="-65" type="line"/>
      <point x="44" y="-65" type="line"/>
    </contour>
    <component base="g"/>
  </outline>
</glyph>
<glyph name="Oogonek" format="2">
  <advance width="1200"/>
  <unicode hex="01EA"/>
  <anchor x="600" y="0" name="bottom"/>
  <anchor x="600" y="710" name="center"/>
  <anchor x="1080" y="10" name="ogonek"/>
  <anchor x="600" y="1420" name="top"/>
  <anchor x="20" y="1420" name="topleft"/>
  <anchor x="1180" y="1420" name="topright"/>
  <outline>
    <contour>
      <point x="658" y="-434" type="curve" smooth="yes"/>
      <point x="690" y="-434"/>
      <point x="726" y="-428"/>
      <point x="768" y="-415" type="curve"/>
      <point x="786" y="-195" type="line"/>
      <point x="757" y="-203"/>
      <point x="733" y="-206"/>
      <point x="714" y="-206" type="curve" smooth="yes"/>
      <point x="653" y="-206"/>
      <point x="638" y="-171"/>
      <point x="638" y="-148" type="curve" smooth="yes"/>
      <point x="638" y="-48"/>
      <point x="719" y="-23"/>
      <point x="786" y="8" type="curve"/>
      <point x="742" y="40" type="line"/>
      <point x="532" y="30" type="line"/>
      <point x="532" y="-50" type="line"/>
      <point x="447" y="-73"/>
      <point x="398" y="-139"/>
      <point x="398" y="-232" type="curve" smooth="yes"/>
      <point x="398" y="-360"/>
      <point x="492" y="-434"/>
    </contour>
    <component base="O"/>
  </outline>
</glyph>
<glyph name="oogonek" format="2">
  <advance width="1200"/>
  <unicode hex="01EB"/>
  <anchor x="600" y="530" name="center"/>
  <anchor x="600" y="1060" name="top"/>
  <anchor x="1040" y="1060" name="topright"/>
  <anchor x="600" y="0" name="bottom"/>
  <anchor x="600" y="10" name="ogonek"/>
  <outline>
    <contour>
      <point x="664" y="-424" type="curve" smooth="yes"/>
      <point x="696" y="-424"/>
      <point x="736" y="-421"/>
      <point x="774" y="-415" type="curve"/>
      <point x="802" y="-165" type="line"/>
      <point x="768" y="-172"/>
      <point x="736" y="-176"/>
      <point x="710" y="-176" type="curve" smooth="yes"/>
      <point x="662" y="-176"/>
      <point x="634" y="-155"/>
      <point x="634" y="-118" type="curve" smooth="yes"/>
      <point x="634" y="-61"/>
      <point x="680" y="-27"/>
      <point x="787" y="10" type="curve"/>
      <point x="778" y="32" type="line"/>
      <point x="538" y="30" type="line"/>
      <point x="538" y="-45" type="line"/>
      <point x="465" y="-68"/>
      <point x="424" y="-137"/>
      <point x="424" y="-232" type="curve" smooth="yes"/>
      <point x="424" y="-354"/>
      <point x="511" y="-424"/>
    </contour>
    <component base="o"/>
  </outline>
</glyph>
<glyph name="jdotless" format="2">
  <advance width="1200"/>
  <unicode hex="0237"/>
  <anchor x="780" y="-480" name="bottom"/>
  <anchor x="782" y="1060" name="top"/>
  <outline>
    <contour>
      <point x="180" y="-480" type="line"/>
      <point x="350" y="-468" type="line" smooth="yes"/>
      <point x="740" y="-440"/>
      <point x="908" y="-284"/>
      <point x="908" y="94" type="curve" smooth="yes"/>
      <point x="908" y="384" type="line"/>
      <point x="626" y="384" type="line"/>
      <point x="626" y="62" type="line" smooth="yes"/>
      <point x="626" y="-104"/>
      <point x="549" y="-181"/>
      <point x="370" y="-193" type="curve" smooth="yes"/>
      <point x="170" y="-206" type="line"/>
    </contour>
    <contour>
      <point x="264" y="796" type="line"/>
      <point x="642" y="796" type="line"/>
      <point x="642" y="1060" type="line"/>
      <point x="264" y="1060" type="line"/>
    </contour>
    <contour>
      <point x="626" y="350" type="line"/>
      <point x="908" y="350" type="line"/>
      <point x="908" y="1060" type="line"/>
      <point x="626" y="1060" type="line"/>
    </contour>
  </outline>
</glyph>
<glyph name="Astroke" format="2">
  <advance width="1200"/>
  <unicode hex="023A"/>
  <anchor x="600" y="0" name="bottom"/>
  <anchor x="1080" y="10" name="ogonek"/>
  <anchor x="600" y="1420" name="top"/>
  <outline>
    <contour>
      <point x="548" y="-330" type="line"/>
      <point x="662" y="318" type="line"/>
      <point x="632" y="433" type="line"/>
      <point x="729" y="985" type="line"/>
      <point x="802" y="1114" type="line"/>
      <point x="904" y="1692" type="line"/>
      <point x="701" y="1716" type="line"/>
      <point x="628" y="1299" type="line"/>
      <point x="649" y="1192" type="line"/>
      <point x="514" y="427" type="line"/>
      <point x="457" y="329" type="line"/>
      <point x="345" y="-306" type="line"/>
    </contour>
    <component base="A"/>
  </outline>
</glyph>
<glyph name="Cstroke" format="2">
  <advance width="1200"/>
  <unicode hex="023B"/>
  <anchor x="665" y="-388" name="bottom"/>
  <anchor x="695" y="1500" name="top"/>
  <outline>
    <contour>
      <point x="595" y="-330" type="line"/>
      <point x="951" y="1692" type="line"/>
      <point x="748" y="1716" type="line"/>
      <point x="392" y="-306" type="line"/>
    </contour>
    <component base="C"/>
  </outline>
</glyph>
<glyph name="Lbar" format="2">
  <advance width="1200"/>
  <unicode hex="023D"/>
  <outline>
    <contour>
      <point x="-20" y="641" type="line"/>
      <point x="836" y="641" type="line"/>
      <point x="836" y="883" type="line"/>
      <point x="-20" y="883" type="line"/>
    </contour>
    <component base="L"/>
  </outline>
</glyph>
